<?xml version="1.0" standalone="no"?>
<!DOCTYPE svg PUBLIC "-//W3C//DTD SVG 1.1//EN" "http://www.w3.org/Graphics/SVG/1.1/DTD/svg11.dtd" >
<svg xmlns="http://www.w3.org/2000/svg">
<metadata>
This is a custom SVG webfont generated by Font Squirrel.
Copyright   : Copyright c 2011 by Pablo Impallari wwwimpallaricom All rights reserved
Designer    : Pablo Impallari
Foundry     : Pablo Impallari wwwimpallaricom
Foundry URL : wwwimpallaricom
</metadata>
<defs>
<font id="LobsterTwoBold" horiz-adv-x="1034" >
<font-face units-per-em="2048" ascent="1638" descent="-410" />
<missing-glyph horiz-adv-x="440" />
<glyph unicode="IJ" horiz-adv-x="1392" d="M37 1053q0 193 186.5 338t421.5 145q33 0 86 -4v-1413q72 -8 120 -50t48 -106q0 -18 -4 -43q-55 43 -107 43q-49 0 -78.5 -39t-29.5 -94q0 -74 49 -113t113 -39q152 0 151 252v1538l305 68v-1454q0 -506 -438 -506q-182 0 -273 80t-91 217q0 76 22 127h-82v1389 q-205 -98 -205 -345q0 -57 9.5 -104t19.5 -66.5t25.5 -43t17.5 -25.5q-266 0 -266 248z" />
<glyph unicode="ij" horiz-adv-x="1038" d="M74 1296.5q0 67.5 47 115.5t114.5 48t115.5 -48t48 -115.5t-48 -114.5t-115.5 -47t-114.5 47t-47 114.5zM96 305v719h295v-696q0 -84 22.5 -113t84.5 -29q39 0 63 13q2 -14 2 -41q0 -92 -55 -131t-127 -39q-285 0 -285 317zM369 -281q0 180 274 273v1032h295v-950 q90 35 136 99.5t61 193.5h86q-16 -182 -92 -265.5t-191 -119.5v-146q0 -104 -25.5 -176t-69.5 -107.5t-90 -50t-100 -14.5q-121 0 -202.5 63.5t-81.5 167.5zM477 -262q0 -37 26.5 -63.5t57.5 -26.5q82 0 82 182v59q-166 -69 -166 -151zM625 1296.5q0 67.5 47 115.5t114.5 48 t115.5 -48t48 -115.5t-48 -114.5t-115.5 -47t-114.5 47t-47 114.5z" />
<glyph unicode="&#xfb00;" horiz-adv-x="1046" d="M-197 -242q0 100 72 154.5t221 103.5v1170q0 102 27 176t74 108.5t92 49t98 14.5q166 0 252 -131q70 131 244 131q135 0 217 -83t94 -222h-96q-12 68 -30.5 96.5t-66.5 28.5q-111 0 -110 -162v-168h205v-82h-205v-1106q0 -104 -26.5 -177t-73 -107.5t-92.5 -49t-99 -14.5 q-178 0 -256 129q-72 -129 -233 -129q-127 0 -217.5 77t-90.5 193zM-88 -227q0 -47 34 -75t68 -28q84 0 84 160v119q-186 -65 -186 -176zM379 -287q32 -43 108 -43q55 0 82 33t27 127v231l-205 -38v-187q0 -71 -12 -123zM391 76l205 37v1093q0 70 -29.5 108t-68.5 38 q-43 0 -75 -44t-32 -122v-162h150v-82h-150v-866z" />
<glyph unicode="&#xfb01;" horiz-adv-x="1089" d="M-201 -246q0 104 75 159.5t222 102.5v1078q0 440 420 440q387 0 387 -266q0 -63 -41 -99t-98 -36t-100 36t-43 97q0 63 69 75q-18 82 -129 82q-168 0 -168 -231v-168h166v-82h-164v-1106q0 -100 -25.5 -172t-70.5 -108.5t-91 -52t-102 -15.5q-129 0 -218 77t-89 189z M-92 -231q0 -53 36 -76t68 -23q35 0 59.5 39t24.5 121v119q-188 -63 -188 -180zM639 305v719h295v-696q0 -84 22.5 -113t83.5 -29q59 0 99.5 51.5t46.5 129.5h86q-12 -96 -43 -168t-67 -111t-82 -62.5t-81.5 -30.5t-74.5 -7q-285 0 -285 317z" />
<glyph unicode="&#xfb02;" horiz-adv-x="1118" d="M-199 -244q0 102 74 156.5t221 103.5v1176q0 342 295 342q86 0 190.5 -22.5t180.5 -47t201 -71.5l2 -1065q0 -84 22.5 -113t83.5 -29q59 0 99 51.5t47 129.5h86q-12 -96 -43 -168t-67 -111t-82 -62.5t-82 -30.5t-75 -7q-285 0 -284 317v1067q-86 33 -176 33 q-104 0 -105 -156v-225h193v-82h-191v-1112q0 -342 -295 -342q-113 0 -204 76t-91 192zM-90 -233q0 -39 31.5 -68t68.5 -29t62.5 38t25.5 122v119q-188 -67 -188 -182z" />
<glyph unicode="&#xfb03;" horiz-adv-x="1564" d="M-199 -244q0 102 74 156.5t221 103.5v1176q0 342 299 342q168 0 273 -104q94 104 301 104q72 0 136 -11.5t128.5 -39t103.5 -81.5t39 -132q0 -137 -129 -137q-61 0 -106 30.5t-45 96.5q0 83 50 83h1q14 0 16 -2q-23 82 -131 82q-168 0 -168 -231v-168h545v-696 q0 -84 22.5 -113t84.5 -29q59 0 99 51.5t46 129.5h86q-12 -96 -43 -168t-66.5 -111t-82 -62.5t-82 -30.5t-74.5 -7q-285 0 -285 317v637h-248v-1112q0 -100 -25.5 -171t-69.5 -105.5t-91 -50t-102 -15.5q-162 0 -244 109q-78 -109 -225 -109q-125 0 -216.5 76t-91.5 192z M-78 -227q0 -47 33 -75t68 -28q37 0 62.5 38t25.5 122v119q-189 -65 -189 -176zM381 -297q10 -61 78 -61q113 0 112 188v225l-176 -39v-180q0 -66 -14 -133zM395 74l174 32v836h-174v-868zM395 1024h174v70q0 158 47 256q-38 34 -89 34h-3q-129 0 -129 -182v-178z" />
<glyph unicode="&#xfb04;" horiz-adv-x="1595" d="M-199 -244q0 102 74 156.5t221 103.5v1176q0 342 297 342q152 0 254 -86q76 86 221 86q86 0 190.5 -22.5t180.5 -47t201 -71.5v-1065q0 -82 22.5 -112t85.5 -30q59 0 99.5 51.5t46.5 129.5h86q-12 -96 -43 -168t-67 -111t-83 -62.5t-83 -30.5t-74 -7q-123 0 -203 94 t-80 285v1005q-86 33 -176 33q-104 0 -105 -156v-225h193v-82h-191v-1106q0 -100 -25.5 -172t-69.5 -108.5t-91 -52t-100 -15.5q-162 0 -248 106q-76 -106 -238 -106q-113 0 -204 76t-91 192zM-78 -233q0 -39 32 -68t68.5 -29t62.5 38t26 122v119q-189 -67 -189 -182z M383 -295q25 -63 88 -63q100 0 100 188v225l-174 -39v-180q0 -80 -14 -131zM391 1024h178v162q0 104 27 178q-31 20 -70 20q-135 0 -135 -182v-178zM397 76l172 30v836h-172v-866z" />
<glyph unicode="Ex" horiz-adv-x="1611" d="M86 416q0 150 73.5 277.5t205.5 160.5q-186 117 -187 311q0 150 99.5 262.5t263.5 112.5q154 0 254 -65.5t100 -204.5q0 -72 -30.5 -130.5t-92.5 -58.5q-55 0 -98 45q57 18 57 140q0 80 -42 116.5t-99 36.5q-72 0 -114 -66.5t-42 -160.5q0 -113 69.5 -208t203.5 -128 q-125 -29 -198 -152.5t-73 -263.5q0 -143 73 -212.5t189 -69.5q113 0 227.5 60.5t180.5 158.5l-223 569h288l144 -364q129 184 129 301q0 8 -10 49q-25 -4 -35 -4q-63 0 -93 42t-30 89q0 37 26.5 58.5t69.5 21.5q82 0 133 -70t51 -164q0 -166 -196 -438l41 -100l36 -85 q13 -30 48 -63t76 -33q59 0 99 51.5t46 129.5h86q-16 -119 -55 -200t-92.5 -117t-98.5 -49t-94 -13q-94 0 -161.5 63.5t-135.5 210.5q-90 -131 -254 -213t-338 -82q-205 0 -341 113t-136 336z" />
<glyph unicode="Fi" horiz-adv-x="1685" d="M166 1096q0 190 145.5 315t452.5 125q63 0 223 -20.5t258 -20.5q147 0 289 39q0 -63 -6 -112.5t-24.5 -99.5t-57.5 -77.5t-98 -27.5q-74 0 -143.5 17t-159 49t-152.5 48v-409h258v-152h-258v-770h-299v1368h-19q-104 0 -160.5 -59.5t-56.5 -206.5q0 -111 17.5 -174.5 t41 -92t23.5 -30.5q-139 0 -206.5 66.5t-67.5 224.5zM1235 305v719h295v-696q0 -84 22.5 -113t83.5 -29q59 0 99.5 51.5t46.5 129.5h86q-12 -96 -43 -168t-67 -111t-82 -62.5t-81.5 -30.5t-74.5 -7q-285 0 -285 317z" />
<glyph unicode="Th" horiz-adv-x="2066" d="M41 1085q0 193 153.5 321t464.5 128q33 0 240 -26.5t326 -26.5q170 0 237 49q-16 -47 -23 -82t-13.5 -125t-6.5 -242v-168q80 119 219 119q131 0 211 -87t80 -281q0 -47 -4 -157t-4 -147q0 -90 23.5 -132t85 -42t87 43t46.5 138h86q-14 -119 -48 -200t-79 -117t-85 -49 t-87 -13q-156 0 -229.5 99t-73.5 273q0 37 2 133.5t2 129.5q0 223 -107 223q-98 0 -121 -178v-668h-276v1307q-4 0 -275 34v-1341h-299v1360q-333 -14 -333 -307q0 -90 15 -142.5t35.5 -78t22.5 -29.5q-139 0 -205.5 65.5t-66.5 216.5z" />
<glyph unicode="Ti" horiz-adv-x="1603" d="M41 1073q0 203 142.5 332t422.5 129q70 0 259.5 -16.5t305.5 -16.5q170 0 234 29q53 -96 53 -176q0 -88 -54 -126t-122 -38q-33 0 -80 10t-86 24l-116 38l-126 43v-1305h-299l3 1374q-43 6 -82 6q-127 0 -193.5 -70.5t-66.5 -240.5q0 -70 12 -124t25.5 -77.5t26.5 -42 t15 -22.5q-274 0 -274 270zM1153 305v719h295v-696q0 -84 22.5 -113t83.5 -29q59 0 99.5 51.5t46.5 129.5h86q-12 -96 -43 -168t-67 -111t-82 -62.5t-81.5 -30.5t-74.5 -7q-285 0 -285 317z" />
<glyph unicode="ax" horiz-adv-x="1841" d="M61 463q0 98 21.5 195.5t67 183.5t123 139t180.5 53q154 0 192 -108v98h295v-696q0 -41 5 -68t32 -50.5t74 -23.5q78 0 157.5 56.5t128.5 138.5l-254 643h289l174 -440q127 182 127 299q0 35 -10 49q-25 -4 -35 -4q-63 0 -93 42t-30 89q0 37 27 58.5t70 21.5 q82 0 134 -70t52 -164q0 -160 -197 -436l41 -102l21 -51q6 -17 21.5 -46.5t29.5 -44t36.5 -27t49.5 -12.5q59 0 99 51.5t48 129.5h86q-16 -119 -56 -200t-93 -117t-98 -49t-95 -13q-94 0 -161.5 63.5t-133.5 210.5q-160 -274 -423 -274q-86 0 -164 52t-111 138 q-86 -190 -266 -190q-150 0 -255.5 114.5t-105.5 360.5zM360 481q0 -102 15.5 -167.5t43 -90t46 -31t47.5 -6.5q49 0 91 49.5t42 131.5v462q-28 78 -100 78q-90 0 -137.5 -133t-47.5 -293z" />
<glyph unicode="a&#x7a;" horiz-adv-x="1855" d="M61 463q0 98 21.5 195.5t67 183.5t123 139t180.5 53q154 0 192 -108v98h295v-696q0 -84 22.5 -113t84.5 -29q25 0 40 9q-18 -119 -53 -163t-119 -44q-186 0 -229 188q-86 -188 -264 -188q-150 0 -255.5 114.5t-105.5 360.5zM360 481q0 -102 15.5 -167.5t43 -90t46 -31 t47.5 -6.5q49 0 91 49.5t42 131.5v462q-28 78 -100 78q-90 0 -137.5 -133t-47.5 -293zM1090 840q0 68 53 126t143 58h563l-391 -866q10 0 47 -4t73 -6.5t60 -2.5q88 0 88 41q-23 2 -36 17.5t-13 36.5q0 31 24.5 54t72.5 23q55 0 84.5 -36.5t29.5 -90.5q0 -72 -55 -131 t-152 -59h-565l402 913h-152q-104 0 -104 -28q0 -6 5 -8.5t12 -4.5t12 -16t5 -43q0 -41 -26.5 -63.5t-63.5 -22.5q-45 0 -80.5 29.5t-35.5 83.5z" />
<glyph unicode="bs" horiz-adv-x="1609" d="M96 305v1088l295 41v-461q88 61 160 61q117 0 200 -80t115 -229q129 39 234 322l295 40q53 -207 111.5 -386t81 -261t22.5 -174q66 44 123 101h86q-88 -131 -240 -242q-70 -137 -266 -137q-172 0 -260 90t-88 227q0 68 31.5 109t78.5 41q127 0 127 -101 q0 -33 -22.5 -55.5t-57.5 -22.5q-43 0 -61 27q33 -153 149 -153h2q51 0 76 26.5t25 87.5q0 82 -17.5 147.5t-66.5 205t-90 282.5q-94 -209 -260 -274q4 -49 4 -76q0 -80 -11.5 -152.5t-42 -149.5t-79 -132.5t-130 -91t-186.5 -35.5q-168 0 -253 84t-85 233zM391 307 q0 -121 103 -121q68 0 109.5 56.5t55 128t13.5 159.5q0 27 -4 76q-55 29 -56 113q0 37 17 59q-49 106 -131 107q-76 0 -107 -37v-541z" />
<glyph unicode="bsx" horiz-adv-x="2385" d="M96 305v1088l295 41v-461q88 61 160 61q117 0 200 -80t115 -229q129 39 234 322l295 40q53 -207 112.5 -387t81 -261t21.5 -175v-12q147 68 221 147l-246 625h289l174 -440q162 221 162 317q0 18 -2 29q-8 0 -15.5 -2t-15.5 -2q-61 0 -94 34.5t-33 81.5q0 51 38 82t89 31 q63 0 109.5 -47t46.5 -139q0 -193 -236 -510l37 -92q2 -6 14.5 -39t17.5 -44.5t18.5 -36t26.5 -33.5t33.5 -18.5t47.5 -9.5q59 0 99 51.5t48 129.5h86q-16 -119 -56 -200t-93.5 -117t-98.5 -49t-94 -13q-98 0 -166.5 69.5t-140.5 235.5q-41 -35 -94 -65.5t-120 -63.5 t-85 -43q-74 -133 -264 -133q-172 0 -260 90t-88 227q0 68 31.5 109t78.5 41q127 0 127 -101q0 -33 -22.5 -55.5t-57.5 -22.5q-43 0 -61 27q33 -153 149 -153h2q51 0 76 26.5t25 87.5q0 82 -17.5 147.5t-66.5 205t-90 282.5q-94 -209 -260 -274q4 -49 4 -76 q0 -80 -11.5 -152.5t-42 -149.5t-79 -132.5t-130 -91t-186.5 -35.5q-168 0 -253 84t-85 233zM391 307q0 -121 103 -121q68 0 109.5 56.5t55 128t13.5 159.5q0 27 -4 76q-55 29 -56 113q0 37 17 59q-49 106 -131 107q-76 0 -107 -37v-541z" />
<glyph unicode="bs&#x7a;" horiz-adv-x="2371" d="M94 305l2 1088l295 41v-461q88 61 160 61q117 0 200 -80t115 -229q74 18 144.5 102t119.5 220l295 40l78 -291q45 -163 59.5 -220.5t27 -127t12.5 -124.5q0 -336 -308 -336q-160 0 -249 90t-89 219q0 158 123 158q49 0 82 -27t33 -70q0 -37 -22.5 -59.5t-57.5 -22.5 q-43 0 -61 27q33 -153 149 -153h2q55 0 78 38.5t23 124.5q0 51 -9.5 106.5t-20.5 97.5t-46 165l-60 217q-102 -211 -288 -276q2 -25 2 -74q0 -80 -11.5 -152.5t-42 -149.5t-79 -132.5t-130 -91t-186.5 -35.5q-168 0 -254 85t-86 232zM391 307q0 -121 103 -121 q68 0 109.5 56.5t55 128t13.5 159.5q0 27 -4 76q-55 29 -56 113q0 37 17 59q-49 106 -131 107q-76 0 -107 -37v-541zM1606 840q0 68 53 126t143 58h563l-391 -866q10 0 47 -4t73 -6.5t60 -2.5q89 0 89 41q-23 2 -36.5 17.5t-13.5 36.5q0 31 25 54t72 23q55 0 84.5 -36.5 t29.5 -90.5q0 -72 -55 -131t-151 -59h-566l402 913h-152q-104 0 -104 -28q0 -6 5 -8.5t12 -4.5t12 -16t5 -43q0 -41 -26.5 -63.5t-63.5 -22.5q-45 0 -80.5 29.5t-35.5 83.5z" />
<glyph unicode="cx" horiz-adv-x="1595" d="M63 467q0 92 20.5 185t63.5 184.5t129 148.5t203 57q84 0 142.5 -22.5t84 -61t36 -73.5t10.5 -74q0 -53 -22.5 -79.5t-59.5 -26.5h-3l-75 24q6 31 6 70q0 135 -80 135q-70 0 -113 -148.5t-43 -306.5q0 -323 263 -323h2q115 0 234.5 61.5t193.5 171.5l-250 635h289 l170 -432q155 210 155 308q0 19 -2 30q-8 0 -15 -2t-16 -2q-61 0 -93.5 34.5t-32.5 81.5q0 51 37.5 82t88.5 31q63 0 109.5 -47t46.5 -139q0 -193 -229 -502l41 -100q14 -35 20 -51.5t21.5 -46t30 -44t37 -27t48.5 -12.5q59 0 99.5 51.5t48.5 129.5h86q-16 -117 -56 -199 t-92.5 -118t-96.5 -49t-91 -13q-102 0 -170 65.5t-135 218.5q-100 -131 -261 -207.5t-327 -76.5q-199 0 -326 112.5t-127 366.5z" />
<glyph unicode="c&#x7a;" horiz-adv-x="1599" d="M63 459q0 76 10.5 149.5t39 152.5t73.5 138t122 97t175 38q143 0 207 -69.5t64 -159.5q0 -55 -21.5 -89t-58.5 -34q-41 0 -84 25q6 35 6 61q0 158 -84 158q-76 0 -117 -137.5t-41 -311.5q0 -182 49.5 -247.5t157.5 -65.5q111 0 197 117q-4 -147 -66.5 -220t-226.5 -73 q-184 0 -293 113.5t-109 357.5zM864 840q0 68 53.5 126t143.5 58h485l-317 -866q41 0 102.5 -12.5t87.5 -12.5q56 0 56 53q-23 2 -36.5 17.5t-13.5 36.5q0 31 25 54t72 23q55 0 84.5 -36.5t29.5 -90.5q0 -72 -55 -131t-151 -59h-543l327 913h-73q-104 0 -105 -28 q0 -6 5.5 -8.5t12.5 -4.5t12 -16t5 -43q0 -41 -26.5 -63.5t-63.5 -22.5q-45 0 -81 29.5t-36 83.5z" />
<glyph unicode="ex" horiz-adv-x="1566" d="M68 463q0 92 20.5 184t64.5 183.5t130 147.5t202 56q78 0 133.5 -21.5t82 -47t41 -67.5t16.5 -65.5t2 -56.5q0 -147 -114 -249.5t-277 -112.5q23 -258 258 -258q115 0 236.5 61.5t195.5 169.5l-252 637h289l182 -465q180 242 180 342q0 18 -2 29q-8 0 -15 -2t-16 -2 q-61 0 -94 34.5t-33 81.5q0 51 38 82t89 31q63 0 109.5 -47t46.5 -139q0 -201 -254 -533l29 -69l36 -85q13 -30 48 -63t76 -33q59 0 99 51.5t46 129.5h86q-12 -96 -42 -168t-64.5 -111t-78.5 -62.5t-78 -30.5t-71 -7q-100 0 -168.5 63.5t-138.5 218.5q-98 -127 -257 -204.5 t-329 -77.5q-199 0 -325.5 111.5t-126.5 363.5zM367 512q102 8 168.5 87.5t66.5 188.5q0 137 -78 138q-68 0 -109.5 -130t-47.5 -284z" />
<glyph unicode="e&#x7a;" horiz-adv-x="1630" d="M66 463q0 94 20 187t64.5 183.5t130.5 145.5t202 55q78 0 133.5 -21.5t82 -47t41 -67.5t16.5 -65.5t2 -56.5q0 -147 -114 -249.5t-277 -112.5q18 -232 174 -232q55 0 115.5 32t103.5 77q0 -166 -76 -234.5t-213 -68.5q-188 0 -296.5 114.5t-108.5 360.5zM365 512 q102 8 167.5 87.5t65.5 188.5q0 137 -76 138q-68 0 -109.5 -130t-47.5 -284zM864 840q0 68 53.5 126t143.5 58h563l-391 -866q10 0 47 -4t73 -6.5t60 -2.5q88 0 88 41q-23 2 -36 17.5t-13 36.5q0 31 24.5 54t71.5 23q55 0 85 -36.5t30 -90.5q0 -72 -55.5 -131t-151.5 -59 h-565l401 913h-151q-104 0 -105 -28q0 -6 5.5 -8.5t12.5 -4.5t12 -16t5 -43q0 -41 -26.5 -63.5t-63.5 -22.5q-45 0 -81 29.5t-36 83.5z" />
<glyph unicode="&#xe9;x" horiz-adv-x="1634" d="M68 463q0 92 20.5 184t64.5 183.5t130 147.5t202 56q78 0 133.5 -21.5t82 -47t41 -67.5t16.5 -65.5t2 -56.5q0 -147 -114 -249.5t-277 -112.5q23 -258 258 -258q115 0 236.5 61.5t195.5 169.5l-252 637h289l182 -465q180 242 180 342q0 18 -2 29q-8 0 -15 -2t-16 -2 q-61 0 -94 34.5t-33 81.5q0 51 38 82t89 31q63 0 109.5 -47t46.5 -139q0 -201 -254 -533l29 -69l36 -85q13 -30 48 -63t76 -33q59 0 99 51.5t46 129.5h86q-12 -96 -42 -168t-64.5 -111t-78.5 -62.5t-78 -30.5t-71 -7q-100 0 -168.5 63.5t-138.5 218.5q-98 -127 -257 -204.5 t-329 -77.5q-199 0 -325.5 111.5t-126.5 363.5zM367 512q102 8 168.5 87.5t66.5 188.5q0 137 -78 138q-68 0 -109.5 -130t-47.5 -284zM395 1149l105 387h215l-166 -387h-154z" />
<glyph unicode="fft" horiz-adv-x="1603" d="M-199 -244q0 102 74 156.5t221 103.5v1176q0 342 299 342q154 0 256 -90q74 90 236 90q182 0 561 -141v-369h125v-82h-125v-614q0 -78 23.5 -110t74.5 -32q137 0 156 181h86q-16 -117 -57 -199t-95.5 -118t-99.5 -49t-92 -13q-129 0 -209 94t-80 285v575h-278v-1106 q0 -193 -84 -270.5t-209 -77.5q-164 0 -246 113q-73 -113 -227 -113q-127 0 -218.5 76t-91.5 192zM-78 -227q0 -47 33 -75t68 -28q37 0 62.5 38t25.5 122v119q-189 -65 -189 -176zM387 -276q0 -82 80 -82q113 0 113 188v227l-183 -41v-180q0 -57 -10 -112zM397 1024h181v162 q0 98 26 174q-38 24 -77 24h-3q-127 0 -127 -182v-178zM397 76l181 30v836h-181v-866zM874 1024h281v348q-86 33 -178 33q-102 0 -103 -156v-225z" />
<glyph unicode="fix" horiz-adv-x="1871" d="M-201 -246q0 104 75 159.5t222 102.5v1078q0 440 420 440q387 0 387 -266q0 -63 -41 -99t-98 -36t-100 36t-43 97q0 63 69 75q-18 82 -129 82q-168 0 -168 -231v-168h166v-82h-164v-1106q0 -100 -25.5 -172t-70.5 -108.5t-91 -52t-102 -15.5q-129 0 -218 77t-89 189z M-92 -231q0 -53 36 -76t68 -23q35 0 59.5 39t24.5 121v119q-188 -63 -188 -180zM639 367v657h295v-696q0 -139 113 -140q76 0 155.5 53.5t128.5 137.5l-254 645h289l172 -436q158 217 158 313q0 18 -2 29q-8 0 -15.5 -2t-15.5 -2q-61 0 -94 34.5t-33 81.5q0 51 38 82t89 31 q63 0 109.5 -47t46.5 -139q0 -190 -232 -506l39 -96l36 -85q13 -30 48 -63t76 -33q59 0 99 51.5t46 129.5h86q-16 -119 -55 -200t-92 -117t-98.5 -49t-94.5 -13q-96 0 -163.5 64.5t-135.5 215.5q-84 -121 -209 -200.5t-258 -79.5q-125 0 -198.5 94t-73.5 285z" />
<glyph unicode="fi&#x7a;" horiz-adv-x="1847" d="M-201 -246q0 104 75 159.5t222 102.5v1078q0 440 420 440q387 0 387 -266q0 -63 -41 -99t-98 -36t-100 36t-43 97q0 63 69 75q-18 82 -129 82q-168 0 -168 -231v-168h166v-82h-164v-1106q0 -100 -25.5 -172t-70.5 -108.5t-91 -52t-102 -15.5q-129 0 -218 77t-89 189z M-92 -231q0 -53 36 -76t68 -23q35 0 59.5 39t24.5 121v119q-188 -63 -188 -180zM639 305v719h295v-696q0 -84 22.5 -113t83.5 -29q39 0 64 13q2 -14 2 -41q0 -92 -55.5 -131t-126.5 -39q-285 0 -285 317zM1081 840q0 68 53.5 126t143.5 58h563l-391 -866q10 0 47 -4t73 -6.5 t60 -2.5q88 0 88 41q-23 2 -36 17.5t-13 36.5q0 31 24.5 54t71.5 23q55 0 85 -36.5t30 -90.5q0 -72 -55.5 -131t-151.5 -59h-565l401 913h-151q-104 0 -105 -28q0 -6 5.5 -8.5t12.5 -4.5t12 -16t5 -43q0 -41 -26.5 -63.5t-63.5 -22.5q-45 0 -81 29.5t-36 83.5z" />
<glyph unicode="flx" horiz-adv-x="1900" d="M-199 -244q0 102 74 156.5t221 103.5v1176q0 342 295 342q86 0 190.5 -22.5t180.5 -47t201 -71.5v-1065q0 -139 112 -140q76 0 156 52.5t129 136.5l-256 647h289l172 -436q159 214 159 312q0 19 -2 30q-8 0 -15 -2t-15 -2q-61 0 -94 34.5t-33 81.5q0 51 37.5 82t89.5 31 q63 0 109 -47t46 -139q0 -197 -233 -506l39 -96q20 -55 35.5 -86t49.5 -63t74 -32q59 0 99.5 51.5t46.5 129.5h86q-16 -119 -55 -200t-92.5 -117t-98.5 -49t-94 -13q-96 0 -163.5 64.5t-135.5 213.5q-84 -121 -203 -199.5t-252 -78.5q-125 0 -202.5 95t-77.5 284v1005 q-86 33 -176 33q-104 0 -105 -156v-225h193v-82h-191v-1112q0 -342 -295 -342q-113 0 -204 76t-91 192zM-90 -233q0 -39 31.5 -68t68.5 -29t62.5 38t25.5 122v119q-188 -67 -188 -182z" />
<glyph unicode="fl&#x7a;" horiz-adv-x="1918" d="M-199 -244q0 102 74 156.5t221 103.5v1176q0 342 295 342q86 0 190.5 -22.5t180.5 -47t201 -71.5l2 -1065q0 -84 22.5 -113t83.5 -29q41 0 62 13q4 -29 4 -43q0 -76 -50.5 -122t-132.5 -46q-285 0 -284 317v1067q-86 33 -176 33q-104 0 -105 -156v-225h193v-82h-191 v-1112q0 -342 -295 -342q-113 0 -204 76t-91 192zM-90 -233q0 -39 31.5 -68t68.5 -29t62.5 38t25.5 122v119q-188 -67 -188 -182zM1153 840q0 68 53.5 126t143.5 58h563l-391 -866q10 0 47 -4t72.5 -6.5t60.5 -2.5q88 0 88 41q-23 2 -36 17.5t-13 36.5q0 31 24.5 54t71.5 23 q55 0 85 -36.5t30 -90.5q0 -72 -55.5 -131t-151.5 -59h-565l401 913h-151q-104 0 -105 -28q0 -6 5 -8.5t12.5 -4.5t12.5 -16t5 -43q0 -41 -26.5 -63.5t-63.5 -22.5q-45 0 -81 29.5t-36 83.5z" />
<glyph unicode="ft" horiz-adv-x="1120" d="M-199 -244q0 102 74 156.5t221 103.5v1176q0 342 297 342q86 0 190.5 -22.5t180.5 -47t201 -71.5v-369h125v-82h-125l2 -614q0 -82 21.5 -112t84.5 -30q59 0 99 51.5t47 129.5h86q-12 -96 -43 -168t-67 -111t-83 -62.5t-83 -30.5t-75 -7q-123 0 -202.5 94t-79.5 285v575 h-281v-1112q0 -342 -295 -342q-113 0 -204 76t-91 192zM-90 -233q0 -39 31.5 -68t68.5 -29t62.5 38t25.5 122v119q-188 -67 -188 -182zM391 1024h281v348q-86 33 -176 33q-104 0 -105 -156v-225z" />
<glyph unicode="fu" horiz-adv-x="1581" d="M-197 -242q0 100 72 154.5t221 103.5v1170q0 102 27 176t74 108.5t92 49t98 14.5q137 0 217 -86t92 -219h-96q-12 68 -30.5 96.5t-63.5 28.5q-115 0 -115 -168v-162h547v-696q0 -141 84 -142q55 0 92 51.5t37 129.5v657h295v-696q0 -78 20.5 -110t73.5 -32q139 0 158 181 h86q-12 -96 -43 -168t-67 -111t-82 -62.5t-82.5 -30.5t-75.5 -7q-201 0 -244 194q-76 -194 -270 -194h-2q-274 0 -275 317v637h-252v-1106q0 -104 -26.5 -177t-71.5 -107.5t-89 -49t-93 -14.5q-127 0 -217.5 77t-90.5 193zM-88 -227q0 -47 34 -75t68 -28q84 0 84 160v119 q-186 -65 -186 -176z" />
<glyph unicode="fx" horiz-adv-x="1384" d="M-197 -242q0 100 72 154.5t221 103.5v1170q0 102 27 176t74 108.5t92 49t98 14.5q137 0 217 -86t92 -219h-96q-12 68 -30.5 96.5t-63.5 28.5q-115 0 -115 -168v-162h488l182 -420q147 203 147 297q0 18 -2 29q-8 0 -15 -2t-15 -2q-61 0 -94 34.5t-33 81.5q0 51 37.5 82 t89.5 31q63 0 109 -47t46 -135q0 -188 -217 -490l51 -116q25 -57 40.5 -87t48 -62t71.5 -32q59 0 99 51.5t46 129.5h86q-51 -379 -333 -379q-109 0 -181.5 84t-164.5 295l-7 12q-137 -102 -137 -203q0 -16 2 -24q8 2 25 2q51 0 80.5 -36t29.5 -93q0 -84 -96 -84 q-84 0 -127 51t-43 131q0 90 63.5 192.5t153.5 173.5l-196 453h-234v-1106q0 -104 -26.5 -177t-71.5 -107.5t-89 -49t-93 -14.5q-127 0 -217.5 77t-90.5 193zM-88 -227q0 -47 34 -75t68 -28q84 0 84 160v119q-186 -65 -186 -176z" />
<glyph unicode="gp" horiz-adv-x="1994" d="M55 487q0 129 37 248t131 209t232 90q150 0 188 -102v92h295v-940q131 29 197 39v977h295v-154q82 88 221 88q152 0 248 -121.5t96 -400.5q0 -94 -18.5 -181t-59.5 -167t-118 -128t-181 -48q-102 0 -188 6v-432l-295 -74v516q-119 -4 -197 -22v-146q0 -348 -293 -348 q-115 0 -195.5 63.5t-80.5 174.5q0 178 274 276v162q-78 -135 -229 -135q-147 0 -253 111.5t-106 346.5zM354 502q0 -94 14.5 -155.5t42 -84t47 -29t46.5 -6.5q45 0 87 39t52 107v463q-8 27 -33.5 49t-64.5 22q-92 0 -141.5 -128t-49.5 -277zM477 -266q0 -33 25.5 -59.5 t60.5 -26.5t57.5 48t22.5 134v59q-166 -69 -166 -155zM1430 154q29 2 90 2q98 0 144 116.5t46 264.5q0 350 -162 350q-37 0 -69.5 -26.5t-48.5 -74.5v-632z" />
<glyph unicode="gx" horiz-adv-x="1869" d="M55 487q0 129 37 248t131 209t232 90q150 0 188 -102v92h295v-946q223 86 379 317l-248 629h289l174 -440q162 221 162 317q0 18 -2 29q-8 0 -15.5 -2t-15.5 -2q-61 0 -94 34.5t-33 81.5q0 51 38 82t89 31q63 0 109.5 -47t46.5 -139q0 -193 -236 -510l37 -92l36 -85 q13 -30 48 -63t76 -33q59 0 98 51.5t47 129.5h86q-16 -119 -56 -200t-93.5 -117t-98.5 -49t-94 -13q-96 0 -162.5 64.5t-134.5 215.5q-129 -180 -432 -280v-152q0 -348 -295 -348q-115 0 -195.5 63.5t-80.5 174.5q0 150 276 258v180q-78 -135 -229 -135q-147 0 -253 111.5 t-106 346.5zM354 502q0 -94 14.5 -155.5t42 -84t47 -29t46.5 -6.5q45 0 87 39t52 107v463q-8 27 -33.5 49t-64.5 22q-92 0 -141.5 -128t-49.5 -277zM477 -266q0 -33 24.5 -59.5t61.5 -26.5q35 0 57.5 48t22.5 134v59q-166 -65 -166 -155z" />
<glyph unicode="g&#x7a;" horiz-adv-x="1857" d="M55 481q0 98 21.5 190.5t66.5 176.5t128 135t194 51q139 0 178 -102v92h295v-1188q0 -104 -25.5 -177t-70.5 -107.5t-90 -49t-99 -14.5q-121 0 -202.5 63.5t-81.5 167.5q0 180 274 273v172q-80 -135 -231 -135q-145 0 -251 111.5t-106 340.5zM354 492q0 -264 135 -265 q63 0 104.5 42t49.5 110v457q-8 27 -33.5 49t-64.5 22q-63 0 -108.5 -66.5t-64 -157.5t-18.5 -191zM477 -264q0 -37 26.5 -62.5t55.5 -25.5q39 0 61.5 47t22.5 135v59q-166 -67 -166 -153zM1092 840q0 68 53 126t143 58h563l-391 -866q10 0 47 -4t73 -6.5t60 -2.5 q89 0 89 41q-23 2 -36.5 17.5t-13.5 36.5q0 31 25 54t72 23q55 0 84.5 -36.5t29.5 -90.5q0 -72 -55 -131t-152 -59h-565l402 913h-152q-104 0 -104 -28q0 -6 5 -8.5t12 -4.5t12 -16t5 -43q0 -41 -26.5 -63.5t-63.5 -22.5q-45 0 -80.5 29.5t-35.5 83.5z" />
<glyph unicode="ix" horiz-adv-x="1300" d="M74 1296.5q0 67.5 47 115.5t114.5 48t115.5 -48t48 -115.5t-48 -114.5t-115.5 -47t-114.5 47t-47 114.5zM96 367v657h295v-696q0 -139 113 -140q76 0 155.5 53.5t128.5 137.5l-253 645h288l172 -436q158 217 158 313q0 18 -2 29q-8 0 -15.5 -2t-15.5 -2q-61 0 -94 34.5 t-33 81.5q0 51 38 82t89 31q63 0 109.5 -47t46.5 -139q0 -190 -232 -506l39 -96l36 -85q14 -30 48.5 -63t75.5 -33q59 0 99 51.5t47 129.5h86q-16 -119 -55.5 -200t-92.5 -117t-98 -49t-94 -13q-96 0 -164 64.5t-135 215.5q-84 -121 -209 -200.5t-258 -79.5q-125 0 -199 94 t-74 285z" />
<glyph unicode="i&#x7a;" horiz-adv-x="1304" d="M74 1296.5q0 67.5 47 115.5t114.5 48t115.5 -48t48 -115.5t-48 -114.5t-115.5 -47t-114.5 47t-47 114.5zM96 305v719h295v-696q0 -84 22.5 -113t84.5 -29q39 0 63 13q2 -14 2 -41q0 -92 -55 -131t-127 -39q-285 0 -285 317zM539 840q0 68 53 126t143 58h563l-391 -866 q10 0 47 -4t73 -6.5t60 -2.5q89 0 89 41q-23 2 -36.5 17.5t-13.5 36.5q0 31 25 54t72 23q55 0 84.5 -36.5t29.5 -90.5q0 -72 -55 -131t-152 -59h-565l402 913h-152q-104 0 -104 -28q0 -6 5 -8.5t12 -4.5t12 -16t5 -43q0 -41 -26.5 -63.5t-63.5 -22.5q-45 0 -80.5 29.5 t-35.5 83.5z" />
<glyph unicode="&#xed;x" horiz-adv-x="1300" d="M96 367v657h295v-696q0 -139 113 -140q76 0 155.5 53.5t128.5 137.5l-253 645h288l172 -436q158 217 158 313q0 18 -2 29q-8 0 -15.5 -2t-15.5 -2q-61 0 -94 34.5t-33 81.5q0 51 38 82t89 31q63 0 109.5 -47t46.5 -139q0 -190 -232 -506l39 -96l36 -85q14 -30 48.5 -63 t75.5 -33q59 0 99 51.5t47 129.5h86q-16 -119 -55.5 -200t-92.5 -117t-98 -49t-94 -13q-96 0 -164 64.5t-135 215.5q-84 -121 -209 -200.5t-258 -79.5q-125 0 -199 94t-74 285zM160 1149l104 387h215l-166 -387h-153z" />
<glyph unicode="&#xed;&#x7a;" horiz-adv-x="1304" d="M96 305v719h295v-696q0 -84 22.5 -113t84.5 -29q39 0 63 13q2 -14 2 -41q0 -92 -55 -131t-127 -39q-285 0 -285 317zM158 1149l104 387h215l-166 -387h-153zM539 840q0 68 53 126t143 58h563l-391 -866q10 0 47 -4t73 -6.5t60 -2.5q89 0 89 41q-23 2 -36.5 17.5 t-13.5 36.5q0 31 25 54t72 23q55 0 84.5 -36.5t29.5 -90.5q0 -72 -55 -131t-152 -59h-565l402 913h-152q-104 0 -104 -28q0 -6 5 -8.5t12 -4.5t12 -16t5 -43q0 -41 -26.5 -63.5t-63.5 -22.5q-45 0 -80.5 29.5t-35.5 83.5z" />
<glyph unicode="jx" horiz-adv-x="1284" d="M-180 -274q0 150 276 258v1040h295v-946q223 86 379 317l-248 629h289l180 -457q174 233 174 334q0 18 -2 29q-8 0 -15 -2t-15 -2q-61 0 -94 34.5t-33 81.5q0 51 37.5 82t89.5 31q63 0 109 -47t46 -139q0 -201 -248 -527l31 -75l36 -85q13 -30 48 -63t76 -33 q59 0 99 51.5t46 129.5h86q-12 -96 -41.5 -168t-65.5 -111t-80 -62.5t-80 -30.5t-75 -7q-96 0 -162.5 64.5t-134.5 215.5q-129 -180 -432 -280v-152q0 -348 -295 -348q-115 0 -195.5 63.5t-80.5 174.5zM-70 -266q0 -33 25 -59.5t61 -26.5q35 0 57.5 48t22.5 134v59 q-166 -65 -166 -155zM80 1296.5q0 67.5 47 115.5t114.5 48t116 -48t48.5 -115.5t-48.5 -114.5t-116 -47t-114.5 47t-47 114.5z" />
<glyph unicode="j&#x7a;" horiz-adv-x="1259" d="M-178 -281q0 180 274 273v1032h295v-1188q0 -104 -25.5 -176t-69.5 -107.5t-90 -50t-100 -14.5q-121 0 -202.5 63.5t-81.5 167.5zM-70 -262q0 -37 27 -63.5t57 -26.5q82 0 82 182v59q-166 -69 -166 -151zM78 1296.5q0 67.5 47 115.5t114.5 48t115.5 -48t48 -115.5 t-48 -114.5t-115.5 -47t-114.5 47t-47 114.5zM494 840q0 68 53 126t143 58h563l-391 -866q10 0 47 -4t73 -6.5t60 -2.5q88 0 88 41q-23 2 -36 17.5t-13 36.5q0 31 24.5 54t72.5 23q55 0 84.5 -36.5t29.5 -90.5q0 -72 -55 -131t-152 -59h-565l402 913h-152q-104 0 -104 -28 q0 -6 5 -8.5t12 -4.5t12 -16t5 -43q0 -41 -26.5 -63.5t-63.5 -22.5q-45 0 -80.5 29.5t-35.5 83.5z" />
<glyph unicode="lx" horiz-adv-x="1329" d="M96 1393l295 41v-1106q0 -139 113 -140q76 0 155.5 52.5t128.5 136.5l-256 647h289l172 -436q160 215 160 313q0 18 -2 29q-8 0 -15.5 -2t-15.5 -2q-61 0 -94 34.5t-33 81.5q0 51 38 82t89 31q63 0 109.5 -47t46.5 -139q0 -197 -234 -506l39 -96q20 -55 36 -86t49.5 -63 t74.5 -32q59 0 99 51.5t46 129.5h87q-16 -119 -55.5 -200t-92.5 -117t-98 -49t-94 -13q-96 0 -164 64.5t-135 213.5q-84 -121 -203 -199.5t-252 -78.5q-125 0 -203 95.5t-78 283.5z" />
<glyph unicode="l&#x7a;" horiz-adv-x="1300" d="M96 305v1088l295 41v-1106q0 -84 22.5 -113t84.5 -29q37 0 57 17q2 -14 2 -43q0 -82 -49 -127t-127 -45q-285 0 -285 317zM535 840q0 68 53 126t143 58h563l-391 -866q10 0 47 -4t73 -6.5t60 -2.5q88 0 88 41q-23 2 -36 17.5t-13 36.5q0 31 24.5 54t72.5 23 q55 0 84.5 -36.5t29.5 -90.5q0 -72 -55 -131t-152 -59h-565l402 913h-152q-104 0 -104 -28q0 -6 5 -8.5t12 -4.5t12 -16t5 -43q0 -41 -26.5 -63.5t-63.5 -22.5q-45 0 -80.5 29.5t-35.5 83.5z" />
<glyph unicode="mx" horiz-adv-x="2342" d="M96 0v1024h295v-106q77 116 223 116h2q180 0 248 -174q78 172 248 172q131 0 211 -87t80 -281q0 -47 -4 -157t-4 -147q0 -174 116 -174q72 0 154 55.5t133 139.5l-254 643h289l172 -438q162 221 162 315q0 18 -2 29q-8 0 -15.5 -2t-15.5 -2q-61 0 -94 34.5t-33 81.5 q0 51 38 82t89 31q63 0 109.5 -47t46.5 -135q0 -203 -234 -512l37 -94q20 -55 35.5 -86t49.5 -63t75 -32q59 0 99 51.5t46 129.5h86q-16 -119 -55 -200t-92 -117t-98.5 -49t-94.5 -13q-96 0 -163.5 65.5t-137.5 216.5q-86 -119 -206.5 -200.5t-225.5 -81.5q-291 0 -291 372 q0 37 2 133.5t2 129.5q0 223 -108 223q-53 0 -83 -53.5t-36 -135.5v-657h-295v707q0 55 -20.5 98t-65.5 43q-57 0 -88 -53.5t-37 -137.5v-657h-295z" />
<glyph unicode="m&#x7a;" horiz-adv-x="2304" d="M96 0v1024h295v-106q77 116 215 116h2q186 0 256 -174q76 172 252 172q287 0 287 -377q0 -35 -4 -146.5t-4 -148.5q0 -94 24.5 -134t91.5 -40q41 0 58 13q0 -211 -185 -211q-264 0 -264 381q0 27 2 125.5t2 123.5q0 227 -106 228q-104 0 -121 -189v-657h-295v707 q0 141 -88 141q-53 0 -85 -53.5t-38 -137.5v-657h-295zM1538 840q0 68 53.5 126t143.5 58h563l-391 -866q10 0 47 -4t72.5 -6.5t60.5 -2.5q88 0 88 41q-23 2 -36 17.5t-13 36.5q0 31 24.5 54t71.5 23q55 0 85 -36.5t30 -90.5q0 -72 -55.5 -131t-151.5 -59h-565l401 913h-151 q-104 0 -105 -28q0 -6 5 -8.5t12.5 -4.5t12.5 -16t5 -43q0 -41 -26.5 -63.5t-63.5 -22.5q-45 0 -81 29.5t-36 83.5z" />
<glyph unicode="n&#x7a;" horiz-adv-x="1806" d="M96 0v1024h295v-106q75 114 213 114h2q131 0 211 -87t80 -281q0 -47 -4 -157t-4 -147q0 -90 23.5 -132t84.5 -42q51 0 66 13q0 -211 -180 -211q-141 0 -205 103.5t-64 268.5q0 37 2 133.5t2 129.5q0 223 -108 223q-53 0 -83 -53.5t-36 -135.5v-657h-295zM1040 840 q0 68 53.5 126t143.5 58h563l-391 -866q10 0 47 -4t73 -6.5t60 -2.5q88 0 88 41q-23 2 -36 17.5t-13 36.5q0 31 24.5 54t71.5 23q55 0 85 -36.5t30 -90.5q0 -72 -55 -131t-152 -59h-565l401 913h-151q-104 0 -105 -28q0 -6 5.5 -8.5t12.5 -4.5t12 -16t5 -43 q0 -41 -26.5 -63.5t-63.5 -22.5q-45 0 -81 29.5t-36 83.5z" />
<glyph unicode="o&#xe6;" horiz-adv-x="2228" d="M61 451q0 98 19.5 191t66 186.5t137.5 149.5t216 56q272 0 327 -293q66 33 133.5 88.5t110.5 97.5t116 74.5t163 32.5q213 0 329 -90q100 90 246 90q272 0 273 -252q0 -147 -113 -252.5t-279 -115.5q8 -139 51.5 -196.5t124.5 -57.5q94 0 160 28.5t98.5 65.5t86.5 113h69 q-156 -379 -485 -379q-248 0 -346 186q-61 -186 -234 -186q-338 0 -338 338q0 268 404 268q47 0 96 -8q12 57 12 125q0 90 -42 146t-134 56q-78 0 -138.5 -28.5t-96 -67.5t-103 -89t-151.5 -81q4 -57 4 -92q0 -258 -95.5 -412.5t-304.5 -154.5q-168 0 -275.5 110.5 t-107.5 352.5zM362 471q1 -291 140 -291q84 0 125 106.5t41 284.5v33q-41 2 -63.5 39t-22.5 86q0 66 53 86q-35 96 -105 96q-82 0 -125 -136t-43 -304zM1280 317q0 -131 129 -131q94 0 94 281q-8 0 -22.5 1t-20.5 1q-76 0 -128 -39t-52 -113zM1804 512q100 6 167 89t67 192 q0 141 -74 141q-70 0 -113 -133t-47 -289z" />
<glyph unicode="os" horiz-adv-x="1585" d="M61 451q0 98 19.5 191t66 186.5t137.5 149.5t216 56q279 0 331 -311q131 29 242 324l295 40q53 -207 111.5 -385t81 -259t22.5 -173q68 41 123 97h86q-86 -127 -236 -234q-68 -145 -270 -145q-172 0 -260 90t-88 227q0 68 33 109t80 41q125 0 125 -101q0 -33 -23 -55.5 t-57 -22.5q-43 0 -62 27q33 -153 150 -153h2q51 0 75.5 26.5t24.5 87.5q0 82 -17.5 147.5t-66.5 205t-90 282.5q-102 -219 -270 -281q0 -10 1 -30.5t1 -32.5q0 -258 -95.5 -412.5t-304.5 -154.5q-168 0 -275.5 110.5t-107.5 352.5zM362 471q1 -291 140 -291q84 0 125 106.5 t41 284.5v27q-82 18 -82 121q0 66 53 86q-37 106 -109 106q-82 0 -125 -136t-43 -304z" />
<glyph unicode="osx" horiz-adv-x="2347" d="M61 451q0 98 19.5 191t66 186.5t137.5 149.5t216 56q279 0 331 -311q131 29 242 324l295 40q53 -207 112.5 -387t81 -261t21.5 -175v-12q150 70 223 147l-245 625h288l168 -428q154 209 154 305q0 18 -2 29q-8 0 -15.5 -2t-15.5 -2q-61 0 -94 34.5t-33 81.5q0 51 38 82 t89 31q63 0 109.5 -47t46.5 -139q0 -193 -226 -498l41 -104l21 -51q6 -17 21.5 -46.5t29.5 -44t37 -27t49 -12.5q59 0 99 51.5t49 129.5h86q-16 -119 -56.5 -200t-93.5 -117t-98 -49t-94 -13q-98 0 -167 69.5t-141 233.5q-41 -35 -95 -65.5t-120.5 -62.5t-87.5 -44 q-72 -131 -262 -131q-172 0 -260 90t-88 227q0 68 33 109t80 41q125 0 125 -101q0 -33 -23 -55.5t-57 -22.5q-43 0 -62 27q33 -153 150 -153h2q51 0 75.5 26.5t24.5 87.5q0 82 -17.5 147.5t-66.5 205t-90 282.5q-102 -219 -270 -281q0 -10 1 -30.5t1 -32.5 q0 -258 -95.5 -412.5t-304.5 -154.5q-168 0 -275.5 110.5t-107.5 352.5zM362 471q1 -291 140 -291q84 0 125 106.5t41 284.5v27q-82 18 -82 121q0 66 53 86q-37 106 -109 106q-82 0 -125 -136t-43 -304z" />
<glyph unicode="os&#x7a;" horiz-adv-x="2332" d="M61 451q0 98 19.5 191t66 186.5t137.5 149.5t216 56q279 0 331 -311q131 29 242 324l295 40q53 -207 112.5 -387t81 -261t21.5 -175q0 -141 -87 -208.5t-210 -67.5q-172 0 -260 90t-88 227q0 68 33 109t80 41q125 0 125 -101q0 -33 -23 -55.5t-57 -22.5q-43 0 -62 27 q33 -153 150 -153h2q51 0 75.5 26.5t24.5 87.5q0 82 -17.5 147.5t-66.5 205t-90 282.5q-102 -219 -270 -281q0 -10 1 -30.5t1 -32.5q0 -258 -95.5 -412.5t-304.5 -154.5q-168 0 -275.5 110.5t-107.5 352.5zM362 471q1 -291 140 -291q84 0 125 106.5t41 284.5v27 q-82 18 -82 121q0 66 53 86q-37 106 -109 106q-82 0 -125 -136t-43 -304zM1567 840q0 68 53 126t143 58h564l-392 -866q10 0 47 -4t73 -6.5t61 -2.5q88 0 88 41q-23 2 -36.5 17.5t-13.5 36.5q0 31 25 54t72 23q55 0 84.5 -36.5t29.5 -90.5q0 -72 -55 -131t-151 -59h-566 l402 913h-152q-104 0 -104 -28q0 -6 5 -8.5t12 -4.5t12.5 -16t5.5 -43q0 -41 -27 -63.5t-64 -22.5q-45 0 -80.5 29.5t-35.5 83.5z" />
<glyph unicode="ox" horiz-adv-x="1757" d="M61 457q0 96 20.5 189t66 184.5t133 147.5t204.5 56q274 0 338 -311q104 16 199 205l-37 96h289l164 -416q143 199 143 293q0 18 -2 29q-8 0 -15.5 -2t-15.5 -2q-61 0 -94 34.5t-33 81.5q0 51 38 82t89 31q63 0 109.5 -47t46.5 -135q0 -188 -217 -490l47 -116 q18 -45 27.5 -65.5t30 -53.5t45 -47.5t55.5 -14.5q59 0 99 51.5t48 129.5h86q-16 -119 -56 -200t-93.5 -117t-98.5 -49t-94 -13q-109 0 -182.5 85t-155.5 294l-6 14q-139 -104 -139 -205q0 -16 2 -24q10 2 26 2q51 0 80 -36t29 -93q0 -84 -94 -84q-84 0 -127 51t-43 131 q0 92 64.5 196.5t156.5 174.5l-127 319q-90 -145 -227 -195q4 -66 4 -102q0 -240 -101.5 -384t-267.5 -144q-188 0 -301 111.5t-113 357.5zM362 475q0 -178 41 -236.5t113 -58.5q66 0 109 109.5t43 271.5v37q-82 18 -82 121q0 66 55 86q-35 106 -113 106q-76 0 -121 -139 t-45 -297z" />
<glyph unicode="&#xf3;s" horiz-adv-x="1585" d="M61 451q0 98 19.5 191t66 186.5t137.5 149.5t216 56q279 0 331 -311q131 29 242 324l295 40q53 -207 111.5 -385t81 -259t22.5 -173q68 41 123 97h86q-86 -127 -236 -234q-68 -145 -270 -145q-172 0 -260 90t-88 227q0 68 33 109t80 41q125 0 125 -101q0 -33 -23 -55.5 t-57 -22.5q-43 0 -62 27q33 -153 150 -153h2q51 0 75.5 26.5t24.5 87.5q0 82 -17.5 147.5t-66.5 205t-90 282.5q-102 -219 -270 -281q0 -10 1 -30.5t1 -32.5q0 -258 -95.5 -412.5t-304.5 -154.5q-168 0 -275.5 110.5t-107.5 352.5zM362 471q1 -291 140 -291q84 0 125 106.5 t41 284.5v27q-82 18 -82 121q0 66 53 86q-37 106 -109 106q-82 0 -125 -136t-43 -304zM385 1149l104 387h216l-166 -387h-154z" />
<glyph unicode="&#xf3;sx" horiz-adv-x="2347" d="M61 451q0 98 19.5 191t66 186.5t137.5 149.5t216 56q279 0 331 -311q131 29 242 324l295 40q53 -207 112.5 -387t81 -261t21.5 -175v-12q150 70 223 147l-245 625h288l168 -428q154 209 154 305q0 18 -2 29q-8 0 -15.5 -2t-15.5 -2q-61 0 -94 34.5t-33 81.5q0 51 38 82 t89 31q63 0 109.5 -47t46.5 -139q0 -193 -226 -498l41 -104l21 -51q6 -17 21.5 -46.5t29.5 -44t37 -27t49 -12.5q59 0 99 51.5t49 129.5h86q-16 -119 -56.5 -200t-93.5 -117t-98 -49t-94 -13q-98 0 -167 69.5t-141 233.5q-41 -35 -95 -65.5t-120.5 -62.5t-87.5 -44 q-72 -131 -262 -131q-172 0 -260 90t-88 227q0 68 33 109t80 41q125 0 125 -101q0 -33 -23 -55.5t-57 -22.5q-43 0 -62 27q33 -153 150 -153h2q51 0 75.5 26.5t24.5 87.5q0 82 -17.5 147.5t-66.5 205t-90 282.5q-102 -219 -270 -281q0 -10 1 -30.5t1 -32.5 q0 -258 -95.5 -412.5t-304.5 -154.5q-168 0 -275.5 110.5t-107.5 352.5zM362 471q1 -291 140 -291q84 0 125 106.5t41 284.5v27q-82 18 -82 121q0 66 53 86q-37 106 -109 106q-82 0 -125 -136t-43 -304zM461 1149l104 387h215l-166 -387h-153z" />
<glyph unicode="&#xf3;s&#x7a;" horiz-adv-x="2334" d="M61 457q0 96 20.5 189t66 184.5t133 147.5t204.5 56q274 0 338 -311q139 20 252 324l295 40q53 -207 112.5 -387t81 -261t21.5 -175q0 -141 -87 -208.5t-210 -67.5q-172 0 -260 90t-88 227q0 68 33 109t80 41q125 0 125 -101q0 -33 -22.5 -55.5t-57.5 -22.5q-43 0 -62 27 q33 -153 150 -153h2q51 0 75.5 26.5t24.5 87.5q0 82 -17.5 147.5t-66.5 205t-90 282.5q-102 -221 -274 -281q4 -66 4 -102q0 -240 -101.5 -384t-267.5 -144q-188 0 -301 111.5t-113 357.5zM362 475q0 -178 41 -236.5t113 -58.5q66 0 109 109.5t43 271.5v37q-80 18 -80 121 q0 66 53 86q-35 106 -113 106q-76 0 -121 -139t-45 -297zM420 1149l104 387h215l-166 -387h-153zM1569 840q0 68 53 126t143 58h564l-392 -866q10 0 47 -4t73 -6.5t61 -2.5q88 0 88 41q-23 2 -36 17.5t-13 36.5q0 31 24.5 54t71.5 23q55 0 84.5 -36.5t29.5 -90.5 q0 -72 -55 -131t-151 -59h-566l402 913h-152q-104 0 -104 -28q0 -6 5 -8.5t12 -4.5t12.5 -16t5.5 -43q0 -41 -27 -63.5t-63 -22.5q-45 0 -81 29.5t-36 83.5z" />
<glyph unicode="&#xf3;x" horiz-adv-x="1757" d="M61 457q0 96 20.5 189t66 184.5t133 147.5t204.5 56q274 0 338 -311q104 16 199 205l-37 96h289l164 -416q143 199 143 293q0 18 -2 29q-8 0 -15.5 -2t-15.5 -2q-61 0 -94 34.5t-33 81.5q0 51 38 82t89 31q63 0 109.5 -47t46.5 -135q0 -188 -217 -490l47 -116 q18 -45 27.5 -65.5t30 -53.5t45 -47.5t55.5 -14.5q59 0 99 51.5t48 129.5h86q-16 -119 -56 -200t-93.5 -117t-98.5 -49t-94 -13q-109 0 -182.5 85t-155.5 294l-6 14q-139 -104 -139 -205q0 -16 2 -24q10 2 26 2q51 0 80 -36t29 -93q0 -84 -94 -84q-84 0 -127 51t-43 131 q0 92 64.5 196.5t156.5 174.5l-127 319q-90 -145 -227 -195q4 -66 4 -102q0 -240 -101.5 -384t-267.5 -144q-188 0 -301 111.5t-113 357.5zM362 475q0 -178 41 -236.5t113 -58.5q66 0 109 109.5t43 271.5v37q-82 18 -82 121q0 66 55 86q-35 106 -113 106q-76 0 -121 -139 t-45 -297zM397 1149l105 387h215l-166 -387h-154z" />
<glyph unicode="rx" horiz-adv-x="1615" d="M96 0v1024h295v-127q115 137 221 137q74 0 125 -57t51 -125q0 -49 -29.5 -85t-88.5 -36q-41 0 -64.5 20.5t-30 44t-21.5 44t-40 20.5q-47 0 -123 -82v-778h-295zM821 1024h289l182 -420q147 203 148 297q0 18 -2 29q-8 0 -15.5 -2t-15.5 -2q-61 0 -94 34.5t-33 81.5 q0 51 38 82t89 31q63 0 109.5 -47t46.5 -135q0 -188 -217 -490l51 -116q25 -57 40 -87t48 -62t71 -32q59 0 99.5 51.5t46.5 129.5h86q-51 -379 -334 -379q-109 0 -181.5 84t-164.5 295l-6 12q-137 -102 -137 -203q0 -16 2 -24q8 2 24 2q51 0 81 -36t30 -93q0 -84 -96 -84 q-84 0 -127 51t-43 131q0 90 63.5 192.5t153.5 173.5z" />
<glyph unicode="r&#x7a;" horiz-adv-x="1349" d="M96 0v1024h295v-127q41 41 64.5 62.5t67.5 43t89 21.5h684l-317 -866q41 0 102.5 -12.5t87.5 -12.5q55 0 56 53q-23 2 -36 17.5t-13 36.5q0 31 24.5 54t71.5 23q55 0 84.5 -36.5t29.5 -90.5q0 -72 -55 -131t-151 -59h-543l328 907h-191q12 -31 12 -63q0 -55 -29.5 -89 t-86.5 -34q-39 0 -62.5 21.5t-31 46t-21 46t-33.5 21.5q-43 0 -69.5 -19.5t-61.5 -62.5v-774h-295z" />
<glyph unicode="sx" horiz-adv-x="1517" d="M49 291q0 111 76 149q123 322 156 607l294 40l71 -264l54 -197q15 -57 30 -126.5t19.5 -116.5t4.5 -107q0 -16 -2 -24q152 68 225 147l-246 625h289l168 -428q153 208 153 304q0 19 -2 30q-8 0 -15 -2t-15 -2q-61 0 -94 34.5t-33 81.5q0 51 37.5 82t89.5 31q63 0 109 -47 t46 -139q0 -193 -225 -498l41 -104l21 -51q6 -17 21 -46.5t29.5 -44t37 -27t49.5 -12.5q59 0 99 51.5t48 129.5h86q-16 -119 -56 -200t-93.5 -117t-98.5 -49t-94 -13q-98 0 -166.5 69.5t-140.5 235.5q-61 -49 -188 -115.5t-138 -73.5q-95 -116 -283 -116h-3 q-166 0 -263.5 95t-97.5 208zM154 293q31 -143 155 -143q145 0 146 143q0 43 -2 75.5t-14 84.5l-20 81q-7 29 -34 124l-43 155q-23 -109 -113 -379q58 -27 58 -86q0 -33 -19.5 -57.5t-52.5 -24.5q-43 0 -61 27z" />
<glyph unicode="s&#x7a;" horiz-adv-x="1523" d="M49 291q0 111 76 149q123 322 156 607l294 40l71 -264l54 -197q15 -57 30 -126.5t19.5 -116.5t4.5 -107q0 -147 -105.5 -217.5t-238.5 -70.5q-166 0 -263.5 95t-97.5 208zM154 293q31 -143 155 -143q145 0 146 143q0 43 -2 75.5t-15 84.5l-19 81q-7 29 -34 124l-43 155 q-23 -109 -113 -379q58 -27 58 -86q0 -33 -19.5 -57.5t-52.5 -24.5q-43 0 -61 27zM758 840q0 68 53 126t143 58h564l-392 -866q10 0 47 -4t73 -6.5t61 -2.5q88 0 88 41q-23 2 -36 17.5t-13 36.5q0 31 24.5 54t71.5 23q55 0 84.5 -36.5t29.5 -90.5q0 -72 -55 -131t-151 -59 h-566l402 913h-152q-104 0 -104 -28q0 -6 5 -8.5t12 -4.5t12.5 -16t5.5 -43q0 -41 -27 -63.5t-64 -22.5q-45 0 -80.5 29.5t-35.5 83.5z" />
<glyph unicode="tx" horiz-adv-x="1298" d="M31 942v82h65v283l295 41v-324h430l172 -436q158 217 158 313q0 18 -2 29q-8 0 -15.5 -2t-15.5 -2q-61 0 -94 34.5t-33 81.5q0 51 38 82t89 31q63 0 109.5 -47t46.5 -139q0 -190 -232 -506l39 -96l36 -85q13 -30 48 -63t76 -33q59 0 99 51.5t46 129.5h87 q-16 -119 -55.5 -200t-92.5 -117t-98 -49t-94 -13q-96 0 -164 64.5t-135 215.5q-88 -121 -215 -200.5t-261 -79.5q-123 0 -192.5 93t-69.5 286v575h-65zM391 328q0 -139 113 -140q76 0 155.5 52.5t128.5 136.5l-223 565h-174v-614z" />
<glyph unicode="t&#x7a;" horiz-adv-x="1433" d="M31 942v82h65v283l295 41v-324h123v-82h-123v-614q0 -84 22.5 -113t84.5 -29q37 0 57 17q2 -14 2 -43q0 -82 -49 -127t-127 -45q-285 0 -285 317v637h-65zM668 840q0 68 53 126t143 58h563l-391 -866q10 0 47 -4t73 -6.5t61 -2.5q88 0 88 41q-23 2 -36.5 17.5t-13.5 36.5 q0 31 25 54t72 23q55 0 84.5 -36.5t29.5 -90.5q0 -72 -55 -131t-151 -59h-566l402 913h-152q-104 0 -104 -28q0 -6 5 -8.5t12 -4.5t12 -16t5 -43q0 -41 -26.5 -63.5t-63.5 -22.5q-45 0 -80.5 29.5t-35.5 83.5z" />
<glyph unicode="uv" horiz-adv-x="1875" d="M96 305v719h295v-696q0 -141 84 -142q53 0 87 50.5t40 130.5v657h293v-1024h-250v186q-80 -198 -272 -198h-2q-274 0 -275 317zM1069 940v84h356v-696q0 -29 1 -43.5t5.5 -37t12.5 -33.5t24.5 -19.5t40.5 -8.5q76 0 130.5 77t76 182.5t21.5 226.5q0 83 -13 153l-6 33 q-25 -8 -45 -8q-47 0 -78.5 42t-31.5 83q0 35 27.5 62.5t74.5 27.5q86 0 139.5 -98.5t53.5 -298.5q0 -119 -20.5 -230.5t-66 -217t-131.5 -169t-202 -63.5q-139 0 -225.5 89t-86.5 251v585z" />
<glyph unicode="ux" horiz-adv-x="1839" d="M96 305v719h295v-696q0 -141 84 -142q53 0 87 50.5t40 130.5v657h295v-709q0 -129 113 -129q78 0 157.5 55.5t126.5 137.5l-254 645h289l172 -438q162 221 162 315q0 18 -2 29q-8 0 -15.5 -2t-15.5 -2q-61 0 -94 34.5t-33 81.5q0 51 38 82t89 31q63 0 109.5 -47 t46.5 -139q0 -195 -234 -508l37 -94l36 -85q13 -30 48 -63t76 -33q59 0 99 51.5t46 129.5h86q-16 -119 -55 -200t-92 -117t-98 -49t-95 -13q-94 0 -161.5 63.5t-132.5 208.5q-158 -272 -424 -272q-88 0 -166 53t-111 143q-78 -196 -272 -196h-2q-274 0 -275 317z" />
<glyph unicode="yp" horiz-adv-x="1951" d="M96 367v657h295v-696q0 -141 86 -142q111 0 125 181v657h295v-940q84 23 195 39v977h294v-154q84 88 222 88q154 0 249 -121.5t95 -400.5q0 -94 -18.5 -181t-58.5 -167t-117 -128t-181 -48t-191 6v-432l-294 -74v516q-104 -4 -195 -22v-146q0 -348 -295 -348 q-115 0 -195.5 63.5t-80.5 174.5q0 176 276 276v100q-77 -114 -219 -114h-2q-123 0 -204 94t-81 285zM436 -266q0 -33 24.5 -59.5t61.5 -26.5q35 0 57.5 48t22.5 134v59q-166 -65 -166 -155zM1386 154q30 2 91 2q70 0 114.5 64.5t60 144t15.5 172.5q0 350 -162 350 q-35 0 -68.5 -26.5t-50.5 -76.5v-630z" />
<glyph unicode="yx" horiz-adv-x="1785" d="M96 367v657h295v-696q0 -141 86 -142q111 0 125 181v657h295v-946q109 41 198 111.5t179 203.5l-248 631h289l174 -442q129 184 129 301q0 8 -10 49q-25 -4 -35 -4q-63 0 -93 42t-30 89q0 37 26.5 58.5t69.5 21.5q82 0 133.5 -70t51.5 -164q0 -166 -197 -438l41 -100 l36 -85q13 -30 48 -63t76 -33q59 0 99 51.5t46 129.5h86q-51 -377 -342 -377q-94 0 -161.5 63.5t-135.5 212.5q-129 -180 -430 -278v-152q0 -348 -295 -348q-115 0 -195.5 63.5t-80.5 174.5q0 150 276 258v118q-75 -112 -220 -112h-3q-123 0 -203 93t-80 284zM436 -266 q0 -33 24.5 -59.5t61.5 -26.5q35 0 57.5 48t22.5 134v59q-166 -65 -166 -155z" />
<glyph unicode="y&#x7a;" horiz-adv-x="1818" d="M96 305v719h295v-696q0 -141 84 -142q53 0 87 50.5t40 130.5v657h295v-1188q0 -104 -25.5 -176t-69.5 -107.5t-90 -50t-100 -14.5q-121 0 -202.5 63.5t-81.5 167.5q0 180 274 273v112q-79 -116 -228 -116h-3q-274 0 -275 317zM436 -262q0 -37 26.5 -63.5t57.5 -26.5 q82 0 82 182v59q-166 -69 -166 -151zM1053 840q0 68 53 126t143 58h563l-391 -866q10 0 47 -4t73 -6.5t61 -2.5q88 0 88 41q-23 2 -36.5 17.5t-13.5 36.5q0 31 25 54t72 23q55 0 84.5 -36.5t29.5 -90.5q0 -72 -55 -131t-151 -59h-566l402 913h-152q-104 0 -104 -28 q0 -6 5 -8.5t12 -4.5t12.5 -16t5.5 -43q0 -41 -27 -63.5t-64 -22.5q-45 0 -80.5 29.5t-35.5 83.5z" />
<glyph unicode=" "  horiz-adv-x="440" />
<glyph unicode="&#x09;" horiz-adv-x="440" />
<glyph unicode="&#xa0;" horiz-adv-x="440" />
<glyph unicode="!" horiz-adv-x="544" d="M109 161.5q0 67.5 47 116t114.5 48.5t115.5 -48.5t48 -116t-48 -114.5t-115.5 -47t-114.5 47t-47 114.5zM127 1434h295l-62 -961h-174z" />
<glyph unicode="&#x22;" horiz-adv-x="714" d="M84 1149l43 387h215l-104 -387h-154zM406 1149l43 387h215l-105 -387h-153z" />
<glyph unicode="#" horiz-adv-x="1140" d="M82 227v209h244v232h-244v209h244v593h116v-593h246v593h117v-593h256v-209h-256v-232h256v-209h-256v-282h-117v282h-246v-282h-116v282h-244zM442 436h246v232h-246v-232z" />
<glyph unicode="$" horiz-adv-x="788" d="M72 481q0 68 33.5 109t87.5 41q41 0 66.5 -15.5t29.5 -35.5q-61 -12 -62 -105q0 -115 105 -166v406q-10 6 -50 33.5t-52 37.5l-44 34q-32 24 -44 42l-30 42q-18 26 -24 52.5t-6 57.5q0 88 74.5 154.5t175.5 80.5v221h74v-217q280 -10 280 -217q0 -114 -75 -114h-1 q-43 0 -88 47q33 18 33 80q0 51 -40 90t-109 41v-322q18 -12 68 -42l76 -46q25 -16 65 -50t59.5 -64.5t36 -77t16.5 -99.5q0 -123 -86 -190.5t-235 -69.5v-274h-74v278q-117 14 -188.5 76.5t-71.5 181.5zM268 1055q0 -80 64 -140v248q-64 -36 -64 -108zM406 295 q114 6 114 145q0 125 -114 222v-367z" />
<glyph unicode="%" horiz-adv-x="1302" d="M53 1108q0 143 66.5 236.5t187.5 93.5q227 0 228 -324q0 -133 -56.5 -240.5t-165.5 -107.5q-127 0 -193.5 79t-66.5 263zM201 1124q0 -282 101 -282h1q53 0 82 70.5t29 177.5q0 102 -16.5 167.5t-37 87t-45.5 21.5q-41 0 -77.5 -65.5t-36.5 -176.5zM268 0l645 1536h148 l-645 -1536h-148zM770 342q0 143 66.5 236.5t187.5 93.5q227 0 227 -324q0 -133 -56 -240.5t-165 -107.5q-127 0 -193.5 79t-66.5 263zM918 358q0 -282 101 -282h1q53 0 81.5 70.5t28.5 177.5q0 102 -16 167.5t-36.5 87t-45.5 21.5q-41 0 -77.5 -65.5t-36.5 -176.5z" />
<glyph unicode="&#x26;" horiz-adv-x="1372" d="M74 416q0 150 73.5 277.5t204.5 160.5q-186 117 -186 311q0 150 101.5 262.5t264.5 112.5q174 0 259.5 -81t85.5 -193q0 -76 -31 -131.5t-80 -55.5q-51 0 -94 47q53 29 53 142q0 157 -145 157h-2q-70 0 -113 -69.5t-43 -163.5q0 -113 69.5 -208t202.5 -128 q-125 -29 -197.5 -152.5t-72.5 -263.5q0 -121 62.5 -200.5t185.5 -79.5q168 0 253 96t103 301q-27 0 -82 6t-82 6q-135 0 -172 -92l-14 2q4 129 92 209t242 80q29 0 81 -5t76 -5q61 0 110.5 22.5t63.5 65.5h13q4 -20 4 -33q0 -84 -75 -159.5t-185 -92.5q-4 -256 -156.5 -427 t-404.5 -171q-221 0 -343 133t-122 320z" />
<glyph unicode="'" horiz-adv-x="393" d="M84 1149l43 387h215l-104 -387h-154z" />
<glyph unicode="(" horiz-adv-x="571" d="M78 512q0 336 111.5 627t312.5 397l45 -82q-143 -80 -228.5 -355.5t-85.5 -594.5q0 -596 322 -957l-53 -59q-209 186 -316.5 452.5t-107.5 571.5z" />
<glyph unicode=")" horiz-adv-x="573" d="M16 1477l56 59q209 -188 316.5 -453.5t107.5 -572.5q0 -336 -112.5 -626t-313.5 -396l-43 82q143 80 227 354.5t84 595.5q0 596 -322 957z" />
<glyph unicode="*" horiz-adv-x="819" d="M57 1284l52 107l231 -131v280h133v-274l209 125l72 -107l-222 -133l224 -125l-51 -106l-232 129v-279h-133v266l-197 -116l-71 106l215 129z" />
<glyph unicode="+" horiz-adv-x="907" d="M76 420v229h264v250h229v-250h262v-229h-264v-252h-231v252h-260z" />
<glyph unicode="," horiz-adv-x="479" d="M80 182q0 57 44 100.5t101 43.5q78 0 123 -59.5t45 -151.5t-50 -197.5t-136 -175.5q-29 16 -29 49q0 29 27.5 84t27.5 84t-38.5 56.5t-76.5 67.5t-38 99z" />
<glyph unicode="-" horiz-adv-x="653" d="M121 455v161h411v-161h-411z" />
<glyph unicode="." horiz-adv-x="485" d="M80 161.5q0 67.5 47 116t114.5 48.5t116 -48.5t48.5 -116t-48.5 -114.5t-116 -47t-114.5 47t-47 114.5z" />
<glyph unicode="/" horiz-adv-x="1077" d="M31 -512l870 2048h148l-871 -2048h-147z" />
<glyph unicode="0" horiz-adv-x="1222" d="M92 745q0 369 142.5 580t398.5 211q113 0 201 -43t142 -114.5t90 -170t49 -200t13 -213.5q0 -219 -49 -394.5t-170 -294t-303 -118.5q-238 0 -376 195.5t-138 561.5zM410 745q0 -283 66.5 -425t160.5 -142q100 0 158.5 169t58.5 466q0 160 -17.5 276.5t-46 180 t-62.5 93.5t-73 30q-102 0 -173.5 -176.5t-71.5 -471.5z" />
<glyph unicode="1" horiz-adv-x="681" d="M33 1225v108q198 0 491 199v-1532h-295v1225h-196z" />
<glyph unicode="2" horiz-adv-x="1044" d="M78 125q0 106 56 211.5t135 194.5l159 181q80 91 136.5 207.5t56.5 239.5q0 252 -193 252q-123 0 -123 -106q0 -55 28.5 -112.5t84.5 -74.5q-58 -69 -140 -69h-2q-76 0 -133 60t-57 161q0 117 87 190.5t280 73.5q242 0 354.5 -115.5t112.5 -288.5q0 -123 -56.5 -232.5 t-142.5 -191t-174 -154.5t-165 -151.5t-103 -150.5h22q51 0 184 -18.5t203 -18.5q106 0 156.5 31.5t97.5 109.5q2 -4 9 -23l13 -37q7 -18 12 -51.5t5 -72.5q0 -102 -46 -147.5t-169 -45.5q-92 0 -250 37t-260 37q-20 0 -48 -10t-58.5 -26.5t-43.5 -20.5l-6 13 q-6 13 -10 25.5t-8 38t-4 54.5z" />
<glyph unicode="3" horiz-adv-x="1095" d="M66 377q0 119 53 186.5t153 67.5q137 -1 174 -105q-147 0 -147 -168q0 -113 58.5 -159.5t134.5 -46.5q113 0 169 93t56 218q0 154 -86 264.5t-254 128.5q139 39 221 138.5t82 209.5q0 86 -51 146.5t-142 60.5q-63 0 -99 -30.5t-36 -88.5q0 -51 28 -105t77 -69 q-60 -69 -142 -69h-2q-76 0 -130 58t-54 150q0 125 106.5 201t280.5 76q195 0 305.5 -92t110.5 -234q0 -98 -57.5 -195.5t-165.5 -158.5q170 -49 248.5 -137t78.5 -225q0 -197 -134 -350.5t-361 -153.5q-47 0 -97.5 6t-122 30.5t-125 63.5t-92 115t-38.5 174z" />
<glyph unicode="4" horiz-adv-x="1050" d="M35 553q8 68 90 340t82 416q0 137 -37 227q121 0 182.5 -48t61.5 -188q0 -82 -31 -181t-81 -220t-69 -184h318v780l297 41v-821h129v-162h-129v-553h-297v553h-516z" />
<glyph unicode="5" horiz-adv-x="1060" d="M74 322q0 129 61.5 191t149.5 62q129 0 170 -104q-80 -10 -118 -42t-38 -97q0 -88 60.5 -140.5t138.5 -52.5q106 0 157.5 100.5t51.5 227.5q0 164 -83 248t-212 84q-152 0 -299 -107l123 811q53 -6 116.5 -15t107.5 -14.5t93 -5.5q163 0 317 66q27 -88 27 -127 q0 -178 -195 -178q-61 0 -200 24l-152 27l-61 -371q119 63 248 64q213 0 335.5 -142.5t122.5 -351.5q0 -92 -27.5 -176t-83 -156.5t-154.5 -115.5t-228 -43q-78 0 -145.5 13t-135 47t-107.5 103.5t-40 170.5z" />
<glyph unicode="6" horiz-adv-x="1130" d="M90 639q0 242 57.5 438.5t191.5 327.5t327 131q137 0 213.5 -60.5t76.5 -150.5q0 -51 -24.5 -89t-67.5 -38q-31 0 -69 21q24 28 24 68q0 54 -42 90t-99 36q-94 0 -168 -113.5t-109.5 -285.5t-35.5 -365q0 -475 237 -475q115 0 173.5 103.5t58.5 244.5q0 133 -50.5 201 t-138.5 68q-117 0 -172 -117q-41 39 -41 86q0 74 73 131t179 57q102 0 180 -40t120 -104.5t62.5 -136t20.5 -147.5q0 -225 -131 -378.5t-363 -153.5q-207 0 -345 154.5t-138 496.5z" />
<glyph unicode="7" horiz-adv-x="968" d="M31 1395q0 82 48 110.5t146 28.5q82 0 285 -25.5t289 -25.5q82 0 168 18q0 -49 -46.5 -140t-113 -201.5t-132 -234.5t-111.5 -271.5t-46 -278.5q0 -74 11.5 -133.5t19.5 -84t35.5 -76.5t33.5 -67q-61 -32 -119 -32h-3q-135 0 -206 100t-71 246q0 100 49 217t120 220 l142 199q72 95 121 177t49 129q0 20 -112.5 35.5t-184.5 15.5q-215 0 -215 -158q-68 2 -112.5 69.5t-44.5 162.5z" />
<glyph unicode="8" horiz-adv-x="1128" d="M76 455q0 129 73.5 241.5t219.5 157.5q-229 121 -230 328q0 143 108.5 248.5t301.5 105.5q188 0 308 -102.5t120 -241.5q0 -96 -58.5 -188.5t-166.5 -149.5q147 -45 230 -152.5t83 -242.5q0 -182 -134.5 -326.5t-355.5 -144.5q-217 0 -358 140t-141 327zM358 444 q0 -115 61.5 -199.5t147.5 -84.5q88 0 149.5 90t61.5 199q0 117 -72.5 200.5t-162.5 124.5q-88 -41 -136.5 -136t-48.5 -194zM401 1217q0 -178 158 -293q74 55 117 141t43 166t-42 140.5t-113.5 60.5t-117 -62.5t-45.5 -152.5z" />
<glyph unicode="9" horiz-adv-x="1128" d="M61 1065q0 201 131.5 336t362.5 135q207 0 345 -154.5t138 -496.5q0 -242 -57 -438.5t-191.5 -327.5t-326.5 -131q-135 0 -213 79.5t-78 174.5q0 51 24.5 89t67.5 38q31 0 70 -21q-25 -29 -25 -72q0 -51 42 -86.5t100 -35.5q96 0 168.5 103t108.5 265t36 352 q0 274 -71.5 398.5t-166.5 124.5q-78 0 -133 -55.5t-76.5 -128t-21.5 -150.5q0 -133 50 -200.5t138 -67.5h2q115 0 170 116q41 -39 41 -86q0 -74 -72.5 -131t-179.5 -57q-102 0 -180 40t-120 104.5t-62.5 136t-20.5 147.5z" />
<glyph unicode=":" horiz-adv-x="555" d="M115 276.5q0 67.5 47 115.5t114.5 48t115.5 -48t48 -115.5t-48 -114.5t-115.5 -47t-114.5 47t-47 114.5zM115 768q0 68 47 116t114.5 48t115.5 -48t48 -116t-48 -115t-115.5 -47t-114.5 47t-47 115z" />
<glyph unicode=";" horiz-adv-x="557" d="M111 768q0 68 47 116t114.5 48t115.5 -48t48 -116t-48 -115t-115.5 -47t-114.5 47t-47 115zM127 182q0 57 44 100.5t101 43.5q78 0 123 -59.5t45 -151.5t-50 -197.5t-136 -175.5q-29 16 -29 49q0 29 28 84t28 84t-38 56.5t-77 67.5t-39 99z" />
<glyph unicode="&#x3c;" horiz-adv-x="733" d="M51 487v84l563 308l4 -113l-440 -246l438 -196v-117z" />
<glyph unicode="=" horiz-adv-x="1009" d="M129 207v229h752v-229h-752zM129 647v230h752v-230h-752z" />
<glyph unicode="&#x3e;" horiz-adv-x="741" d="M115 879l569 -308v-110l-567 -254l4 117l448 196l-448 246z" />
<glyph unicode="?" horiz-adv-x="860" d="M49 1149q0 115 90 200t295 85q96 0 168 -22.5t110 -54.5t61.5 -77t29.5 -81t6 -77q0 -92 -33 -166.5t-82 -126.5l-99 -99q-50 -48 -90 -112.5t-50 -142.5h-136q-6 34 -6 62q0 74 39 148.5t86 128.5t86 136t39 166q0 207 -151 207q-70 0 -109 -46t-39 -110q0 -49 25.5 -91 t70.5 -58q-33 -86 -131 -86q-76 0 -128 58.5t-52 158.5zM217 161.5q0 67.5 47 116t114.5 48.5t116 -48.5t48.5 -116t-48.5 -114.5t-116 -47t-114.5 47t-47 114.5z" />
<glyph unicode="@" horiz-adv-x="1155" d="M70 336q0 334 205.5 569.5t492.5 235.5q55 0 104.5 -11.5t102.5 -42t85 -99t32 -169.5q0 -201 -109 -370.5t-240 -169.5q-68 0 -92 53q-57 -86 -129 -86q-121 0 -121 180q0 94 31 197.5t95.5 182.5t142.5 79q53 0 80 -35l8 31l112 -13l-92 -393q-8 -33 -8 -47 q0 -39 25 -39q47 0 112.5 142.5t65.5 269.5q0 98 -49.5 164.5t-161.5 66.5q-104 0 -197.5 -62.5t-156 -159.5t-98.5 -212t-36 -221q0 -289 273 -289q197 0 311 145q47 -20 47 -88q0 -98 -115 -160.5t-303 -62.5q-78 0 -147.5 21.5t-133 66.5t-100 129t-36.5 197zM520 459 q0 -92 43 -92q27 0 76 39q0 18 6 36l88 342q-16 20 -43 21q-66 0 -118 -126t-52 -220z" />
<glyph unicode="A" horiz-adv-x="1234" d="M-88 713q0 98 101.5 161.5t262.5 63.5q51 0 121 -6q113 266 262.5 435t317.5 169q86 0 164 -29v-1507h-297v743q-145 59 -281 72q-98 -387 -98 -735q0 -229 74 -313q-55 0 -89 3t-86.5 21.5t-82 53t-53 103t-23.5 167.5q0 303 147 704q-211 -12 -227 -108q10 0 26.5 -27 t16.5 -49q0 -31 -28.5 -49.5t-71.5 -18.5q-63 0 -109.5 39t-46.5 107zM588 903q141 -26 256 -69v555q-147 -94 -256 -486z" />
<glyph unicode="B" horiz-adv-x="1390" d="M37 1053q0 195 191.5 339t463.5 144q231 0 362.5 -107.5t131.5 -252.5q0 -184 -152 -289q168 -23 252 -139.5t84 -278.5q0 -66 -9 -131.5t-33.5 -134t-61.5 -120.5t-98.5 -85t-137.5 -33q-252 0 -252 166q0 43 19 105q88 -74 153 -74q72 0 107 85t35 204q0 57 -10.5 109 t-36 107.5t-82 89.5t-138.5 34q-39 0 -94 -7v-784h-295v1303l295 40v-454h14q100 0 165 92t65 209q0 104 -76 178t-227 74q-180 0 -310.5 -105.5t-130.5 -296.5q0 -57 9.5 -103t19.5 -65.5t25.5 -41t17.5 -25.5q-266 0 -266 248z" />
<glyph unicode="C" d="M96 717q0 119 14.5 228.5t53.5 219t97 190.5t154.5 131t217.5 50q166 0 279.5 -84t113.5 -240q0 -139 -111 -139q-72 0 -129 53q25 14 42.5 58.5t17.5 89.5q0 68 -40 117t-104 49q-129 0 -200.5 -205t-71.5 -485q0 -596 352 -596q115 0 209.5 58.5t145.5 156.5l51 -21 q-43 -180 -189.5 -280.5t-345.5 -100.5q-266 0 -411.5 190.5t-145.5 559.5z" />
<glyph unicode="D" horiz-adv-x="1447" d="M37 1047q0 207 188.5 348t481.5 141q180 0 315 -58.5t215 -163t119 -236.5t39 -290q0 -190 -49.5 -372.5t-143.5 -308t-211 -125.5t-258 98v-80h-297v1303l297 40v-1150q66 -39 119 -39q123 0 185.5 203.5t62.5 490.5q0 293 -90 443.5t-332 150.5q-205 0 -325 -107.5 t-120 -304.5q0 -43 6.5 -80t16.5 -61.5t19.5 -41t18.5 -28.5t11 -14q-268 0 -268 242z" />
<glyph unicode="E" horiz-adv-x="915" d="M84 418q0 147 73.5 275t204.5 161q-186 117 -186 309q0 152 110.5 264.5t299.5 112.5q131 0 214 -61.5t83 -192.5q0 -76 -28 -127t-79 -51t-104 51q29 8 46 50t17 87q0 70 -40 96.5t-91 26.5q-86 0 -129 -63.5t-43 -159.5q0 -119 69.5 -212t203.5 -128 q-125 -29 -198 -152.5t-73 -263.5q0 -121 62.5 -200.5t183.5 -79.5q106 0 205.5 57.5t130.5 151.5l51 -21q-41 -180 -186.5 -282.5t-333.5 -102.5q-219 0 -341 133t-122 322z" />
<glyph unicode="F" horiz-adv-x="1142" d="M43 1075q0 207 142.5 334t426.5 127q70 0 186.5 -12.5t184.5 -12.5q111 0 182 25q-2 -147 -47 -196.5t-129 -49.5q-76 0 -260 37v-405h299v-152h-299v-770h-299v1368q-98 -6 -147.5 -68.5t-49.5 -214.5q0 -190 84 -280q-139 0 -206.5 65.5t-67.5 204.5z" />
<glyph unicode="G" horiz-adv-x="1214" d="M68 860q0 299 153.5 487.5t433.5 188.5q182 0 315.5 -81t133.5 -243q0 -139 -113 -139q-94 0 -151 53q27 8 42 50.5t15 80.5q0 23 -6 48.5t-22.5 55.5t-53.5 48t-88 18q-158 0 -251 -162.5t-93 -394.5q0 -223 85 -346t194 -123q102 0 165.5 118t71.5 339l242 -2v-852 q0 -82 -20.5 -153.5t-65.5 -136t-130 -101.5t-200 -37q-180 0 -268 84t-88 207q0 106 61.5 189t187.5 83q178 0 179 -209q-41 43 -103 43q-74 0 -107.5 -35.5t-33.5 -89.5q0 -68 44 -119t120 -51q72 0 113.5 52.5t41.5 158.5v508q-98 -174 -309 -174q-215 0 -355 172 t-140 465z" />
<glyph unicode="H" horiz-adv-x="1421" d="M37 1053q0 193 186.5 338t421.5 145q33 0 86 -4v-610h301v610h295v-1532h-295v770h-301v-770h-295v1389q-205 -98 -205 -345q0 -59 9.5 -105t19.5 -65.5t25.5 -41t17.5 -27.5q-266 0 -266 248z" />
<glyph unicode="I" horiz-adv-x="825" d="M37 1053q0 193 186.5 338t421.5 145q33 0 86 -4v-1532h-295v1389q-205 -98 -205 -345q0 -57 9.5 -104t19.5 -66.5t25.5 -43t17.5 -25.5q-266 0 -266 248z" />
<glyph unicode="J" horiz-adv-x="888" d="M-6 -131q0 45 10 86t36 86t81 71.5t133 26.5q174 0 174 -209q-53 43 -115 43q-135 0 -135 -118q0 -80 52.5 -128.5t131.5 -48.5q68 0 106 52.5t38 199.5v1463q-209 -96 -209 -359q0 -55 10 -100t21.5 -66.5t26 -41t14.5 -21.5q-127 0 -197 59.5t-70 177.5 q0 203 185.5 348.5t425.5 145.5h82v-1475q0 -246 -98.5 -365.5t-323.5 -119.5q-186 0 -282.5 77t-96.5 216z" />
<glyph unicode="K" horiz-adv-x="1329" d="M37 1042q0 203 185.5 348.5t422.5 145.5q33 0 86 -4v-655l356 649h191l-436 -656q14 0 34.5 1t36.5 1q162 0 241 -79.5t79 -264.5q0 -41 -5 -155.5t-5 -145.5q0 -184 116 -227q-117 -35 -198 -35q-100 0 -147.5 54.5t-47.5 173.5q0 35 7.5 160.5t7.5 176.5 q0 250 -160 250q-33 0 -70 -8v-772h-295v1389q-205 -98 -205 -355q0 -43 6.5 -78.5t15.5 -60.5t17.5 -41t19.5 -31.5t13 -17.5q-127 0 -196.5 59.5t-69.5 177.5z" />
<glyph unicode="L" horiz-adv-x="927" d="M35 1022q0 203 185.5 348.5t422.5 145.5q33 -1 86 -5v-1472q78 -16 336 -139t408 -123q90 0 161 33q2 -12 2 -37q0 -104 -60 -194.5t-167 -90.5q-86 0 -205 72.5t-223 159.5t-243.5 160t-258.5 73q-31 0 -47 -2v1417q-203 -100 -203 -352q0 -31 3.5 -57.5t8.5 -49t11 -39 t14 -32t13.5 -23.5t13.5 -18.5t8 -12.5q-127 0 -196.5 59.5t-69.5 178.5z" />
<glyph unicode="M" horiz-adv-x="1613" d="M43 1047q0 184 165 336.5t374 152.5q84 0 166 -29l182 -1079l221 1079h295l104 -1507h-295l-63 920l-191 -920h-280l-156 920l-145 -920h-164l219 1403q-239 -94 -239 -357q0 -59 10 -105t20 -66.5t25.5 -43t17.5 -26.5q-266 0 -266 242z" />
<glyph unicode="N" horiz-adv-x="1470" d="M41 1077q0 184 137 321.5t385 137.5q84 0 150 -29l477 -1085v1110h186v-1532h-282l-463 1020v-1020h-197v1389q-196 -94 -196 -330q0 -51 5 -90t14 -65.5t16.5 -41t20.5 -33.5l17 -24q-137 0 -203.5 64.5t-66.5 207.5z" />
<glyph unicode="O" horiz-adv-x="1427" d="M35 1024q0 209 209 360.5t504 151.5q139 0 247.5 -39t178 -106.5t115.5 -164t64.5 -202.5t18.5 -231q0 -147 -26.5 -279.5t-85 -255.5t-172 -196.5t-269.5 -73.5q-219 0 -356 153.5t-137 495.5q0 121 18 239.5t58 231.5t117 182.5t177 69.5q54 -1 105 -17 q-80 -53 -125 -268t-45 -436q0 -139 20.5 -238.5t54 -145.5t65.5 -65.5t67 -19.5q117 0 182 197.5t65 478.5q0 180 -28.5 303t-83.5 184.5t-116.5 85t-145.5 23.5q-207 0 -344.5 -120t-137.5 -329q0 -104 56 -188q-250 0 -250 219z" />
<glyph unicode="P" horiz-adv-x="1232" d="M37 1042q0 207 186.5 350.5t448.5 143.5q250 0 403.5 -127t153.5 -334q0 -119 -52.5 -227.5t-167 -186t-268.5 -77.5h-10v-584h-295v1303l295 40v-684q119 12 190.5 147.5t71.5 301.5q0 334 -346 334q-190 0 -303 -103.5t-113 -310.5q0 -31 2.5 -56.5t7.5 -46t10 -34.5 t13 -28.5t12.5 -21.5t14.5 -20.5t12 -15.5q-266 0 -266 237z" />
<glyph unicode="Q" horiz-adv-x="1427" d="M35 1024q0 209 209 360.5t504 151.5q139 0 247.5 -39t178 -106.5t115.5 -164t64.5 -202.5t18.5 -231q0 -207 -53 -391.5t-172 -295.5q49 -53 83 -82.5t89 -56t115 -26.5q16 0 49 4q-18 -100 -60.5 -138t-117.5 -38q-119 0 -185.5 64.5t-126.5 182.5q-77 -28 -168 -28h-6 q-219 0 -356 153.5t-137 495.5q0 121 18 239.5t58 231.5t117 182.5t177 69.5q54 -1 105 -17q-80 -53 -125 -268t-45 -436q0 -215 49 -338q63 20 123 21q92 0 172 -54q110 182 110 571v7q0 180 -28.5 303t-83.5 184.5t-116.5 85t-145.5 23.5q-207 0 -344.5 -120t-137.5 -329 q0 -104 56 -188q-250 0 -250 219zM717 240q49 -70 121 -70q31 0 57 14q-55 62 -127 62q-23 0 -51 -6z" />
<glyph unicode="R" horiz-adv-x="1339" d="M37 1042q0 205 184.5 349.5t466.5 144.5q225 0 363.5 -98.5t138.5 -272.5q0 -199 -158 -307q201 -49 201 -330q0 -41 -5 -155.5t-5 -145.5q0 -184 116 -227q-117 -35 -198 -35q-100 0 -147.5 54.5t-47.5 173.5q0 35 7.5 160.5t7.5 176.5q0 121 -36 185.5t-126 64.5 q-35 0 -68 -8v-772h-295v1303l295 40v-473h17q102 0 162.5 90.5t60.5 213.5q0 268 -305 268q-193 0 -313 -107.5t-120 -304.5q0 -53 10.5 -97t20.5 -64.5t24.5 -41t14.5 -22.5q-266 0 -266 237z" />
<glyph unicode="S" horiz-adv-x="1083" d="M68 340q0 137 71.5 221t173.5 84q59 0 117.5 -31.5t85.5 -103.5q-207 0 -207 -184q0 -100 62.5 -149.5t167.5 -49.5q102 0 153 49t51 160q0 100 -44 180q-43 80 -111 129l-144 103l-145 105q-68 50 -112 132t-44 186q0 174 118 269.5t325 95.5q47 0 90 -6t109.5 -28.5 t107.5 -80t41 -143.5q0 -78 -35 -126t-96 -48q-57 0 -103 43q59 41 60 139q0 66 -43 106t-123 40q-174 0 -174 -189q0 -80 36 -143.5t92 -105.5t124 -82l139 -85q70 -45 126 -99t92 -140t36 -195q0 -219 -134 -324.5t-360 -105.5q-213 0 -358 91t-145 286z" />
<glyph unicode="T" horiz-adv-x="1376" d="M41 1077q0 209 146.5 333t463.5 124q115 0 272.5 -23.5t237.5 -23.5q143 0 242 43q6 -39 6 -72q0 -94 -51 -141t-166 -47q-102 0 -318 45v-1315h-296v1356h-21q-176 0 -246.5 -78t-70.5 -238q0 -51 5 -90t16 -64.5t18.5 -37.5t21.5 -29l14 -16q-135 0 -204.5 63.5 t-69.5 210.5z" />
<glyph unicode="U" horiz-adv-x="1579" d="M35 1051q0 197 196.5 341t468.5 144q47 0 101 -10v-1116q0 -106 58.5 -165t137.5 -59q82 0 140.5 58.5t58.5 165.5v1122h291v-1102q0 -211 -145.5 -327.5t-344 -116.5t-344 116.5t-145.5 327.5v987q-133 -39 -206 -135t-73 -238q0 -47 4.5 -83.5t14.5 -63.5t17 -40 t20.5 -31.5t15.5 -20.5q-266 0 -266 246z" />
<glyph unicode="V" horiz-adv-x="1460" d="M35 1053q0 193 186.5 338t421.5 145q33 0 86 -4l320 -1260l270 1254h151l-344 -1526h-303l-370 1399q-106 -43 -165 -135.5t-59 -219.5q0 -57 9.5 -103t19.5 -66.5t25.5 -44t17.5 -25.5q-266 0 -266 248z" />
<glyph unicode="W" horiz-adv-x="2066" d="M35 1042q0 203 185.5 348.5t422.5 145.5q33 0 86 -4l246 -1260l203 1254h260l245 -1254l203 1254h158l-285 -1526h-309l-205 1042l-209 -1042h-295l-288 1399q-223 -92 -224 -363q0 -55 10.5 -101t21.5 -66.5t24.5 -40t15.5 -23.5q-127 0 -196.5 59.5t-69.5 177.5z" />
<glyph unicode="X" horiz-adv-x="1329" d="M37 1053q0 193 186.5 338t421.5 145q33 0 86 -4l223 -571l242 565h133l-307 -740l311 -786h-325l-222 557l-272 -557h-133l338 729l-264 670q-106 -43 -165 -135.5t-59 -219.5q0 -59 9.5 -105t19.5 -65.5t25.5 -41t17.5 -27.5q-266 0 -266 248z" />
<glyph unicode="Y" horiz-adv-x="1329" d="M35 1053q0 193 186.5 338t421.5 145q33 0 86 -4l293 -735l197 729h135l-264 -895v-631h-328v631l-309 768q-106 -43 -165 -135.5t-59 -219.5q0 -59 9.5 -105t19.5 -65.5t25.5 -41t17.5 -27.5q-266 0 -266 248z" />
<glyph unicode="Z" horiz-adv-x="1138" d="M37 1354q0 76 54 129t157 53h805l-574 -1403q25 0 94.5 -2t104.5 -2q262 0 285 45q-18 0 -36 21.5t-18 66.5q0 47 30 70.5t71 23.5q63 0 99 -47t36 -102q0 -80 -57.5 -143.5t-159.5 -63.5h-822l578 1425q-18 0 -133 2.5t-154 2.5q-178 0 -178 -41q47 -18 47 -80 q0 -41 -25.5 -74t-68.5 -33q-66 0 -100.5 48t-34.5 104z" />
<glyph unicode="[" horiz-adv-x="606" d="M145 -512v2048h416v-127h-225v-1794h227v-127h-418z" />
<glyph unicode="\" horiz-adv-x="1077" d="M29 1536h147l871 -2048h-148z" />
<glyph unicode="]" horiz-adv-x="606" d="M43 -385h227v1794h-227v127h418v-2048h-418v127z" />
<glyph unicode="^" horiz-adv-x="862" d="M-141 1149l352 387h43l205 -387h-66l-157 164l-287 -164h-90z" />
<glyph unicode="_" horiz-adv-x="903" d="M92 0v162h719v-162h-719z" />
<glyph unicode="`" horiz-adv-x="411" d="M-276 1536h215l141 -387h-154z" />
<glyph unicode="a" horiz-adv-x="1077" d="M61 463q0 98 21.5 195.5t67 183.5t123 139t180.5 53q154 0 192 -108v98h295v-696q0 -84 22.5 -113t84.5 -29q59 0 99 51.5t46 129.5h86q-12 -96 -43 -168t-66.5 -111t-82 -62.5t-82 -30.5t-74.5 -7q-197 0 -244 188q-86 -188 -264 -188q-150 0 -255.5 114.5t-105.5 360.5 zM360 481q0 -102 15.5 -167.5t43 -90t46 -31t47.5 -6.5q49 0 91 49.5t42 131.5v460q-23 80 -100 80q-90 0 -137.5 -133t-47.5 -293z" />
<glyph unicode="b" horiz-adv-x="909" d="M94 305l2 1088l295 41v-461q88 61 160 61q150 0 241 -128t91 -357q0 -80 -11.5 -152.5t-42 -149.5t-79 -132.5t-130 -91t-186.5 -35.5q-168 0 -254 85t-86 232zM391 307q0 -121 103 -121q68 0 109.5 56.5t55 128t13.5 159.5q0 164 -47 259.5t-127 95.5q-76 0 -107 -37 v-541z" />
<glyph unicode="c" horiz-adv-x="786" d="M63 459q0 76 10.5 149.5t39 152.5t73.5 138t122 97t175 38q143 0 207 -69.5t64 -159.5q0 -55 -21.5 -89t-58.5 -34q-41 0 -84 25q6 35 6 61q0 158 -84 158q-76 0 -117 -137.5t-41 -311.5q0 -182 51.5 -249.5t159.5 -67.5q111 0 179.5 52t138.5 155h69 q-152 -379 -487 -379q-184 0 -293 113.5t-109 357.5z" />
<glyph unicode="d" horiz-adv-x="1077" d="M61 463q0 98 21.5 195.5t67 183.5t123 139t180.5 53q154 0 192 -108v467l295 41v-1106q0 -84 22.5 -113t84.5 -29q59 0 99 51.5t46 129.5h86q-12 -96 -43 -168t-66.5 -111t-82 -62.5t-82 -30.5t-74.5 -7q-197 0 -244 188q-86 -188 -264 -188q-150 0 -255.5 114.5 t-105.5 360.5zM360 481q0 -102 15.5 -167.5t43 -90t46 -31t47.5 -6.5q49 0 91 49.5t42 131.5v460q-23 80 -100 80q-90 0 -137.5 -133t-47.5 -293z" />
<glyph unicode="e" horiz-adv-x="786" d="M63 457q0 78 12.5 152.5t43.5 153.5t78 137t124.5 96t176.5 38q74 0 127 -21.5t78.5 -49t41 -65.5t17.5 -59.5t2 -41.5q0 -172 -119 -273.5t-283 -109.5q4 -139 48 -196.5t153 -57.5q113 0 181.5 51t138.5 156h69q-152 -379 -485 -379q-186 0 -295 114.5t-109 354.5z M362 512q102 8 173 89t71 194q0 66 -22.5 98.5t-55.5 32.5q-68 0 -112.5 -121t-53.5 -293z" />
<glyph unicode="f" horiz-adv-x="546" d="M-197 -242q0 100 72 154.5t221 103.5v1170q0 102 27 176t74 108.5t92 49t98 14.5q137 0 217 -86t92 -219h-96q-12 68 -30.5 96.5t-63.5 28.5q-115 0 -115 -168v-162h150v-82h-150v-1106q0 -104 -26.5 -177t-71.5 -107.5t-89 -49t-93 -14.5q-127 0 -217.5 77t-90.5 193z M-88 -227q0 -47 34 -75t68 -28q84 0 84 160v119q-186 -65 -186 -176z" />
<glyph unicode="g" horiz-adv-x="1038" d="M55 481q0 98 21.5 190.5t66.5 176.5t128 135t194 51q139 0 178 -102v92h295v-950q90 35 136 99.5t61 193.5h86q-16 -182 -92 -265.5t-191 -119.5v-146q0 -104 -25.5 -177t-70.5 -107.5t-90 -49t-99 -14.5q-121 0 -202.5 63.5t-81.5 167.5q0 180 274 273v172 q-80 -135 -231 -135q-145 0 -251 111.5t-106 340.5zM354 492q0 -264 135 -265q63 0 104.5 42t49.5 110v457q-8 27 -33.5 49t-64.5 22q-63 0 -108.5 -66.5t-64 -157.5t-18.5 -191zM477 -264q0 -37 26.5 -62.5t55.5 -25.5q39 0 61.5 47t22.5 135v59q-166 -67 -166 -153z" />
<glyph unicode="h" d="M96 0v1393l295 41v-516q75 114 217 114h2q287 0 287 -377q0 -37 -4 -147.5t-4 -145.5q0 -92 22.5 -134t83.5 -42q45 0 73 27t38 57.5t24 96.5h87q-14 -117 -47 -197t-78 -118t-87 -51t-94 -13q-299 0 -299 383q0 25 2 123t2 127q0 225 -104 225t-121 -189v-657h-295z" />
<glyph unicode="i" horiz-adv-x="546" d="M74 1296.5q0 67.5 47 115.5t114.5 48t115.5 -48t48 -115.5t-48 -114.5t-115.5 -47t-114.5 47t-47 114.5zM96 305v719h295v-696q0 -84 22.5 -113t84.5 -29q59 0 99 51.5t46 129.5h86q-12 -96 -43 -168t-66.5 -111t-81.5 -62.5t-82 -30.5t-75 -7q-285 0 -285 317z" />
<glyph unicode="j" horiz-adv-x="491" d="M-178 -281q0 180 274 273v1032h295v-950q90 35 136 99.5t61 193.5h86q-16 -182 -92 -265.5t-191 -119.5v-146q0 -104 -25.5 -176t-69.5 -107.5t-90 -50t-100 -14.5q-121 0 -202.5 63.5t-81.5 167.5zM-70 -262q0 -37 27 -63.5t57 -26.5q82 0 82 182v59q-166 -69 -166 -151 zM78 1296.5q0 67.5 47 115.5t114.5 48t115.5 -48t48 -115.5t-48 -114.5t-115.5 -47t-114.5 47t-47 114.5z" />
<glyph unicode="k" horiz-adv-x="1060" d="M96 0v1393l295 41v-721l330 311h203l-349 -283q18 2 56 2q129 0 211 -63.5t82 -204.5q0 -27 -4.5 -101.5t-4.5 -90.5q0 -47 21.5 -72t79.5 -25q68 0 93.5 39t47.5 142h86q-29 -221 -109.5 -300t-199.5 -79q-147 0 -221 79.5t-74 202.5q0 14 2 69.5t2 82.5q0 80 -21.5 119 t-82.5 39q-111 0 -148 -123v-457h-295z" />
<glyph unicode="l" horiz-adv-x="546" d="M96 305v1088l295 41v-1106q0 -84 22.5 -113t84.5 -29q59 0 99 51.5t46 129.5h86q-12 -96 -43 -168t-66.5 -111t-81.5 -62.5t-82 -30.5t-75 -7q-285 0 -285 317z" />
<glyph unicode="m" horiz-adv-x="1540" d="M96 0v1024h295v-106q77 116 221 116h2q176 0 248 -176q78 174 254 174q287 0 287 -377q0 -37 -4 -147.5t-4 -145.5q0 -92 22.5 -134t83.5 -42q45 0 73 27t38 57.5t24 96.5h86q-29 -219 -110.5 -299t-196.5 -80q-150 0 -222.5 101t-72.5 282q0 25 2 122.5t2 124.5 q0 227 -106 228q-104 0 -121 -189v-657h-295v707q0 141 -90 141q-53 0 -84 -54.5t-37 -136.5v-657h-295z" />
<glyph unicode="n" d="M96 0v1024h295v-106q75 114 217 114h2q287 0 287 -377q0 -37 -4 -147.5t-4 -145.5q0 -94 20.5 -135t79.5 -41q66 0 93.5 44t47.5 137h87q-16 -119 -48 -198t-76 -117t-86 -51t-94 -13q-299 0 -299 383q0 25 2 122.5t2 124.5q0 227 -106 228q-104 0 -121 -189v-657h-295z " />
<glyph unicode="o" horiz-adv-x="899" d="M61 451q0 98 19.5 191t66 186.5t137.5 149.5t216 56q287 0 334 -323h14q55 0 138 36.5t142 86.5l31 -56q-82 -121 -317 -168q2 -18 2 -55q0 -258 -95.5 -412.5t-304.5 -154.5q-168 0 -275.5 110.5t-107.5 352.5zM362 471q1 -291 140 -291q84 0 125 106.5t41 284.5v31 q-80 16 -80 103q0 80 51 96q-35 110 -108 110h-1q-82 0 -125 -136t-43 -304z" />
<glyph unicode="p" horiz-adv-x="958" d="M96 -512v1612h295v-154q84 88 217 88q154 0 251 -120.5t97 -378.5q0 -106 -18 -198.5t-59 -173.5t-117 -128t-180 -47q-131 0 -191 71v-497zM391 213q31 -47 92 -47q98 0 143.5 116.5t45.5 280.5q0 86 -13.5 149.5t-31 95.5t-42 51.5t-40 23.5t-31.5 4q-88 0 -123 -103 v-571z" />
<glyph unicode="q" horiz-adv-x="995" d="M61 463q0 98 21.5 195.5t67 183.5t123 139t180.5 53q152 0 190 -102v92h295v-1462l-295 -74v612q-83 -112 -219 -112h-2q-150 0 -255.5 114.5t-105.5 360.5zM360 481q0 -102 15.5 -167.5t43 -90t46 -31t47.5 -6.5q43 0 83 39t48 107v504q-30 71 -98 71q-90 0 -137.5 -133 t-47.5 -293z" />
<glyph unicode="r" horiz-adv-x="770" d="M96 0v1024h295v-127q115 137 221 137q74 0 125 -57t51 -125q0 -49 -29.5 -85t-88.5 -36q-41 0 -64.5 20.5t-30 44t-21.5 44t-40 20.5q-47 0 -123 -82v-778h-295z" />
<glyph unicode="s" horiz-adv-x="782" d="M49 291q0 111 76 149q123 322 156 607l294 40l71 -264l54 -197q15 -57 30 -126.5t19.5 -116.5t4.5 -107v-12q74 52 125 103h86q-92 -139 -269 -263q-95 -116 -283 -116h-3q-166 0 -263.5 95t-97.5 208zM154 293q31 -143 155 -143q145 0 146 143q0 43 -2 75q-3 34 -15 86 l-19 80q-7 28 -34 124l-43 155q-23 -109 -113 -379q58 -27 58 -86q0 -33 -19.5 -57.5t-52.5 -24.5q-43 0 -61 27z" />
<glyph unicode="t" horiz-adv-x="546" d="M31 942v82h65v283l295 41v-324h125v-82h-125v-614q0 -84 22.5 -113t84.5 -29q59 0 99 51.5t46 129.5h86q-12 -96 -43 -168t-66.5 -111t-81.5 -62.5t-82 -30.5t-75 -7q-285 0 -285 317v637h-65z" />
<glyph unicode="u" d="M96 305v719h295v-696q0 -141 84 -142q55 0 92 51.5t37 129.5v657h295v-696q0 -78 20.5 -110t73.5 -32q139 0 158 181h86q-12 -96 -43 -168t-66.5 -111t-82 -62.5t-83 -30.5t-75.5 -7q-201 0 -244 194q-76 -194 -270 -194h-2q-274 0 -275 317z" />
<glyph unicode="v" horiz-adv-x="847" d="M96 328v696h295v-696q0 -74 20.5 -108t67.5 -34q109 0 168.5 156t59.5 352q0 94 -17 176q-6 -20 -61 -20q-41 0 -70 43t-29 86q0 39 27 62.5t76 23.5q196 0 196 -381q0 -131 -21.5 -246.5t-67.5 -220t-132 -167t-200 -62.5q-145 0 -228.5 92t-83.5 248z" />
<glyph unicode="w" horiz-adv-x="1353" d="M96 305v719h295v-696q0 -141 84 -142q53 0 87 50.5t40 130.5v657h295v-696q0 -74 20.5 -108t67.5 -34q109 0 168 156t59 352q0 94 -16 176q-6 -20 -61 -20q-41 0 -70 43t-29 86q0 39 27 62.5t76 23.5q196 0 196 -381q0 -131 -21.5 -246.5t-67.5 -220t-132 -167 t-201 -62.5q-207 0 -280 172q-80 -172 -262 -172q-274 0 -275 317z" />
<glyph unicode="x" horiz-adv-x="1069" d="M94 367q0 125 16.5 234.5t52.5 211.5t105.5 161.5t165.5 59.5q193 0 275 -243l53 -160q129 178 129 270q0 18 -2 29q-8 0 -15.5 -2t-15.5 -2q-61 0 -94 34.5t-33 81.5q0 51 38 82t89 31q63 0 109.5 -47t46.5 -139q0 -182 -207 -471l47 -133q59 -178 160 -179 q61 0 101 48.5t48 132.5h86q-14 -115 -54 -196t-91 -118t-94 -51t-86 -14q-102 0 -183.5 85t-150.5 271l-211 -344h-148l314 467l-82 229q-35 100 -59.5 135t-53.5 35q-66 0 -118 -131t-52 -368h-86z" />
<glyph unicode="y" horiz-adv-x="995" d="M96 305v719h295v-696q0 -141 84 -142q53 0 87 50.5t40 130.5v657h295v-950q90 35 136 99.5t61 193.5h86q-16 -182 -92 -265.5t-191 -119.5v-146q0 -104 -25.5 -176t-69.5 -107.5t-90 -50t-100 -14.5q-121 0 -202.5 63.5t-81.5 167.5q0 180 274 273v112 q-79 -116 -228 -116h-3q-274 0 -275 317zM436 -262q0 -37 26.5 -63.5t57.5 -26.5q82 0 82 182v59q-166 -69 -166 -151z" />
<glyph unicode="z" horiz-adv-x="876" d="M111 840q0 68 53 126t143 58h563l-391 -866q10 0 47 -4t73 -6.5t60 -2.5q89 0 89 41q-23 2 -36.5 17.5t-13.5 36.5q0 31 25 54t72 23q55 0 84.5 -36.5t29.5 -90.5q0 -72 -55 -131t-152 -59h-565l402 913h-152q-104 0 -104 -28q0 -6 5 -8.5t12 -4.5t12 -16t5 -43 q0 -41 -26.5 -63.5t-63.5 -22.5q-45 0 -80.5 29.5t-35.5 83.5z" />
<glyph unicode="{" horiz-adv-x="583" d="M51 463v115q37 -6 66 -7q127 0 127 150q0 76 -43 275.5t-43 289.5q0 252 256 252q55 0 121 -16v-111q-66 8 -91 8q-88 0 -119.5 -42t-31.5 -132q0 -111 44 -307.5t44 -255.5q0 -92 -59 -162q59 -70 59 -162q0 -59 -44 -255.5t-44 -307.5q0 -90 31.5 -132t119.5 -42 q25 0 91 8v-110q-66 -16 -121 -17q-256 0 -256 252q0 90 43 290t43 275q0 150 -127 150q-29 0 -66 -6z" />
<glyph unicode="|" horiz-adv-x="481" d="M145 -512v2050h191v-2050h-191z" />
<glyph unicode="}" horiz-adv-x="583" d="M49 -481v110q66 -8 90 -8q88 0 120 42t32 132q0 111 -44 307.5t-44 255.5q0 92 59 162q-59 70 -59 162q0 59 44 256t44 307q0 90 -32 132t-120 42q-25 0 -90 -8v111q66 16 121 16q256 0 256 -252q0 -90 -43 -289.5t-43 -275.5q0 -150 127 -150q29 0 65 7v-115 q-37 6 -65 6q-127 0 -127 -150q0 -76 43 -275.5t43 -289.5q0 -252 -256 -252q-55 1 -121 17z" />
<glyph unicode="~" horiz-adv-x="897" d="M59 1192q57 201 299 201q78 0 187.5 -34t165.5 -34q83 0 118 47l15 -2q-4 -76 -89 -140.5t-198 -64.5q-70 0 -188.5 38t-171.5 38q-78 0 -125 -53z" />
<glyph unicode="&#xa1;" horiz-adv-x="522" d="M100 763.5q0 67.5 48.5 115t116 47.5t114.5 -47.5t47 -115t-47 -115.5t-114.5 -48t-116 48t-48.5 115.5zM113 -508l61 961h174l60 -961h-295z" />
<glyph unicode="&#xa2;" horiz-adv-x="802" d="M57 737q0 213 98.5 341t274.5 143v249h80v-249q92 -6 151.5 -52.5t59.5 -130.5q0 -102 -121 -106q16 39 16 80q0 51 -27.5 88t-78.5 41v-717q88 2 140 25.5t95 91.5q-8 -125 -62 -177.5t-173 -64.5v-354h-80v352q-166 8 -269.5 112.5t-103.5 327.5zM274 748 q0 -260 156 -314v690q-74 -37 -115 -142t-41 -234z" />
<glyph unicode="&#xa3;" horiz-adv-x="999" d="M49 686q33 123 152 174v613l307 63v-676q145 -41 192 -41q84 0 119 47l15 -2q-4 -76 -89.5 -140.5t-197.5 -64.5q-27 0 -39 3v-476q29 4 97.5 6.5t108.5 8.5t105.5 36.5t130.5 86.5q4 -53 4 -78q0 -115 -40 -180.5t-109 -65.5h-604v735h-15q-78 0 -125 -53z" />
<glyph unicode="&#xa4;" horiz-adv-x="937" d="M92 1008l78 73l115 -114q84 61 186 61q100 0 182 -59l115 114l74 -73l-113 -113q61 -84 62 -188q0 -102 -62 -187l113 -112l-74 -74l-113 113q-82 -59 -184 -60q-104 0 -188 62l-115 -115l-74 74l115 114q-59 82 -59 183q0 102 59 184zM266 709q0 -84 60.5 -144.5 t144.5 -60.5t144.5 60.5t60.5 144.5t-60.5 144t-144.5 60t-144.5 -60t-60.5 -144z" />
<glyph unicode="&#xa5;" horiz-adv-x="1456" d="M45 1053q0 193 186.5 338t421.5 145q33 0 86 -4l293 -735l197 729h135l-264 -897h264v-103h-264v-133h264v-102h-264v-291h-328v291h-201v102h201v133h-201v103h201l-309 770q-106 -43 -164.5 -135.5t-58.5 -219.5q0 -59 9 -105t19.5 -65.5t25.5 -41t17 -27.5 q-266 0 -266 248z" />
<glyph unicode="&#xa6;" horiz-adv-x="481" d="M145 455h191v-967h-191v967zM145 616v924h191v-924h-191z" />
<glyph unicode="&#xa7;" horiz-adv-x="1064" d="M74 207q0 98 42 150.5t109 52.5q84 0 183 -103q-78 -8 -108 -35.5t-30 -87.5q0 -84 48.5 -138t148.5 -54q80 0 110.5 38t30.5 113q0 109 -53 193t-129 138l-152 104q-75 51 -128.5 120.5t-53.5 157.5q0 164 150 236q-27 68 -27 137q0 154 106.5 230.5t258.5 76.5 q31 0 63.5 -3t80.5 -16.5t83 -36t61.5 -67.5t26.5 -104q0 -133 -107 -133q-45 0 -81 32q47 31 47 113q0 57 -37 98t-103 41q-72 0 -112.5 -51t-40.5 -129q0 -86 57 -153.5t138 -117.5l162 -106q81 -55 138.5 -143t57.5 -203q0 -104 -44 -179t-126 -97q6 -35 6 -70 q0 -154 -96.5 -238t-274.5 -84q-63 0 -124.5 11.5t-129 42t-109.5 98.5t-42 166zM289 938q0 -57 64.5 -119.5t147.5 -115t175 -137.5t135 -177q12 31 12 76q0 92 -58 169t-132 122t-172.5 110.5t-151.5 122.5q-20 -16 -20 -51z" />
<glyph unicode="&#xa8;" horiz-adv-x="802" d="M115 1298q0 51 36.5 88t88 37t88.5 -36.5t37 -88t-37 -88t-88.5 -36.5t-88 35.5t-36.5 88.5zM483 1298q0 51 37 88t88 37t88 -36.5t37 -88t-37 -88t-88 -36.5t-88 35.5t-37 88.5z" />
<glyph unicode="&#xa9;" horiz-adv-x="1134" d="M72 678q0 219 145 371.5t350 152.5t350.5 -151.5t145.5 -370.5t-145.5 -371.5t-350.5 -152.5q-203 0 -349 152.5t-146 369.5zM166 678q0 -182 118.5 -309t286.5 -127q166 0 285 127t119 309t-119 309t-285 127q-168 0 -286.5 -127t-118.5 -309zM279 688q0 133 93 218 t212 85q84 0 153.5 -49t98.5 -145l-97 -37q-10 59 -56 91t-105 32q-76 0 -131.5 -49.5t-55.5 -135.5q0 -92 56.5 -155.5t138.5 -63.5q104 0 153 92l90 -59q-92 -139 -251 -139q-123 0 -211 93t-88 222z" />
<glyph unicode="&#xaa;" horiz-adv-x="727" d="M82 1221q0 121 55.5 213t163.5 92q63 0 107 -33v23h176l-6 -377q0 -39 10 -58.5t43 -19.5q20 0 31 4q-12 -102 -95 -102q-59 0 -88.5 26.5t-50.5 83.5q-51 -117 -158 -117q-96 0 -142 78t-46 187zM240 1229q0 -96 28.5 -138t61.5 -42q51 0 78 98v291q-35 18 -60 18 q-51 0 -79.5 -70.5t-28.5 -156.5z" />
<glyph unicode="&#xab;" horiz-adv-x="1052" d="M43 520l358 400l105 -93l-293 -309l342 -287l-63 -90zM469 520l358 400l105 -93l-293 -309l342 -287l-63 -90z" />
<glyph unicode="&#xac;" horiz-adv-x="954" d="M84 455v161h743v-512h-227v351h-516z" />
<glyph unicode="&#xad;" horiz-adv-x="653" d="M121 455v161h411v-161h-411z" />
<glyph unicode="&#xae;" horiz-adv-x="1134" d="M72 684q0 219 145 371.5t350 152.5t350.5 -151.5t145.5 -370.5t-145.5 -371.5t-350.5 -152.5q-203 0 -349 152.5t-146 369.5zM166 684q0 -182 118.5 -309t286.5 -127q166 0 285 127t119 309t-119 309t-285 127q-168 0 -286.5 -127t-118.5 -309zM371 393l2 596h198 q109 0 167.5 -45t58.5 -127q0 -57 -34 -99t-87 -59l133 -256l-96 -14l-127 256h-121v-252h-94zM465 723h92q145 0 145 90q0 92 -124 92h-113v-182z" />
<glyph unicode="&#xb0;" horiz-adv-x="653" d="M86 1108q0 143 66.5 236.5t187.5 93.5q227 0 227 -324q0 -133 -56 -240.5t-165 -107.5q-127 0 -193.5 79t-66.5 263zM233 1124q0 -282 102 -282h1q53 0 81.5 70.5t28.5 177.5q0 102 -16 167.5t-36.5 87t-45.5 21.5q-41 0 -78 -65.5t-37 -176.5z" />
<glyph unicode="&#xb1;" horiz-adv-x="978" d="M113 139v162h751v-162h-751zM113 633v229h264v250h231l-2 -250h262v-229h-264v-252h-227v252h-264z" />
<glyph unicode="&#xb2;" horiz-adv-x="704" d="M98 774q0 57 32 112.5t78 102.5l92 97q46 51 78 118.5t32 141.5q0 127 -97 127q-41 0 -67.5 -23t-26.5 -66q0 -59 47 -73q-37 -39 -88 -39q-39 0 -59.5 31.5t-20.5 72.5q0 74 60.5 116t175.5 42q248 0 248 -205q0 -70 -31 -130t-79 -104t-97 -81t-94.5 -80t-63.5 -82 q43 0 128 -10.5t120 -10.5q20 0 37 4l26 5q9 2 22 13t16 13t18.5 20.5t19.5 22.5q12 -80 12 -108q0 -63 -27.5 -86t-88.5 -23q-55 0 -149.5 16.5t-114.5 16.5q-70 0 -121 -23q-16 49 -17 72z" />
<glyph unicode="&#xb3;" horiz-adv-x="710" d="M82 899q0 139 119 139q73 0 100 -55q-82 -8 -82 -98q0 -115 109 -115q131 0 131 145q0 84 -52.5 155t-150.5 99q76 18 122 74.5t46 120.5q0 47 -27.5 79t-81.5 32q-79 0 -79 -64q0 -33 17 -62.5t46 -37.5q-37 -39 -84 -39q-43 0 -74.5 32.5t-31.5 81.5q0 66 57 107 t160 41q119 0 186.5 -55.5t67.5 -130.5q0 -113 -131 -181q94 -25 142 -81t48 -125q0 -39 -15.5 -81t-48 -84t-99 -69t-157.5 -27q-25 0 -51 4.5t-75.5 20.5t-80 61t-30.5 113z" />
<glyph unicode="&#xb4;" horiz-adv-x="647" d="M2 1149l104 387h216l-166 -387h-154z" />
<glyph unicode="&#xb5;" d="M96 -340v1364h295v-696q0 -141 84 -142q55 0 92 51.5t37 129.5v657h295v-696q0 -78 20.5 -110t73.5 -32q139 0 158 181h86q-12 -96 -43 -168t-66.5 -111t-82 -62.5t-83 -30.5t-75.5 -7q-201 0 -244 194q-76 -186 -252 -194v-254z" />
<glyph unicode="&#xb6;" horiz-adv-x="1060" d="M47 1104q0 176 105.5 303t306 127t334 -118t133.5 -367v-1215h-195v778q-29 -10 -82 -22l2 -756h-192v754q-188 33 -300 182.5t-112 333.5zM647 694q55 0 82 8v465q0 162 -82 230v-703z" />
<glyph unicode="&#xb7;" horiz-adv-x="567" d="M86 547q0 82 57.5 140t139.5 58t140 -58t58 -140t-58 -139.5t-140 -57.5t-139.5 57.5t-57.5 139.5z" />
<glyph unicode="&#xb8;" horiz-adv-x="464" d="M82 -389q25 65 67 65h1q45 0 92 -27.5t71 -27.5q20 0 32.5 20.5t12.5 47.5q0 37 -25.5 64.5t-72.5 27.5q-63 0 -100 -25l43 303l82 -47l-27 -147q61 16 104 16q154 0 154 -143q0 -86 -59.5 -135t-143.5 -49q-109 0 -231 57z" />
<glyph unicode="&#xb9;" horiz-adv-x="464" d="M51 1397l4 51q146 0 283 86v-827h-174v690h-113z" />
<glyph unicode="&#xba;" horiz-adv-x="628" d="M84 1239q0 141 68.5 214t175.5 73q47 0 85 -16.5t38 -41.5q0 -29 -43 -45q-23 39 -62 39q-53 0 -77.5 -70.5t-24.5 -154.5q0 -174 92 -174q96 0 96 158q0 23 -4 63q-41 8 -41 55q0 27 19.5 50.5t44.5 23.5q39 0 47 -39q12 8 20 17.5t18.5 25t16.5 23.5l16 -23 q-10 -92 -59 -119q10 -45 10 -79q0 -123 -61.5 -194t-141.5 -71q-127 0 -180 66.5t-53 218.5z" />
<glyph unicode="&#xbb;" horiz-adv-x="1058" d="M74 829l63 91l449 -379l-359 -400l-104 92l293 310zM500 829l63 91l449 -379l-359 -400l-104 92l293 310z" />
<glyph unicode="&#xbc;" horiz-adv-x="1390" d="M43 1151l4 51q146 0 283 86v-827h-174v690h-113zM248 -145l532 1681h148l-533 -1681h-147zM799 307q4 33 43 174.5t39 220.5q0 66 -29 129q66 0 113 -36.5t47 -112.5q0 -51 -19.5 -102.5t-49.5 -106.5t-40 -86h191v422l174 22v-444h69l-8 -80h-61v-305h-174v305h-295z " />
<glyph unicode="&#xbd;" horiz-adv-x="1409" d="M43 1151l4 51q146 0 283 86v-827h-174v690h-113zM287 -145l532 1681h148l-533 -1681h-147zM834 78q0 57 31.5 112.5t77.5 102.5l92 97q46 50 78 117.5t32 141.5q0 127 -96 127q-41 0 -68 -22.5t-27 -65.5q0 -59 47 -74q-37 -39 -88 -39q-39 0 -59 32t-20 73q0 74 60 116 t175 42q248 0 248 -205q0 -70 -31 -130.5t-79 -104.5t-97 -80.5t-94.5 -79.5t-63.5 -82q43 0 128 -10.5t120 -10.5q20 0 36.5 3t26 5t22.5 13.5t16.5 13.5t18.5 20.5t19 22.5q12 -80 13 -109q0 -63 -28 -85.5t-89 -22.5q-55 0 -149.5 16.5t-114.5 16.5q-70 0 -121 -23 q-16 49 -16 72z" />
<glyph unicode="&#xbe;" horiz-adv-x="1597" d="M51 653q0 139 119 140q73 -1 100 -56q-82 -8 -82 -98q0 -115 109 -115q131 0 131 146q0 84 -52 154.5t-151 99.5q76 18 122 74.5t46 119.5q0 47 -27.5 79t-80.5 32q-80 0 -80 -66q0 -31 17.5 -60.5t45.5 -37.5q-37 -39 -84 -39q-43 0 -74.5 33t-31.5 82q0 66 57.5 106.5 t159.5 40.5q119 0 186.5 -55t67.5 -131q0 -113 -131 -180q94 -25 142 -81.5t48 -125.5q0 -39 -15 -81t-48 -84t-99.5 -68.5t-156.5 -26.5q-25 0 -51.5 4t-75.5 20.5t-80 61.5t-31 112zM442 -145l533 1681h147l-532 -1681h-148zM1012 307q4 33 43 174.5t39 220.5 q0 66 -29 129q66 0 113 -36.5t47 -112.5q0 -51 -19.5 -102.5t-49.5 -106.5t-40 -86h191v422l174 22v-444h69l-8 -80h-61v-305h-174v305h-295z" />
<glyph unicode="&#xbf;" horiz-adv-x="851" d="M47 -195q0 92 33 167t82 127l99 99q50 48 90 112.5t50 142.5h136q6 -34 6 -62q0 -74 -39 -148.5t-86 -129t-86 -135t-39 -166.5q0 -207 151 -207q70 0 109 46t39 109q0 49 -25.5 91.5t-70.5 58.5q33 86 131 86q76 0 128 -58.5t52 -158.5q0 -115 -90 -200t-295 -85 q-96 0 -168 22.5t-110 54.5t-61.5 77t-29.5 80.5t-6 76.5zM313 766q0 68 48.5 115t116 47t114.5 -47t47 -115t-47 -116t-114.5 -48t-116 48t-48.5 116z" />
<glyph unicode="&#xc0;" horiz-adv-x="1234" d="M-88 713q0 98 101.5 161.5t262.5 63.5q51 0 121 -6q113 266 262.5 435t317.5 169q86 0 164 -29v-1507h-297v743q-145 59 -281 72q-98 -387 -98 -735q0 -229 74 -313q-55 0 -89 3t-86.5 21.5t-82 53t-53 103t-23.5 167.5q0 303 147 704q-211 -12 -227 -108q10 0 26.5 -27 t16.5 -49q0 -31 -28.5 -49.5t-71.5 -18.5q-63 0 -109.5 39t-46.5 107zM588 903q141 -26 256 -69v555q-147 -94 -256 -486zM606 2048h215l142 -387h-154z" />
<glyph unicode="&#xc1;" horiz-adv-x="1234" d="M-88 713q0 98 101.5 161.5t262.5 63.5q51 0 121 -6q113 266 262.5 435t317.5 169q86 0 164 -29v-1507h-297v743q-145 59 -281 72q-98 -387 -98 -735q0 -229 74 -313q-55 0 -89 3t-86.5 21.5t-82 53t-53 103t-23.5 167.5q0 303 147 704q-211 -12 -227 -108q10 0 26.5 -27 t16.5 -49q0 -31 -28.5 -49.5t-71.5 -18.5q-63 0 -109.5 39t-46.5 107zM588 903q141 -26 256 -69v555q-147 -94 -256 -486zM813 1661l105 387h215l-166 -387h-154z" />
<glyph unicode="&#xc2;" horiz-adv-x="1234" d="M-88 713q0 98 101.5 161.5t262.5 63.5q51 0 121 -6q113 266 262.5 435t317.5 169q86 0 164 -29v-1507h-297v743q-145 59 -281 72q-98 -387 -98 -735q0 -229 74 -313q-55 0 -89 3t-86.5 21.5t-82 53t-53 103t-23.5 167.5q0 303 147 704q-211 -12 -227 -108q10 0 26.5 -27 t16.5 -49q0 -31 -28.5 -49.5t-71.5 -18.5q-63 0 -109.5 39t-46.5 107zM571 1661l353 387h43l204 -387h-65l-158 164l-286 -164h-91zM588 903q141 -26 256 -69v555q-147 -94 -256 -486z" />
<glyph unicode="&#xc3;" horiz-adv-x="1234" d="M-88 713q0 98 101.5 161.5t262.5 63.5q51 0 121 -6q113 266 262.5 435t317.5 169q86 0 164 -29v-1507h-297v743q-145 59 -281 72q-98 -387 -98 -735q0 -229 74 -313q-55 0 -89 3t-86.5 21.5t-82 53t-53 103t-23.5 167.5q0 303 147 704q-211 -12 -227 -108q10 0 26.5 -27 t16.5 -49q0 -31 -28.5 -49.5t-71.5 -18.5q-63 0 -109.5 39t-46.5 107zM518 1704q57 201 299 201q78 0 187.5 -34t164.5 -34q84 0 119 47l15 -2q-4 -76 -89.5 -140.5t-197.5 -64.5q-70 0 -188.5 38t-172.5 38q-78 0 -125 -53zM588 903q141 -26 256 -69v555 q-147 -94 -256 -486z" />
<glyph unicode="&#xc4;" horiz-adv-x="1234" d="M-88 713q0 98 101.5 161.5t262.5 63.5q51 0 121 -6q113 266 262.5 435t317.5 169q86 0 164 -29v-1507h-297v743q-145 59 -281 72q-98 -387 -98 -735q0 -229 74 -313q-55 0 -89 3t-86.5 21.5t-82 53t-53 103t-23.5 167.5q0 303 147 704q-211 -12 -227 -108q10 0 26.5 -27 t16.5 -49q0 -31 -28.5 -49.5t-71.5 -18.5q-63 0 -109.5 39t-46.5 107zM588 903q141 -26 256 -69v555q-147 -94 -256 -486zM633 1810q0 51 37 88t88 37t88 -36.5t37 -88t-37 -88t-88 -36.5q-53 0 -89 35.5t-36 88.5zM1001 1810q0 51 37 88t88.5 37t88 -36.5t36.5 -88 t-36.5 -88t-88.5 -36.5q-53 0 -89 35.5t-36 88.5z" />
<glyph unicode="&#xc5;" horiz-adv-x="1234" d="M-88 713q0 98 101.5 161.5t262.5 63.5q51 0 121 -6q113 266 262.5 435t317.5 169q86 0 164 -29v-1507h-297v743q-145 59 -281 72q-98 -387 -98 -735q0 -229 74 -313q-55 0 -89 3t-86.5 21.5t-82 53t-53 103t-23.5 167.5q0 303 147 704q-211 -12 -227 -108q10 0 26.5 -27 t16.5 -49q0 -31 -28.5 -49.5t-71.5 -18.5q-63 0 -109.5 39t-46.5 107zM588 903q141 -26 256 -69v555q-147 -94 -256 -486zM715 1808.5q0 67.5 45 115.5t125 48t116.5 -47t36.5 -113q0 -72 -41 -121t-118 -49q-76 0 -120 49.5t-44 117zM797 1808q0 -94 86 -94q80 0 80 92 q0 98 -80 99q-37 0 -61.5 -25t-24.5 -72z" />
<glyph unicode="&#xc6;" horiz-adv-x="1722" d="M20 719q0 86 103.5 149.5t249.5 63.5q61 0 131 -6q115 270 263 441t312 171q53 0 177 -20.5t200 -20.5q117 0 232 39q0 -2 -4.5 -45t-7.5 -54.5t-14 -44t-27.5 -45t-46 -24.5t-70.5 -12q-90 0 -269 65v-518h318l-11 -151h-307v-490h457v-217h-752v743q-145 61 -282 74 q-98 -387 -99 -729q0 -117 10.5 -186.5t22.5 -87t26.5 -27.5t16.5 -18q-53 4 -75.5 5t-67.5 9t-65.5 20.5t-50.5 38t-43 59t-23.5 87t-10.5 121.5q0 307 150 710q-104 -6 -160.5 -30.5t-66.5 -77.5q10 0 25 -27t15 -49q0 -68 -108 -68q-59 0 -103.5 40t-44.5 112zM694 901 q158 -30 260 -67v557q-147 -96 -260 -490z" />
<glyph unicode="&#xc7;" horiz-adv-x="1038" d="M98 717q0 119 14.5 228.5t53.5 219t97.5 190.5t154.5 131t217 50q166 0 279.5 -84t113.5 -240q0 -139 -110 -139q-72 0 -130 53q25 14 42.5 58.5t17.5 89.5q0 68 -40 117t-103 49q-129 0 -201 -205t-72 -485q0 -596 352 -596q113 0 208 58t147 157l51 -21 q-39 -160 -161 -257t-292 -118l-18 -108q61 16 104 16q154 0 154 -143q0 -86 -59.5 -135t-143.5 -49q-109 0 -231 57q25 65 66 65h1q45 0 92.5 -27.5t71.5 -27.5q20 0 32.5 20.5t12.5 47.5q0 37 -25.5 64.5t-72.5 27.5q-63 0 -100 -25l28 211q-264 2 -407.5 191.5 t-143.5 558.5z" />
<glyph unicode="&#xc8;" horiz-adv-x="915" d="M84 418q0 147 73.5 275t204.5 161q-186 117 -186 309q0 152 110.5 264.5t299.5 112.5q131 0 214 -61.5t83 -192.5q0 -76 -28 -127t-79 -51t-104 51q29 8 46 50t17 87q0 70 -40 96.5t-91 26.5q-86 0 -129 -63.5t-43 -159.5q0 -119 69.5 -212t203.5 -128 q-125 -29 -198 -152.5t-73 -263.5q0 -121 62.5 -200.5t183.5 -79.5q106 0 205.5 57.5t130.5 151.5l51 -21q-41 -180 -186.5 -282.5t-333.5 -102.5q-219 0 -341 133t-122 322zM291 2048h215l141 -387h-153z" />
<glyph unicode="&#xc9;" horiz-adv-x="915" d="M84 418q0 147 73.5 275t204.5 161q-186 117 -186 309q0 152 110.5 264.5t299.5 112.5q131 0 214 -61.5t83 -192.5q0 -76 -28 -127t-79 -51t-104 51q29 8 46 50t17 87q0 70 -40 96.5t-91 26.5q-86 0 -129 -63.5t-43 -159.5q0 -119 69.5 -212t203.5 -128 q-125 -29 -198 -152.5t-73 -263.5q0 -121 62.5 -200.5t183.5 -79.5q106 0 205.5 57.5t130.5 151.5l51 -21q-41 -180 -186.5 -282.5t-333.5 -102.5q-219 0 -341 133t-122 322zM518 1661l105 387h215l-166 -387h-154z" />
<glyph unicode="&#xca;" horiz-adv-x="915" d="M84 418q0 147 73.5 275t204.5 161q-186 117 -186 309q0 152 110.5 264.5t299.5 112.5q131 0 214 -61.5t83 -192.5q0 -76 -28 -127t-79 -51t-104 51q29 8 46 50t17 87q0 70 -40 96.5t-91 26.5q-86 0 -129 -63.5t-43 -159.5q0 -119 69.5 -212t203.5 -128 q-125 -29 -198 -152.5t-73 -263.5q0 -121 62.5 -200.5t183.5 -79.5q106 0 205.5 57.5t130.5 151.5l51 -21q-41 -180 -186.5 -282.5t-333.5 -102.5q-219 0 -341 133t-122 322zM272 1661l353 387h43l204 -387h-65l-158 164l-287 -164h-90z" />
<glyph unicode="&#xcb;" horiz-adv-x="915" d="M84 418q0 147 73.5 275t204.5 161q-186 117 -186 309q0 152 110.5 264.5t299.5 112.5q131 0 214 -61.5t83 -192.5q0 -76 -28 -127t-79 -51t-104 51q29 8 46 50t17 87q0 70 -40 96.5t-91 26.5q-86 0 -129 -63.5t-43 -159.5q0 -119 69.5 -212t203.5 -128 q-125 -29 -198 -152.5t-73 -263.5q0 -121 62.5 -200.5t183.5 -79.5q106 0 205.5 57.5t130.5 151.5l51 -21q-41 -180 -186.5 -282.5t-333.5 -102.5q-219 0 -341 133t-122 322zM303 1810q0 51 37 88t88 37t88 -36.5t37 -88t-37 -88t-88 -36.5t-88 35.5t-37 88.5zM672 1810 q0 51 36.5 88t88 37t88.5 -36.5t37 -88t-37 -88t-88.5 -36.5t-88 35.5t-36.5 88.5z" />
<glyph unicode="&#xcc;" horiz-adv-x="825" d="M37 1053q0 193 186.5 338t421.5 145q33 0 86 -4v-1532h-295v1389q-205 -98 -205 -345q0 -57 9.5 -104t19.5 -66.5t25.5 -43t17.5 -25.5q-266 0 -266 248zM301 2048h215l141 -387h-153z" />
<glyph unicode="&#xcd;" horiz-adv-x="825" d="M37 1053q0 193 186.5 338t421.5 145q33 0 86 -4v-1532h-295v1389q-205 -98 -205 -345q0 -57 9.5 -104t19.5 -66.5t25.5 -43t17.5 -25.5q-266 0 -266 248zM514 1661l104 387h216l-166 -387h-154z" />
<glyph unicode="&#xce;" horiz-adv-x="825" d="M37 1053q0 193 186.5 338t421.5 145q33 0 86 -4v-1532h-295v1389q-205 -98 -205 -345q0 -57 9.5 -104t19.5 -66.5t25.5 -43t17.5 -25.5q-266 0 -266 248zM272 1661l353 387h43l204 -387h-65l-158 164l-287 -164h-90z" />
<glyph unicode="&#xcf;" horiz-adv-x="825" d="M37 1053q0 193 186.5 338t421.5 145q33 0 86 -4v-1532h-295v1389q-205 -98 -205 -345q0 -57 9.5 -104t19.5 -66.5t25.5 -43t17.5 -25.5q-266 0 -266 248zM274 1810q0 51 37 88t88.5 37t88 -36.5t36.5 -88t-36.5 -88t-88 -36.5t-88.5 35.5t-37 88.5zM643 1810q0 51 37 88 t88 37t88 -36.5t37 -88t-37 -88t-88 -36.5t-88 35.5t-37 88.5z" />
<glyph unicode="&#xd0;" horiz-adv-x="1447" d="M37 1047q0 207 188.5 348t481.5 141q180 0 315 -58.5t215 -163t119 -236.5t39 -290q0 -190 -49.5 -372.5t-143.5 -308t-211 -125.5t-258 98v-80h-297v707h-78l9 151h69v445l297 40v-485h160l-8 -151h-152v-514q66 -39 119 -39q123 0 185.5 203.5t62.5 490.5 q0 293 -90 443.5t-332 150.5q-205 0 -325 -107.5t-120 -304.5q0 -43 6.5 -80t16.5 -61.5t19.5 -41t18.5 -28.5t11 -14q-268 0 -268 242z" />
<glyph unicode="&#xd1;" horiz-adv-x="1470" d="M41 1077q0 184 137 321.5t385 137.5q84 0 150 -29l477 -1085v1110h186v-1532h-282l-463 1020v-1020h-197v1389q-196 -94 -196 -330q0 -51 5 -90t14 -65.5t16.5 -41t20.5 -33.5l17 -24q-137 0 -203.5 64.5t-66.5 207.5zM518 1704q57 201 299 201q78 0 187.5 -34t164.5 -34 q84 0 119 47l15 -2q-4 -76 -89.5 -140.5t-197.5 -64.5q-70 0 -188.5 38t-172.5 38q-78 0 -125 -53z" />
<glyph unicode="&#xd2;" horiz-adv-x="1427" d="M35 1024q0 209 209 360.5t504 151.5q139 0 247.5 -39t178 -106.5t115.5 -164t64.5 -202.5t18.5 -231q0 -147 -26.5 -279.5t-85 -255.5t-172 -196.5t-269.5 -73.5q-219 0 -356 153.5t-137 495.5q0 121 18 239.5t58 231.5t117 182.5t177 69.5q54 -1 105 -17 q-80 -53 -125 -268t-45 -436q0 -139 20.5 -238.5t54 -145.5t65.5 -65.5t67 -19.5q117 0 182 197.5t65 478.5q0 180 -28.5 303t-83.5 184.5t-116.5 85t-145.5 23.5q-207 0 -344.5 -120t-137.5 -329q0 -104 56 -188q-250 0 -250 219zM565 2048h215l142 -387h-154z" />
<glyph unicode="&#xd3;" horiz-adv-x="1427" d="M35 1024q0 209 209 360.5t504 151.5q139 0 247.5 -39t178 -106.5t115.5 -164t64.5 -202.5t18.5 -231q0 -147 -26.5 -279.5t-85 -255.5t-172 -196.5t-269.5 -73.5q-219 0 -356 153.5t-137 495.5q0 121 18 239.5t58 231.5t117 182.5t177 69.5q54 -1 105 -17 q-80 -53 -125 -268t-45 -436q0 -139 20.5 -238.5t54 -145.5t65.5 -65.5t67 -19.5q117 0 182 197.5t65 478.5q0 180 -28.5 303t-83.5 184.5t-116.5 85t-145.5 23.5q-207 0 -344.5 -120t-137.5 -329q0 -104 56 -188q-250 0 -250 219zM758 1661l104 387h215l-166 -387h-153z " />
<glyph unicode="&#xd4;" horiz-adv-x="1427" d="M35 1024q0 209 209 360.5t504 151.5q139 0 247.5 -39t178 -106.5t115.5 -164t64.5 -202.5t18.5 -231q0 -147 -26.5 -279.5t-85 -255.5t-172 -196.5t-269.5 -73.5q-219 0 -356 153.5t-137 495.5q0 121 18 239.5t58 231.5t117 182.5t177 69.5q54 -1 105 -17 q-80 -53 -125 -268t-45 -436q0 -139 20.5 -238.5t54 -145.5t65.5 -65.5t67 -19.5q117 0 182 197.5t65 478.5q0 180 -28.5 303t-83.5 184.5t-116.5 85t-145.5 23.5q-207 0 -344.5 -120t-137.5 -329q0 -104 56 -188q-250 0 -250 219zM545 1661l352 387h43l205 -387h-66 l-157 164l-287 -164h-90z" />
<glyph unicode="&#xd5;" horiz-adv-x="1427" d="M35 1024q0 209 209 360.5t504 151.5q139 0 247.5 -39t178 -106.5t115.5 -164t64.5 -202.5t18.5 -231q0 -147 -26.5 -279.5t-85 -255.5t-172 -196.5t-269.5 -73.5q-219 0 -356 153.5t-137 495.5q0 121 18 239.5t58 231.5t117 182.5t177 69.5q54 -1 105 -17 q-80 -53 -125 -268t-45 -436q0 -139 20.5 -238.5t54 -145.5t65.5 -65.5t67 -19.5q117 0 182 197.5t65 478.5q0 180 -28.5 303t-83.5 184.5t-116.5 85t-145.5 23.5q-207 0 -344.5 -120t-137.5 -329q0 -104 56 -188q-250 0 -250 219zM426 1704q57 201 299 201q78 0 187.5 -34 t164.5 -34q84 0 119 47l14 -2q-4 -76 -89 -140.5t-197 -64.5q-70 0 -189 38t-172 38q-78 0 -125 -53z" />
<glyph unicode="&#xd6;" horiz-adv-x="1427" d="M35 1024q0 209 209 360.5t504 151.5q139 0 247.5 -39t178 -106.5t115.5 -164t64.5 -202.5t18.5 -231q0 -147 -26.5 -279.5t-85 -255.5t-172 -196.5t-269.5 -73.5q-219 0 -356 153.5t-137 495.5q0 121 18 239.5t58 231.5t117 182.5t177 69.5q54 -1 105 -17 q-80 -53 -125 -268t-45 -436q0 -139 20.5 -238.5t54 -145.5t65.5 -65.5t67 -19.5q117 0 182 197.5t65 478.5q0 180 -28.5 303t-83.5 184.5t-116.5 85t-145.5 23.5q-207 0 -344.5 -120t-137.5 -329q0 -104 56 -188q-250 0 -250 219zM514 1810q0 51 37 88t88 37t88 -36.5 t37 -88t-37 -88t-88 -36.5q-53 0 -89 35.5t-36 88.5zM883 1810q0 51 36.5 88t88 37t88.5 -36.5t37 -88t-37 -88t-88 -36.5q-53 0 -89 35.5t-36 88.5z" />
<glyph unicode="&#xd7;" horiz-adv-x="911" d="M88 336l236 194l-236 197l105 131l264 -219l264 219l102 -133l-235 -195l235 -192l-102 -133l-264 217l-264 -217z" />
<glyph unicode="&#xd8;" horiz-adv-x="1351" d="M236.5 1295.5q203.5 142.5 488.5 142.5q8 0 25.5 -1t25.5 -1v100h107v-113q438 -88 438 -680q0 -119 -23.5 -234.5t-72.5 -223t-137.5 -184t-204.5 -101.5v-145h-107v133q-215 0 -340 140t-125 452q0 117 20.5 232.5t61.5 222t116 173t171 66.5q47 0 96 -14v81 q-35 8 -80 9q-205 0 -340 -113t-135 -297q0 -66 12.5 -105.5t26.5 -58t14 -22.5q-241 0 -241 209q0 190 203.5 332.5zM606 580q0 -180 42 -302t128 -135v1108q-78 -63 -124 -264.5t-46 -406.5zM883 184q74 74 119 246.5t45 360.5q0 399 -164 509v-1116z" />
<glyph unicode="&#xd9;" horiz-adv-x="1579" d="M35 1051q0 197 196.5 341t468.5 144q47 0 101 -10v-1116q0 -106 58.5 -165t137.5 -59q82 0 140.5 58.5t58.5 165.5v1122h291v-1102q0 -211 -145.5 -327.5t-344 -116.5t-344 116.5t-145.5 327.5v987q-133 -39 -206 -135t-73 -238q0 -47 4.5 -83.5t14.5 -63.5t17 -40 t20.5 -31.5t15.5 -20.5q-266 0 -266 246zM723 2048h215l141 -387h-153z" />
<glyph unicode="&#xda;" horiz-adv-x="1579" d="M35 1051q0 197 196.5 341t468.5 144q47 0 101 -10v-1116q0 -106 58.5 -165t137.5 -59q82 0 140.5 58.5t58.5 165.5v1122h291v-1102q0 -211 -145.5 -327.5t-344 -116.5t-344 116.5t-145.5 327.5v987q-133 -39 -206 -135t-73 -238q0 -47 4.5 -83.5t14.5 -63.5t17 -40 t20.5 -31.5t15.5 -20.5q-266 0 -266 246zM877 1661l104 387h215l-166 -387h-153z" />
<glyph unicode="&#xdb;" horiz-adv-x="1579" d="M35 1051q0 197 196.5 341t468.5 144q47 0 101 -10v-1116q0 -106 58.5 -165t137.5 -59q82 0 140.5 58.5t58.5 165.5v1122h291v-1102q0 -211 -145.5 -327.5t-344 -116.5t-344 116.5t-145.5 327.5v987q-133 -39 -206 -135t-73 -238q0 -47 4.5 -83.5t14.5 -63.5t17 -40 t20.5 -31.5t15.5 -20.5q-266 0 -266 246zM651 1661l353 387h43l204 -387h-65l-158 164l-287 -164h-90z" />
<glyph unicode="&#xdc;" horiz-adv-x="1579" d="M35 1051q0 197 196.5 341t468.5 144q47 0 101 -10v-1116q0 -106 58.5 -165t137.5 -59q82 0 140.5 58.5t58.5 165.5v1122h291v-1102q0 -211 -145.5 -327.5t-344 -116.5t-344 116.5t-145.5 327.5v987q-133 -39 -206 -135t-73 -238q0 -47 4.5 -83.5t14.5 -63.5t17 -40 t20.5 -31.5t15.5 -20.5q-266 0 -266 246zM684 1810q0 51 37 88t88 37t88 -36.5t37 -88t-37 -88t-88 -36.5t-88 35.5t-37 88.5zM1053 1810q0 51 36.5 88t88 37t88.5 -36.5t37 -88t-37 -88t-88.5 -36.5t-88 35.5t-36.5 88.5z" />
<glyph unicode="&#xdd;" horiz-adv-x="1329" d="M35 1053q0 193 186.5 338t421.5 145q33 0 86 -4l293 -735l197 729h135l-264 -895v-631h-328v631l-309 768q-106 -43 -165 -135.5t-59 -219.5q0 -59 9.5 -105t19.5 -65.5t25.5 -41t17.5 -27.5q-266 0 -266 248zM881 1661l104 387h215l-166 -387h-153z" />
<glyph unicode="&#xde;" horiz-adv-x="1236" d="M39 831.5q0 131.5 99.5 247t252.5 178.5v238l297 41v-227q258 -10 400.5 -151.5t142.5 -332.5q0 -188 -129 -327.5t-357 -139.5h-57v-358h-297v1145q-158 -98 -158 -320q0 -88 15.5 -140t36 -76.5t22.5 -28.5q-137 0 -202.5 60t-65.5 191.5zM688 434h27q129 0 205.5 126 t76.5 286q0 152 -78.5 258t-230.5 113v-783z" />
<glyph unicode="&#xdf;" horiz-adv-x="921" d="M109 -512v1597q0 106 26.5 179t75.5 108t98 48.5t111 13.5q160 0 251 -77t91 -218q0 -186 -144 -265q293 -92 293 -419q0 -211 -95 -333t-206 -122q-18 0 -63 4v121q76 0 113.5 95t37.5 241q0 154 -49 235.5t-170 108.5l10 119q137 68 138 196q0 72 -33 102.5t-78 30.5 q-113 0 -113 -168v-1523z" />
<glyph unicode="&#xe0;" horiz-adv-x="1077" d="M61 463q0 98 21.5 195.5t67 183.5t123 139t180.5 53q154 0 192 -108v98h295v-696q0 -84 22.5 -113t84.5 -29q59 0 99 51.5t46 129.5h86q-12 -96 -43 -168t-66.5 -111t-82 -62.5t-82 -30.5t-74.5 -7q-197 0 -244 188q-86 -188 -264 -188q-150 0 -255.5 114.5t-105.5 360.5 zM291 1536h215l141 -387h-153zM360 481q0 -102 15.5 -167.5t43 -90t46 -31t47.5 -6.5q49 0 91 48.5t42 130.5v464q-28 78 -100 78q-90 0 -137.5 -133t-47.5 -293z" />
<glyph unicode="&#xe1;" horiz-adv-x="1077" d="M61 463q0 98 21.5 195.5t67 183.5t123 139t180.5 53q154 0 192 -108v98h295v-696q0 -84 22.5 -113t84.5 -29q59 0 99 51.5t46 129.5h86q-12 -96 -43 -168t-66.5 -111t-82 -62.5t-82 -30.5t-74.5 -7q-197 0 -244 188q-86 -188 -264 -188q-150 0 -255.5 114.5t-105.5 360.5 zM360 481q0 -102 15.5 -167.5t43 -90t46 -31t47.5 -6.5q49 0 91 49.5t42 131.5v462q-28 78 -100 78q-90 0 -137.5 -133t-47.5 -293zM453 1149l104 387h215l-166 -387h-153z" />
<glyph unicode="&#xe2;" horiz-adv-x="1077" d="M61 463q0 98 21.5 195.5t67 183.5t123 139t180.5 53q154 0 192 -108v98h295v-696q0 -84 22.5 -113t84.5 -29q59 0 99 51.5t46 129.5h86q-12 -96 -43 -168t-66.5 -111t-82 -62.5t-82 -30.5t-74.5 -7q-197 0 -244 188q-86 -188 -264 -188q-150 0 -255.5 114.5t-105.5 360.5 zM272 1149l353 387h43l204 -387h-65l-158 164l-287 -164h-90zM360 481q0 -102 15.5 -167.5t43 -90t46 -31t47.5 -6.5q49 0 91 48.5t42 130.5v464q-28 78 -100 78q-90 0 -137.5 -133t-47.5 -293z" />
<glyph unicode="&#xe3;" horiz-adv-x="1077" d="M61 463q0 98 21.5 195.5t67 183.5t123 139t180.5 53q154 0 192 -108v98h295v-696q0 -84 22.5 -113t84.5 -29q59 0 99 51.5t46 129.5h86q-12 -96 -43 -168t-66.5 -111t-82 -62.5t-82 -30.5t-74.5 -7q-197 0 -244 188q-86 -188 -264 -188q-150 0 -255.5 114.5t-105.5 360.5 zM170 1192q57 201 299 201q78 0 187.5 -34t164.5 -34q84 0 119 47l14 -2q-4 -76 -89 -140.5t-197 -64.5q-70 0 -189 38t-172 38q-78 0 -125 -53zM360 481q0 -102 15.5 -167.5t43 -90t46 -31t47.5 -6.5q49 0 91 49.5t42 131.5v462q-28 78 -100 78q-90 0 -137.5 -133 t-47.5 -293z" />
<glyph unicode="&#xe4;" horiz-adv-x="1077" d="M61 463q0 98 21.5 195.5t67 183.5t123 139t180.5 53q154 0 192 -108v98h295v-696q0 -84 22.5 -113t84.5 -29q59 0 99 51.5t46 129.5h86q-12 -96 -43 -168t-66.5 -111t-82 -62.5t-82 -30.5t-74.5 -7q-197 0 -244 188q-86 -188 -264 -188q-150 0 -255.5 114.5t-105.5 360.5 zM297 1298q0 51 37 88t88 37t88 -36.5t37 -88t-37 -88t-88 -36.5q-53 0 -89 35.5t-36 88.5zM360 481q0 -102 15.5 -167.5t43 -90t46 -31t47.5 -6.5q49 0 91 49.5t42 131.5v460q-23 80 -100 80q-90 0 -137.5 -133t-47.5 -293zM666 1298q0 51 36.5 88t88 37t88 -36.5t36.5 -88 t-36.5 -88t-87.5 -36.5q-53 0 -89 35.5t-36 88.5z" />
<glyph unicode="&#xe5;" horiz-adv-x="1077" d="M61 463q0 98 21.5 195.5t67 183.5t123 139t180.5 53q154 0 192 -108v98h295v-696q0 -84 22.5 -113t84.5 -29q59 0 99 51.5t46 129.5h86q-12 -96 -43 -168t-66.5 -111t-82 -62.5t-82 -30.5t-74.5 -7q-197 0 -244 188q-86 -188 -264 -188q-150 0 -255.5 114.5t-105.5 360.5 zM360 481q0 -102 15.5 -167.5t43 -90t46 -31t47.5 -6.5q49 0 91 49.5t42 131.5v460q-23 80 -100 80q-90 0 -137.5 -133t-47.5 -293zM406 1296.5q0 67.5 45 115.5t124.5 48t116.5 -47t37 -113q0 -72 -41 -121t-119 -49q-76 0 -119.5 49.5t-43.5 117zM487 1296q0 -94 86 -94 q80 0 80 92q0 98 -80 99q-37 0 -61.5 -25t-24.5 -72z" />
<glyph unicode="&#xe6;" horiz-adv-x="1323" d="M94 324q0 270 391 270q59 0 109 -8q12 49 12 116q0 92 -43 150.5t-121 58.5q-139 0 -227 -96l-70 59q55 74 119 111t106 43t115 6q166 0 283 -82q100 90 258 90q135 0 204.5 -67.5t69.5 -194.5q0 -147 -112.5 -251.5t-276.5 -114.5q2 -27 11 -66q23 -109 61.5 -148.5 t99.5 -39.5q94 0 160 28.5t98.5 65.5t85.5 113h70q-154 -375 -485 -375q-248 0 -342 192q-29 -92 -83 -144t-167 -52q-131 0 -228.5 76.5t-97.5 259.5zM381 319q0 -43 14.5 -71.5t37 -40.5t37.5 -16.5t32 -4.5q53 0 77.5 60.5t26.5 220.5q-14 2 -37 2q-86 0 -137 -41 t-51 -109zM905 512q100 6 168 90.5t68 190.5q0 141 -76 141q-74 0 -116 -128t-44 -294z" />
<glyph unicode="&#xe7;" horiz-adv-x="786" d="M63 459q0 76 10.5 149.5t39 152.5t73.5 138t122 97t175 38q143 0 207 -69.5t64 -159.5q0 -55 -21.5 -89t-58.5 -34q-41 0 -84 25q6 35 6 61q0 158 -84 158q-76 0 -117 -137.5t-41 -311.5q0 -182 51.5 -249.5t159.5 -67.5q111 0 179.5 52t138.5 155h69 q-137 -340 -417 -375l4 20l-82 47l-11 -71q-178 6 -280.5 119.5t-102.5 351.5zM336 -389q25 65 66 65h1q45 0 92.5 -27.5t71.5 -27.5q20 0 32.5 20.5t12.5 47.5q0 37 -25.5 64.5t-72.5 27.5q-63 0 -100 -25l32 232h19q25 0 70 4l-23 -127q61 16 104 16q154 0 154 -143 q0 -86 -59.5 -135t-143.5 -49q-109 0 -231 57z" />
<glyph unicode="&#xe8;" horiz-adv-x="786" d="M63 457q0 78 12.5 152.5t43.5 153.5t78 137t124.5 96t176.5 38q74 0 127 -21.5t78.5 -49t41 -65.5t17.5 -59.5t2 -41.5q0 -172 -119 -273.5t-283 -109.5q4 -139 48 -196.5t153 -57.5q113 0 181.5 51t138.5 156h69q-152 -379 -485 -379q-186 0 -295 114.5t-109 354.5z M209 1536h215l141 -387h-153zM362 512q102 8 173 89t71 194q0 66 -22.5 98.5t-55.5 32.5q-68 0 -112.5 -121t-53.5 -293z" />
<glyph unicode="&#xe9;" horiz-adv-x="786" d="M63 457q0 78 12.5 152.5t43.5 153.5t78 137t124.5 96t176.5 38q74 0 127 -21.5t78.5 -49t41 -65.5t17.5 -59.5t2 -41.5q0 -172 -119 -273.5t-283 -109.5q4 -139 48 -196.5t153 -57.5q113 0 181.5 51t138.5 156h69q-152 -379 -485 -379q-186 0 -295 114.5t-109 354.5z M362 512q102 8 173 89t71 194q0 66 -22.5 98.5t-55.5 32.5q-68 0 -112.5 -121t-53.5 -293zM393 1149l105 387h215l-166 -387h-154z" />
<glyph unicode="&#xea;" horiz-adv-x="786" d="M63 457q0 78 12.5 152.5t43.5 153.5t78 137t124.5 96t176.5 38q74 0 127 -21.5t78.5 -49t41 -65.5t17.5 -59.5t2 -41.5q0 -172 -119 -273.5t-283 -109.5q4 -139 48 -196.5t153 -57.5q113 0 181.5 51t138.5 156h69q-152 -379 -485 -379q-186 0 -295 114.5t-109 354.5z M197 1149l352 387h43l205 -387h-66l-158 164l-286 -164h-90zM362 512q102 8 173 89t71 194q0 66 -22.5 98.5t-55.5 32.5q-68 0 -112.5 -121t-53.5 -293z" />
<glyph unicode="&#xeb;" horiz-adv-x="786" d="M63 457q0 78 12.5 152.5t43.5 153.5t78 137t124.5 96t176.5 38q74 0 127 -21.5t78.5 -49t41 -65.5t17.5 -59.5t2 -41.5q0 -172 -119 -273.5t-283 -109.5q4 -139 48 -196.5t153 -57.5q113 0 181.5 51t138.5 156h69q-152 -379 -485 -379q-186 0 -295 114.5t-109 354.5z M213 1298q0 51 37 88t88 37t88 -36.5t37 -88t-37 -88t-88 -36.5t-88 35.5t-37 88.5zM362 512q102 8 173 89t71 194q0 66 -22.5 98.5t-55.5 32.5q-68 0 -112.5 -121t-53.5 -293zM582 1298q0 51 36.5 88t88 37t88 -36.5t36.5 -88t-36.5 -88t-88 -36.5t-88 35.5t-36.5 88.5z " />
<glyph unicode="&#xec;" horiz-adv-x="546" d="M-25 1536h215l142 -387h-154zM96 305v719h295v-696q0 -84 22.5 -113t84.5 -29q59 0 99 51.5t46 129.5h86q-12 -96 -43 -168t-66.5 -111t-81.5 -62.5t-82 -30.5t-75 -7q-285 0 -285 317z" />
<glyph unicode="&#xed;" horiz-adv-x="546" d="M96 305v719h295v-696q0 -84 22.5 -113t84.5 -29q59 0 99 51.5t46 129.5h86q-12 -96 -43 -168t-66.5 -111t-81.5 -62.5t-82 -30.5t-75 -7q-285 0 -285 317zM176 1149l105 387h215l-166 -387h-154z" />
<glyph unicode="&#xee;" horiz-adv-x="546" d="M-57 1149l352 387h43l205 -387h-66l-158 164l-286 -164h-90zM96 305v719h295v-696q0 -84 22.5 -113t84.5 -29q59 0 99 51.5t46 129.5h86q-12 -96 -43 -168t-66.5 -111t-81.5 -62.5t-82 -30.5t-75 -7q-285 0 -285 317z" />
<glyph unicode="&#xef;" horiz-adv-x="546" d="M-53 1298q0 51 36.5 88t88 37t88.5 -36.5t37 -88t-37 -88t-88.5 -36.5t-88 35.5t-36.5 88.5zM96 305v719h295v-696q0 -84 22.5 -113t84.5 -29q59 0 99 51.5t46 129.5h86q-12 -96 -43 -168t-66.5 -111t-81.5 -62.5t-82 -30.5t-75 -7q-285 0 -285 317zM315 1298q0 51 37 88 t88.5 37t88 -36.5t36.5 -88t-36.5 -88t-88 -36.5t-88.5 35.5t-37 88.5z" />
<glyph unicode="&#xf0;" horiz-adv-x="1101" d="M86 463q0 98 21.5 195.5t66.5 183.5t123 139t180 53q160 0 193 -90v49q0 109 -13 185l-151 -25l-12 80l141 24q-35 84 -123 177h92q133 -66 207 -146l154 27l18 -84l-113 -19q95 -145 95 -362v-522q0 -82 20.5 -112t83.5 -30q111 0 129 181h86q-14 -96 -43 -166 t-62.5 -108t-77.5 -59.5t-78 -27.5t-73 -6q-176 0 -239 176q-86 -188 -265 -188q-150 0 -255 114.5t-105 360.5zM385 481q0 -102 15.5 -167.5t43 -90t46 -31t47.5 -6.5q49 0 91 49.5t42 131.5v479q-35 61 -101 61q-90 0 -137 -133t-47 -293z" />
<glyph unicode="&#xf1;" d="M96 0v1024h295v-106q75 114 217 114h2q287 0 287 -377q0 -37 -4 -147.5t-4 -145.5q0 -94 20.5 -135t79.5 -41q66 0 93.5 44t47.5 137h87q-16 -119 -48 -198t-76 -117t-86 -51t-94 -13q-299 0 -299 383q0 25 2 122.5t2 124.5q0 227 -106 228q-104 0 -121 -189v-657h-295z M104 1192q57 201 299 201q78 0 187.5 -34t165.5 -34q83 0 118 47l15 -2q-4 -76 -89 -140.5t-198 -64.5q-70 0 -188.5 38t-171.5 38q-78 0 -125 -53z" />
<glyph unicode="&#xf2;" horiz-adv-x="899" d="M61 451q0 98 19.5 191t66 186.5t137.5 149.5t216 56q287 0 334 -323h14q55 0 138 36.5t142 86.5l31 -56q-82 -121 -317 -168q2 -18 2 -55q0 -258 -95.5 -412.5t-304.5 -154.5q-168 0 -275.5 110.5t-107.5 352.5zM233 1536h216l141 -387h-154zM362 471q1 -291 140 -291 q84 0 125 106.5t41 284.5v31q-80 16 -80 103q0 80 51 96q-35 110 -108 110h-1q-82 0 -125 -136t-43 -304z" />
<glyph unicode="&#xf3;" horiz-adv-x="899" d="M61 451q0 98 19.5 191t66 186.5t137.5 149.5t216 56q287 0 334 -323h14q55 0 138 36.5t142 86.5l31 -56q-82 -121 -317 -168q2 -18 2 -55q0 -258 -95.5 -412.5t-304.5 -154.5q-168 0 -275.5 110.5t-107.5 352.5zM362 471q1 -291 140 -291q84 0 125 106.5t41 284.5v31 q-80 16 -80 103q0 80 51 96q-35 110 -108 110h-1q-82 0 -125 -136t-43 -304zM420 1149l104 387h215l-166 -387h-153z" />
<glyph unicode="&#xf4;" horiz-adv-x="899" d="M61 451q0 98 19.5 191t66 186.5t137.5 149.5t216 56q287 0 334 -323h14q55 0 138 36.5t142 86.5l31 -56q-82 -121 -317 -168q2 -18 2 -55q0 -258 -95.5 -412.5t-304.5 -154.5q-168 0 -275.5 110.5t-107.5 352.5zM178 1149l352 387h43l205 -387h-65l-158 164l-287 -164 h-90zM362 471q1 -291 140 -291q84 0 125 106.5t41 284.5v31q-80 16 -80 103q0 80 51 96q-35 110 -108 110h-1q-82 0 -125 -136t-43 -304z" />
<glyph unicode="&#xf5;" horiz-adv-x="899" d="M61 451q0 98 19.5 191t66 186.5t137.5 149.5t216 56q287 0 334 -323h14q55 0 138 36.5t142 86.5l31 -56q-82 -121 -317 -168q2 -18 2 -55q0 -258 -95.5 -412.5t-304.5 -154.5q-168 0 -275.5 110.5t-107.5 352.5zM92 1192q57 201 299 201q78 0 187.5 -34t164.5 -34 q84 0 119 47l15 -2q-4 -76 -89.5 -140.5t-197.5 -64.5q-70 0 -188.5 38t-172.5 38q-78 0 -125 -53zM362 471q1 -291 140 -291q84 0 125 106.5t41 284.5v31q-80 16 -80 103q0 80 51 96q-35 110 -108 110h-1q-82 0 -125 -136t-43 -304z" />
<glyph unicode="&#xf6;" horiz-adv-x="899" d="M61 451q0 98 19.5 191t66 186.5t137.5 149.5t216 56q287 0 334 -323h14q55 0 138 36.5t142 86.5l31 -56q-82 -121 -317 -168q2 -18 2 -55q0 -258 -95.5 -412.5t-304.5 -154.5q-168 0 -275.5 110.5t-107.5 352.5zM180 1298q0 51 37 88t88 37t88 -36.5t37 -88t-37 -88 t-88 -36.5t-88 35.5t-37 88.5zM362 471q1 -291 140 -291q84 0 125 106.5t41 284.5v31q-80 16 -80 103q0 80 51 96q-35 110 -108 110h-1q-82 0 -125 -136t-43 -304zM549 1298q0 51 37 88t88 37t88 -36.5t37 -88t-37 -88t-88 -36.5t-88 35.5t-37 88.5z" />
<glyph unicode="&#xf7;" horiz-adv-x="847" d="M61 422v162h717v-162h-717zM307 161.5q0 67.5 47 116t115 48.5t116 -48.5t48 -116t-48 -114.5t-116 -47t-115 47t-47 114.5zM307 847.5q0 67.5 47 116t115 48.5t116 -48.5t48 -116t-48 -114.5t-116 -47t-115 47t-47 114.5z" />
<glyph unicode="&#xf8;" horiz-adv-x="899" d="M61 457q0 94 19.5 184t61.5 180t125 147.5t194 63.5v207h104v-213q201 -39 256 -295q133 14 262 123h66q-31 -63 -118 -127.5t-193 -97.5q6 -51 6 -113q0 -205 -75 -342t-202 -174v-211h-106v199q-182 4 -291 115.5t-109 353.5zM362 475q0 -178 41 -236.5t113 -58.5 q66 0 109 109.5t43 271.5q0 8 -1 23.5t-1 21.5q-88 12 -88 123q0 35 17 59.5t42 26.5q-35 96 -109 96q-76 0 -121 -139t-45 -297z" />
<glyph unicode="&#xf9;" d="M96 305v719h295v-696q0 -141 84 -142q55 0 92 51.5t37 129.5v657h295v-696q0 -78 20.5 -110t73.5 -32q139 0 158 181h86q-12 -96 -43 -168t-66.5 -111t-82 -62.5t-83 -30.5t-75.5 -7q-201 0 -244 194q-76 -194 -270 -194h-2q-274 0 -275 317zM223 1536h215l142 -387h-154 z" />
<glyph unicode="&#xfa;" d="M96 305v719h295v-696q0 -141 84 -142q55 0 92 51.5t37 129.5v657h295v-696q0 -78 20.5 -110t73.5 -32q139 0 158 181h86q-12 -96 -43 -168t-66.5 -111t-82 -62.5t-83 -30.5t-75.5 -7q-201 0 -244 194q-76 -194 -270 -194h-2q-274 0 -275 317zM420 1149l104 387h215 l-166 -387h-153z" />
<glyph unicode="&#xfb;" d="M96 305v719h295v-696q0 -141 84 -142q55 0 92 51.5t37 129.5v657h295v-696q0 -78 20.5 -110t73.5 -32q139 0 158 181h86q-12 -96 -43 -168t-66.5 -111t-82 -62.5t-83 -30.5t-75.5 -7q-201 0 -244 194q-76 -194 -270 -194h-2q-274 0 -275 317zM195 1149l352 387h43 l205 -387h-66l-158 164l-286 -164h-90z" />
<glyph unicode="&#xfc;" d="M96 305v719h295v-696q0 -141 84 -142q55 0 92 51.5t37 129.5v657h295v-696q0 -78 20.5 -110t73.5 -32q139 0 158 181h86q-12 -96 -43 -168t-66.5 -111t-82 -62.5t-83 -30.5t-75.5 -7q-201 0 -244 194q-76 -194 -270 -194h-2q-274 0 -275 317zM195 1298q0 51 36.5 88 t88 37t88 -36.5t36.5 -88t-36.5 -88t-88.5 -36.5q-53 0 -88.5 35.5t-35.5 88.5zM563 1298q0 51 37 88t88 37t88 -36.5t37 -88t-37 -88t-88 -36.5q-53 0 -89 35.5t-36 88.5z" />
<glyph unicode="&#xfd;" horiz-adv-x="995" d="M96 305v719h295v-696q0 -141 84 -142q53 0 87 50.5t40 130.5v657h295v-950q90 35 136 99.5t61 193.5h86q-16 -182 -92 -265.5t-191 -119.5v-146q0 -104 -25.5 -176t-69.5 -107.5t-90 -50t-100 -14.5q-121 0 -202.5 63.5t-81.5 167.5q0 180 274 273v112 q-79 -116 -228 -116h-3q-274 0 -275 317zM418 1149l104 387h215l-166 -387h-153zM436 -262q0 -37 26.5 -63.5t57.5 -26.5q82 0 82 182v59q-166 -69 -166 -151z" />
<glyph unicode="&#xfe;" horiz-adv-x="968" d="M-63 1434h92q76 -37 125 -71t103 -90t85 -139t41 -194q84 94 227 94q154 0 250 -121.5t96 -400.5q0 -94 -18 -181t-59 -167t-118 -128t-181 -48q-137 0 -193 75v-501l-293 -74v1505q0 154 -32.5 250t-124.5 191zM387 219q31 -53 92 -53q70 0 115 63.5t60.5 142.5 t15.5 169q0 346 -160 346q-37 0 -72 -29t-51 -80v-559z" />
<glyph unicode="&#xff;" horiz-adv-x="995" d="M96 305v719h295v-696q0 -141 84 -142q53 0 87 50.5t40 130.5v657h295v-950q90 35 136 99.5t61 193.5h86q-16 -182 -92 -265.5t-191 -119.5v-146q0 -104 -25.5 -176t-69.5 -107.5t-90 -50t-100 -14.5q-121 0 -202.5 63.5t-81.5 167.5q0 180 274 273v112 q-79 -116 -228 -116h-3q-274 0 -275 317zM193 1298q0 51 36.5 88t88 37t88 -36.5t36.5 -88t-36.5 -88t-88 -36.5t-88 35.5t-36.5 88.5zM436 -262q0 -37 26.5 -63.5t57.5 -26.5q82 0 82 182v59q-166 -69 -166 -151zM561 1298q0 51 37 88t88 37t88 -36.5t37 -88t-37 -88 t-88 -36.5t-88 35.5t-37 88.5z" />
<glyph unicode="&#x104;" horiz-adv-x="1234" d="M-88 713q0 98 101.5 161.5t262.5 63.5q51 0 121 -6q113 266 262.5 435t317.5 169q86 0 164 -29v-1507h-78l18 10h-143l-10 -10h-84v743q-145 59 -281 72q-98 -387 -98 -735q0 -229 74 -313q-55 0 -89 3t-86.5 21.5t-82 53t-53 103t-23.5 167.5q0 303 147 704 q-211 -12 -227 -108q10 0 26.5 -27t16.5 -49q0 -31 -28.5 -49.5t-71.5 -18.5q-63 0 -109.5 39t-46.5 107zM588 903q141 -26 256 -69v555q-147 -94 -256 -486zM829 -203q0 104 99 203h135q-31 -20 -53.5 -61t-22.5 -82q0 -47 28.5 -89t76.5 -42q16 0 35.5 8t28.5 14 t33.5 25.5t27.5 21.5l8 -63q-88 -127 -199 -127q-88 0 -142.5 60t-54.5 132z" />
<glyph unicode="&#x105;" horiz-adv-x="1077" d="M61 463q0 98 21.5 195.5t67 183.5t123 139t180.5 53q164 0 192 -116v106h295v-696q0 -80 23.5 -117t85.5 -37q106 0 125 193h86q-39 -270 -211 -357q-29 -14 -54.5 -59t-25.5 -96q0 -45 28.5 -87t75.5 -42q16 0 35.5 8t31 15t33 24.5t25.5 21.5q2 -33 10 -63 q-6 -6 -25.5 -31t-31.5 -36t-34.5 -28.5t-48.5 -24.5t-56 -7q-90 0 -145.5 60.5t-55.5 129.5q0 96 88 195q-164 16 -213 184q-86 -186 -264 -186q-150 0 -255.5 114.5t-105.5 360.5zM360 481q0 -102 15.5 -167.5t43 -90t46 -31t47.5 -6.5q49 0 91 49.5t42 131.5v469 q-26 71 -100 71q-90 0 -137.5 -133t-47.5 -293z" />
<glyph unicode="&#x106;" d="M96 717q0 119 14.5 228.5t53.5 219t97 190.5t154.5 131t217.5 50q166 0 279.5 -84t113.5 -240q0 -139 -111 -139q-72 0 -129 53q25 14 42.5 58.5t17.5 89.5q0 68 -40 117t-104 49q-129 0 -200.5 -205t-71.5 -485q0 -596 352 -596q115 0 209.5 58.5t145.5 156.5l51 -21 q-43 -180 -189.5 -280.5t-345.5 -100.5q-266 0 -411.5 190.5t-145.5 559.5zM610 1661l105 387h215l-166 -387h-154z" />
<glyph unicode="&#x107;" horiz-adv-x="786" d="M63 459q0 76 10.5 149.5t39 152.5t73.5 138t122 97t175 38q143 0 207 -69.5t64 -159.5q0 -55 -21.5 -89t-58.5 -34q-41 0 -84 25q6 35 6 61q0 158 -84 158q-76 0 -117 -137.5t-41 -311.5q0 -182 51.5 -249.5t159.5 -67.5q111 0 179.5 52t138.5 155h69 q-152 -379 -487 -379q-184 0 -293 113.5t-109 357.5zM430 1149l105 387h215l-166 -387h-154z" />
<glyph unicode="&#x108;" d="M96 717q0 119 14.5 228.5t53.5 219t97 190.5t154.5 131t217.5 50q166 0 279.5 -84t113.5 -240q0 -139 -111 -139q-72 0 -129 53q25 14 42.5 58.5t17.5 89.5q0 68 -40 117t-104 49q-129 0 -200.5 -205t-71.5 -485q0 -596 352 -596q115 0 209.5 58.5t145.5 156.5l51 -21 q-43 -180 -189.5 -280.5t-345.5 -100.5q-266 0 -411.5 190.5t-145.5 559.5zM334 1661l352 387h43l205 -387h-66l-157 164l-287 -164h-90z" />
<glyph unicode="&#x109;" horiz-adv-x="786" d="M63 459q0 76 10.5 149.5t39 152.5t73.5 138t122 97t175 38q143 0 207 -69.5t64 -159.5q0 -55 -21.5 -89t-58.5 -34q-41 0 -84 25q6 35 6 61q0 158 -84 158q-76 0 -117 -137.5t-41 -311.5q0 -182 51.5 -249.5t159.5 -67.5q111 0 179.5 52t138.5 155h69 q-152 -379 -487 -379q-184 0 -293 113.5t-109 357.5zM199 1149l352 387h43l205 -387h-66l-158 164l-286 -164h-90z" />
<glyph unicode="&#x10c;" d="M96 717q0 119 14.5 228.5t53.5 219t97 190.5t154.5 131t217.5 50q166 0 279.5 -84t113.5 -240q0 -139 -111 -139q-72 0 -129 53q25 14 42.5 58.5t17.5 89.5q0 68 -40 117t-104 49q-129 0 -200.5 -205t-71.5 -485q0 -596 352 -596q115 0 209.5 58.5t145.5 156.5l51 -21 q-43 -180 -189.5 -280.5t-345.5 -100.5q-266 0 -411.5 190.5t-145.5 559.5zM414 2048h65l158 -164l287 164h90l-352 -387h-44z" />
<glyph unicode="&#x10d;" horiz-adv-x="786" d="M63 459q0 76 10.5 149.5t39 152.5t73.5 138t122 97t175 38q143 0 207 -69.5t64 -159.5q0 -55 -21.5 -89t-58.5 -34q-41 0 -84 25q6 35 6 61q0 158 -84 158q-76 0 -117 -137.5t-41 -311.5q0 -182 51.5 -249.5t159.5 -67.5q111 0 179.5 52t138.5 155h69 q-152 -379 -487 -379q-184 0 -293 113.5t-109 357.5zM270 1536h66l158 -164l286 164h90l-352 -387h-43z" />
<glyph unicode="&#x111;" horiz-adv-x="1077" d="M61 463q0 98 21.5 195.5t67 183.5t123 139t180.5 53q154 0 192 -108v264h-65v82h65v121l295 41v-162h129v-82h-129v-862q0 -84 22.5 -113t84.5 -29q59 0 99 51.5t46 129.5h86q-12 -96 -43 -168t-66.5 -111t-82 -62.5t-82 -30.5t-74.5 -7q-197 0 -244 188 q-86 -188 -264 -188q-150 0 -255.5 114.5t-105.5 360.5zM360 481q0 -102 15.5 -167.5t43 -90t46 -31t47.5 -6.5q49 0 91 49.5t42 131.5v462q-28 78 -100 78q-90 0 -137.5 -133t-47.5 -293z" />
<glyph unicode="&#x118;" horiz-adv-x="919" d="M86 418q0 147 73.5 275t205.5 161q-186 117 -187 309q0 152 110.5 264.5t299.5 112.5q131 0 214 -61.5t83 -192.5q0 -76 -28 -127t-79 -51t-104 51q29 8 46 50t17 87q0 70 -40 96.5t-91 26.5q-86 0 -129 -63.5t-43 -159.5q0 -119 69.5 -212t203.5 -128 q-125 -29 -198 -152.5t-73 -263.5q0 -121 62.5 -200.5t183.5 -79.5q106 0 205.5 57.5t130.5 151.5l51 -21q-33 -137 -127 -230t-227 -132q-57 -53 -58 -129q0 -47 29 -89t76 -42q16 0 35.5 8t29 14t34 25.5t26.5 21.5l8 -63q-88 -127 -199 -127q-88 0 -142 60.5t-54 131.5 q0 82 65 166h-16q-219 0 -341 133t-122 322z" />
<glyph unicode="&#x119;" horiz-adv-x="784" d="M68 467q0 96 20.5 188.5t63.5 183.5t129 147t202 56q78 0 133.5 -20.5t82 -47t42 -68.5t17.5 -65.5t2 -56.5q0 -150 -111.5 -255t-275.5 -115q20 -154 61 -204t135 -50q111 0 181.5 52t136.5 155h69q-35 -90 -83 -160t-90 -105l-79 -69q-38 -33 -60.5 -70t-22.5 -88 q0 -59 29.5 -104t78.5 -45q16 0 35.5 8t31 16t30.5 24l28 21q2 -29 8 -63q-4 -4 -20.5 -24.5t-25.5 -30t-27.5 -26t-34 -24.5t-40 -15t-48.5 -7q-90 0 -144.5 60.5t-54.5 129.5q0 102 92 199q-37 -6 -84 -6q-190 0 -298.5 114.5t-108.5 364.5zM367 512q100 6 166.5 89 t66.5 194q0 139 -75.5 139t-116.5 -127t-41 -295z" />
<glyph unicode="&#x11e;" horiz-adv-x="1214" d="M68 860q0 299 153.5 487.5t433.5 188.5q182 0 315.5 -81t133.5 -243q0 -139 -113 -139q-94 0 -151 53q27 8 42 50.5t15 80.5q0 23 -6 48.5t-22.5 55.5t-53.5 48t-88 18q-158 0 -251 -162.5t-93 -394.5q0 -223 85 -346t194 -123q102 0 165.5 118t71.5 339l242 -2v-852 q0 -82 -20.5 -153.5t-65.5 -136t-130 -101.5t-200 -37q-180 0 -268 84t-88 207q0 106 61.5 189t187.5 83q178 0 179 -209q-41 43 -103 43q-74 0 -107.5 -35.5t-33.5 -89.5q0 -68 44 -119t120 -51q72 0 113.5 52.5t41.5 158.5v508q-98 -174 -309 -174q-215 0 -355 172 t-140 465zM209 1952h162q0 -88 63.5 -136.5t149.5 -48.5t149.5 48.5t63.5 136.5h155q0 -131 -109.5 -204t-261 -73t-262 73t-110.5 204z" />
<glyph unicode="&#x11f;" horiz-adv-x="1038" d="M55 481q0 98 21.5 190.5t66.5 176.5t128 135t194 51q139 0 178 -102v92h295v-950q90 35 136 99.5t61 193.5h86q-16 -182 -92 -265.5t-191 -119.5v-146q0 -104 -25.5 -177t-70.5 -107.5t-90 -49t-99 -14.5q-121 0 -202.5 63.5t-81.5 167.5q0 180 274 273v172 q-80 -135 -231 -135q-145 0 -251 111.5t-106 340.5zM162 1440h162q0 -88 63.5 -136.5t149.5 -48.5t149.5 48.5t63.5 136.5h155q0 -131 -109.5 -204t-261 -73t-262 73t-110.5 204zM354 492q0 -264 135 -265q63 0 104.5 42t49.5 110v457q-8 27 -33.5 49t-64.5 22 q-63 0 -108.5 -66.5t-64 -157.5t-18.5 -191zM477 -264q0 -37 26.5 -62.5t55.5 -25.5q39 0 61.5 47t22.5 135v59q-166 -67 -166 -153z" />
<glyph unicode="&#x131;" horiz-adv-x="546" d="M96 305v719h295v-696q0 -84 22.5 -113t84.5 -29q59 0 99 51.5t46 129.5h86q-12 -96 -43 -168t-66.5 -111t-81.5 -62.5t-82 -30.5t-75 -7q-285 0 -285 317z" />
<glyph unicode="&#x141;" horiz-adv-x="1011" d="M37 1022q0 203 185.5 348.5t422.5 145.5q33 -1 86 -5v-557l211 160l19 -125l-230 -168v-782q78 -16 336 -139t408 -123q90 0 161 33q2 -12 2 -37q0 -104 -60 -194.5t-167 -90.5q-84 0 -204 72.5t-224 159.5t-242.5 160t-259.5 73q-31 0 -47 -2v653l-110 -80l-19 109 l129 96v639q-203 -100 -203 -352q0 -31 3.5 -57.5t8.5 -49t11 -39t14 -32t13.5 -23.5t13.5 -18.5t8 -12.5q-127 0 -196.5 59.5t-69.5 178.5z" />
<glyph unicode="&#x142;" horiz-adv-x="546" d="M-29 629l125 92v672l295 41v-498l213 158l19 -125l-232 -170v-471q0 -84 22.5 -113t84.5 -29q59 0 99 51.5t46 129.5h86q-12 -96 -43 -168t-66.5 -111t-81.5 -62.5t-82 -30.5t-75 -7q-285 0 -285 317v279l-100 -74z" />
<glyph unicode="&#x143;" horiz-adv-x="1470" d="M41 1077q0 184 137 321.5t385 137.5q84 0 150 -29l477 -1085v1110h186v-1532h-282l-463 1020v-1020h-197v1389q-196 -94 -196 -330q0 -51 5 -90t14 -65.5t16.5 -41t20.5 -33.5l17 -24q-137 0 -203.5 64.5t-66.5 207.5zM848 1661l104 387h215l-166 -387h-153z" />
<glyph unicode="&#x144;" d="M96 0v1024h295v-106q75 114 217 114h2q287 0 287 -377q0 -37 -4 -147.5t-4 -145.5q0 -94 20.5 -135t79.5 -41q66 0 93.5 44t47.5 137h87q-16 -119 -48 -198t-76 -117t-86 -51t-94 -13q-299 0 -299 383q0 25 2 122.5t2 124.5q0 227 -106 228q-104 0 -121 -189v-657h-295z M469 1149l104 387h215l-165 -387h-154z" />
<glyph unicode="&#x150;" horiz-adv-x="1427" d="M35 1024q0 209 209 360.5t504 151.5q139 0 247.5 -39t178 -106.5t115.5 -164t64.5 -202.5t18.5 -231q0 -147 -26.5 -279.5t-85 -255.5t-172 -196.5t-269.5 -73.5q-219 0 -356 153.5t-137 495.5q0 121 18 239.5t58 231.5t117 182.5t177 69.5q54 -1 105 -17 q-80 -53 -125 -268t-45 -436q0 -139 20.5 -238.5t54 -145.5t65.5 -65.5t67 -19.5q117 0 182 197.5t65 478.5q0 180 -28.5 303t-83.5 184.5t-116.5 85t-145.5 23.5q-207 0 -344.5 -120t-137.5 -329q0 -104 56 -188q-250 0 -250 219zM672 1661l104 387h195l-166 -387h-133z M938 1661l104 387h195l-166 -387h-133z" />
<glyph unicode="&#x151;" horiz-adv-x="899" d="M61 451q0 98 19.5 191t66 186.5t137.5 149.5t216 56q287 0 334 -323h14q55 0 138 36.5t142 86.5l31 -56q-82 -121 -317 -168q2 -18 2 -55q0 -258 -95.5 -412.5t-304.5 -154.5q-168 0 -275.5 110.5t-107.5 352.5zM334 1149l104 387h195l-166 -387h-133zM362 471 q1 -291 140 -291q84 0 125 106.5t41 284.5v31q-80 16 -80 103q0 80 51 96q-35 110 -108 110h-1q-82 0 -125 -136t-43 -304zM600 1149l105 387h194l-166 -387h-133z" />
<glyph unicode="&#x152;" horiz-adv-x="1781" d="M35 1024q0 209 209 360.5t504 151.5q135 0 239 -37q94 37 252 37q35 0 154.5 -12.5t189.5 -12.5q109 0 180 25q0 -4 -4 -46t-7 -57.5t-13 -50t-23.5 -49t-38 -29t-57.5 -14.5q-88 0 -236.5 34t-183.5 38q156 -174 170 -504h270v-151h-270q-18 -307 -133 -490h504v-217 h-791q-78 -12 -131 -12q-219 0 -356 153.5t-137 495.5q0 121 18 239.5t58 231.5t117 182.5t177 69.5q53 0 105 -17q-80 -53 -125 -268t-45 -436q0 -139 20.5 -238.5t54 -145.5t65.5 -65.5t67 -19.5q117 0 182 197.5t65 478.5q0 180 -28.5 303t-83.5 184.5t-116.5 85 t-145.5 23.5q-207 0 -344.5 -120t-137.5 -329q0 -104 56 -188q-250 0 -250 219z" />
<glyph unicode="&#x153;" horiz-adv-x="1368" d="M66 526q0 256 114.5 387t298.5 131q193 0 281 -174q92 172 276 172q152 0 234 -68.5t82 -201.5q0 -147 -118 -243.5t-265 -116.5q10 -147 73.5 -206t145.5 -59q80 0 169 81t118 190h92q-61 -180 -183 -299t-307 -119q-211 0 -319 186q-47 -96 -121 -147t-158 -51 q-238 0 -325.5 128t-87.5 410zM344 514q0 -190 49 -259t139 -69q72 0 107 80t35 207q0 53 -6 109q-51 0 -80 34.5t-29 83.5q0 90 62 117q-33 106 -107 107q-61 0 -102 -72t-54.5 -158t-13.5 -180zM967 510q119 2 190.5 83t71.5 185q0 47 -23.5 101.5t-77.5 54.5 q-74 0 -114.5 -132t-46.5 -292z" />
<glyph unicode="&#x15a;" horiz-adv-x="1083" d="M68 340q0 137 71.5 221t173.5 84q59 0 117.5 -31.5t85.5 -103.5q-207 0 -207 -184q0 -100 62.5 -149.5t167.5 -49.5q102 0 153 49t51 160q0 100 -44 180t-111 129l-144 103l-145 105q-68 50 -112 132t-44 186q0 174 118 269.5t325 95.5q47 0 90 -6t109.5 -28.5t107.5 -80 t41 -143.5q0 -78 -35 -126t-96 -48q-57 0 -103 43q59 41 60 139q0 66 -43 106t-123 40q-174 0 -174 -189q0 -80 36 -143.5t92 -105.5t124 -82l139 -85q70 -45 126 -99t92 -140t36 -195q0 -219 -134 -324.5t-360 -105.5q-213 0 -358 91t-145 286zM475 1661l105 387h215 l-166 -387h-154z" />
<glyph unicode="&#x15b;" horiz-adv-x="782" d="M49 291q0 111 76 149q123 322 156 607l294 40l71 -264l54 -197q15 -57 30 -126.5t19.5 -116.5t4.5 -107v-12q74 52 125 103h86q-92 -139 -269 -263q-95 -116 -283 -116h-3q-166 0 -263.5 95t-97.5 208zM154 293q31 -143 155 -143q145 0 146 143q0 43 -2 75.5t-15 85.5 l-19 80q-7 29 -34 124l-43 155q-23 -109 -113 -379q58 -27 58 -86q0 -33 -19.5 -57.5t-52.5 -24.5q-43 0 -61 27zM313 1149l105 387h215l-166 -387h-154z" />
<glyph unicode="&#x160;" horiz-adv-x="1083" d="M68 340q0 137 71.5 221t173.5 84q59 0 117.5 -31.5t85.5 -103.5q-207 0 -207 -184q0 -100 62.5 -149.5t167.5 -49.5q102 0 153 49t51 160q0 100 -44 180t-111 129l-144 103l-145 105q-68 50 -112 132t-44 186q0 174 118 269.5t325 95.5q47 0 90 -6t109.5 -28.5t107.5 -80 t41 -143.5q0 -78 -35 -126t-96 -48q-57 0 -103 43q59 41 60 139q0 66 -43 106t-123 40q-174 0 -174 -189q0 -80 36 -143.5t92 -105.5t124 -82l139 -85q70 -45 126 -99t92 -140t36 -195q0 -219 -134 -324.5t-360 -105.5q-213 0 -358 91t-145 286zM346 2048h66l157 -164 l287 164h90l-352 -387h-43z" />
<glyph unicode="&#x161;" horiz-adv-x="782" d="M49 291q0 111 76 149q123 322 156 607l294 40l71 -264l54 -197q15 -57 30 -126.5t19.5 -116.5t4.5 -107v-12q74 52 125 103h86q-92 -139 -269 -263q-95 -116 -283 -116h-3q-166 0 -263.5 95t-97.5 208zM152 1536h65l158 -164l287 164h90l-353 -387h-43zM154 293 q31 -143 155 -143q145 0 146 143q0 43 -2 75.5t-15 85.5l-19 80q-7 29 -34 124l-43 155q-23 -109 -113 -379q58 -27 58 -86q0 -33 -19.5 -57.5t-52.5 -24.5q-43 0 -61 27z" />
<glyph unicode="&#x170;" horiz-adv-x="1579" d="M35 1051q0 197 196.5 341t468.5 144q47 0 101 -10v-1116q0 -106 58.5 -165t137.5 -59q82 0 140.5 58.5t58.5 165.5v1122h291v-1102q0 -211 -145.5 -327.5t-344 -116.5t-344 116.5t-145.5 327.5v987q-133 -39 -206 -135t-73 -238q0 -47 4.5 -83.5t14.5 -63.5t17 -40 t20.5 -31.5t15.5 -20.5q-266 0 -266 246zM809 1661l104 387h195l-166 -387h-133zM1075 1661l105 387h194l-166 -387h-133z" />
<glyph unicode="&#x171;" d="M96 305v719h295v-696q0 -141 84 -142q55 0 92 51.5t37 129.5v657h295v-696q0 -78 20.5 -110t73.5 -32q139 0 158 181h86q-12 -96 -43 -168t-66.5 -111t-82 -62.5t-83 -30.5t-75.5 -7q-201 0 -244 194q-76 -194 -270 -194h-2q-274 0 -275 317zM270 1149l105 387h194 l-166 -387h-133zM537 1149l104 387h195l-166 -387h-133z" />
<glyph unicode="&#x178;" horiz-adv-x="1329" d="M35 1053q0 193 186.5 338t421.5 145q33 0 86 -4l293 -735l197 729h135l-264 -895v-631h-328v631l-309 768q-106 -43 -165 -135.5t-59 -219.5q0 -59 9.5 -105t19.5 -65.5t25.5 -41t17.5 -27.5q-266 0 -266 248zM684 1810q0 51 37 88t88 37t88 -36.5t37 -88t-37 -88 t-88 -36.5t-88 35.5t-37 88.5zM1053 1810q0 51 36.5 88t88 37t88.5 -36.5t37 -88t-37 -88t-88.5 -36.5t-88 35.5t-36.5 88.5z" />
<glyph unicode="&#x179;" horiz-adv-x="1138" d="M37 1354q0 76 54 129t157 53h805l-574 -1403q25 0 94.5 -2t104.5 -2q262 0 285 45q-18 0 -36 21.5t-18 66.5q0 47 30 70.5t71 23.5q63 0 99 -47t36 -102q0 -80 -57.5 -143.5t-159.5 -63.5h-822l578 1425q-18 0 -133 2.5t-154 2.5q-178 0 -178 -41q47 -18 47 -80 q0 -41 -25.5 -74t-68.5 -33q-66 0 -100.5 48t-34.5 104zM541 1661l104 387h215l-166 -387h-153z" />
<glyph unicode="&#x17a;" horiz-adv-x="876" d="M111 840q0 68 53 126t143 58h563l-391 -866q10 0 47 -4t73 -6.5t60 -2.5q89 0 89 41q-23 2 -36.5 17.5t-13.5 36.5q0 31 25 54t72 23q55 0 84.5 -36.5t29.5 -90.5q0 -72 -55 -131t-152 -59h-565l402 913h-152q-104 0 -104 -28q0 -6 5 -8.5t12 -4.5t12 -16t5 -43 q0 -41 -26.5 -63.5t-63.5 -22.5q-45 0 -80.5 29.5t-35.5 83.5zM420 1149l104 387h215l-166 -387h-153z" />
<glyph unicode="&#x17b;" horiz-adv-x="1138" d="M37 1354q0 76 54 129t157 53h805l-574 -1403q25 0 94.5 -2t104.5 -2q262 0 285 45q-18 0 -36 21.5t-18 66.5q0 47 30 70.5t71 23.5q63 0 99 -47t36 -102q0 -80 -57.5 -143.5t-159.5 -63.5h-822l578 1425q-18 0 -133 2.5t-154 2.5q-178 0 -178 -41q47 -18 47 -80 q0 -41 -25.5 -74t-68.5 -33q-66 0 -100.5 48t-34.5 104zM438 1808.5q0 53.5 38 92t91.5 38.5t92 -38.5t38.5 -92t-38.5 -91.5t-92 -38t-91.5 38t-38 91.5z" />
<glyph unicode="&#x17c;" horiz-adv-x="876" d="M111 840q0 68 53 126t143 58h563l-391 -866q10 0 47 -4t73 -6.5t60 -2.5q89 0 89 41q-23 2 -36.5 17.5t-13.5 36.5q0 31 25 54t72 23q55 0 84.5 -36.5t29.5 -90.5q0 -72 -55 -131t-152 -59h-565l402 913h-152q-104 0 -104 -28q0 -6 5 -8.5t12 -4.5t12 -16t5 -43 q0 -41 -26.5 -63.5t-63.5 -22.5q-45 0 -80.5 29.5t-35.5 83.5zM365 1298.5q0 53.5 37.5 92.5t91 39t92.5 -39t39 -92.5t-39 -91.5t-92.5 -38t-91 38t-37.5 91.5z" />
<glyph unicode="&#x17d;" horiz-adv-x="1138" d="M37 1354q0 76 54 129t157 53h805l-574 -1403q25 0 94.5 -2t104.5 -2q262 0 285 45q-18 0 -36 21.5t-18 66.5q0 47 30 70.5t71 23.5q63 0 99 -47t36 -102q0 -80 -57.5 -143.5t-159.5 -63.5h-822l578 1425q-18 0 -133 2.5t-154 2.5q-178 0 -178 -41q47 -18 47 -80 q0 -41 -25.5 -74t-68.5 -33q-66 0 -100.5 48t-34.5 104zM379 2048h65l158 -164l287 164h90l-352 -387h-43z" />
<glyph unicode="&#x17e;" horiz-adv-x="876" d="M111 840q0 68 53 126t143 58h563l-391 -866q10 0 47 -4t73 -6.5t60 -2.5q89 0 89 41q-23 2 -36.5 17.5t-13.5 36.5q0 31 25 54t72 23q55 0 84.5 -36.5t29.5 -90.5q0 -72 -55 -131t-152 -59h-565l402 913h-152q-104 0 -104 -28q0 -6 5 -8.5t12 -4.5t12 -16t5 -43 q0 -41 -26.5 -63.5t-63.5 -22.5q-45 0 -80.5 29.5t-35.5 83.5zM293 1536h65l158 -164l287 164h90l-352 -387h-43z" />
<glyph unicode="&#x192;" horiz-adv-x="620" d="M-119 -242q0 100 72 154.5t221 103.5v926h-123v82h123v162q0 106 26.5 179t76 107.5t99.5 48t116 13.5q156 0 219 -71.5t63 -233.5h-96q0 125 -94 125q-115 0 -115 -168v-162h152v-82h-152v-1106q0 -104 -26.5 -177t-71.5 -107.5t-89 -49t-94 -14.5q-127 0 -217 77 t-90 193zM-10 -225q0 -49 32.5 -77t67.5 -28q84 0 84 160v119q-184 -65 -184 -174z" />
<glyph unicode="&#x2c6;" horiz-adv-x="600" d="M-244 1149l353 387h43l204 -387h-65l-158 164l-287 -164h-90z" />
<glyph unicode="&#x2c7;" horiz-adv-x="602" d="M-121 1536h66l157 -164l287 164h90l-352 -387h-43z" />
<glyph unicode="&#x2d8;" horiz-adv-x="882" d="M-166 1440h162q0 -88 63.5 -136.5t149.5 -48.5t149.5 48.5t63.5 136.5h156q0 -131 -110 -204t-261.5 -73t-262 73t-110.5 204z" />
<glyph unicode="&#x2da;" horiz-adv-x="319" d="M-274 1296.5q0 67.5 45 115.5t124.5 48t116.5 -47t37 -113q0 -72 -41 -121t-119 -49q-76 0 -119.5 49.5t-43.5 117zM-193 1296q0 -94 87 -94q79 0 79 92q0 98 -79 99q-37 0 -62 -25t-25 -72z" />
<glyph unicode="&#x2db;" horiz-adv-x="595" d="M139 -203q0 111 109 213h143q-37 -16 -65.5 -61t-28.5 -92t28.5 -89t75.5 -42q16 0 36 8t29 14t33.5 25.5t26.5 21.5l9 -63q-88 -127 -199 -127q-88 0 -142.5 60.5t-54.5 131.5z" />
<glyph unicode="&#x2dc;" horiz-adv-x="825" d="M-176 1192q57 201 299 201q78 0 187.5 -34t164.5 -34q84 0 119 47l14 -2q-4 -76 -89 -140.5t-197 -64.5q-70 0 -189 38t-172 38q-78 0 -125 -53z" />
<glyph unicode="&#x2dd;" horiz-adv-x="892" d="M2 1149l104 387h195l-166 -387h-133zM268 1149l105 387h194l-166 -387h-133z" />
<glyph unicode="&#x2000;" horiz-adv-x="1024" />
<glyph unicode="&#x2001;" horiz-adv-x="2048" />
<glyph unicode="&#x2002;" horiz-adv-x="1024" />
<glyph unicode="&#x2003;" horiz-adv-x="2048" />
<glyph unicode="&#x2004;" horiz-adv-x="682" />
<glyph unicode="&#x2005;" horiz-adv-x="512" />
<glyph unicode="&#x2006;" horiz-adv-x="341" />
<glyph unicode="&#x2007;" horiz-adv-x="341" />
<glyph unicode="&#x2008;" horiz-adv-x="256" />
<glyph unicode="&#x2009;" horiz-adv-x="409" />
<glyph unicode="&#x200a;" horiz-adv-x="113" />
<glyph unicode="&#x2010;" horiz-adv-x="653" d="M121 455v161h411v-161h-411z" />
<glyph unicode="&#x2011;" horiz-adv-x="653" d="M121 455v161h411v-161h-411z" />
<glyph unicode="&#x2012;" horiz-adv-x="653" d="M121 455v161h411v-161h-411z" />
<glyph unicode="&#x2013;" horiz-adv-x="776" d="M121 455v161h532l2 -161h-534z" />
<glyph unicode="&#x2014;" horiz-adv-x="960" d="M121 455v161h717l2 -161h-719z" />
<glyph unicode="&#x2018;" horiz-adv-x="428" d="M70 1188q0 82 66.5 176t180.5 168q18 -10 19 -29l-100 -143q0 -20 24 -35q90 -53 90 -129q0 -59 -43 -101t-106 -42q-61 0 -96 37.5t-35 97.5z" />
<glyph unicode="&#x2019;" horiz-adv-x="425" d="M86 1389q0 59 43 101t107 42q61 0 96 -38t35 -97q0 -82 -67 -176.5t-181 -167.5q-18 10 -19 28l101 144q0 20 -25 35q-90 53 -90 129z" />
<glyph unicode="&#x201a;" horiz-adv-x="442" d="M78 156q0 59 43 101t106 42q61 0 96 -38t35 -97q0 -82 -66.5 -176t-180.5 -168q-18 10 -19 28l101 144q0 20 -25 35q-90 53 -90 129z" />
<glyph unicode="&#x201c;" horiz-adv-x="878" d="M70 1188q0 82 66.5 176t180.5 168q18 -10 19 -29l-100 -143q0 -20 24 -35q90 -53 90 -129q0 -59 -43 -101t-106 -42q-61 0 -96 37.5t-35 97.5zM520 1188q0 82 66.5 176t181.5 168q18 -10 18 -29l-100 -143q0 -20 25 -35q90 -53 90 -129q0 -59 -43 -101t-107 -42 q-61 0 -96 37.5t-35 97.5z" />
<glyph unicode="&#x201d;" horiz-adv-x="876" d="M86 1389q0 59 43 101t107 42q61 0 96 -38t35 -97q0 -82 -67 -176.5t-181 -167.5q-18 10 -19 28l101 144q0 20 -25 35q-90 53 -90 129zM537 1389q0 59 43 101t106 42q61 0 96 -38t35 -97q0 -82 -66.5 -176.5t-181.5 -167.5q-18 10 -18 28l100 144q0 20 -24 35 q-90 53 -90 129z" />
<glyph unicode="&#x201e;" horiz-adv-x="892" d="M78 156q0 59 43 101t106 42q61 0 96 -38t35 -97q0 -82 -66.5 -176t-180.5 -168q-18 10 -19 28l101 144q0 20 -25 35q-90 53 -90 129zM528 156q0 59 43 101t107 42q61 0 96 -38t35 -97q0 -82 -66.5 -176t-181.5 -168q-18 10 -18 28l100 144q0 20 -25 35q-90 53 -90 129z " />
<glyph unicode="&#x2020;" horiz-adv-x="841" d="M43 647v230h299v659h147v-659h310v-230h-310v-1159h-147v1159h-299z" />
<glyph unicode="&#x2021;" horiz-adv-x="878" d="M61 207v229h299v211h-299v230h299v659h148v-659h309v-230h-309v-211h309v-229h-309v-719h-148v719h-299z" />
<glyph unicode="&#x2022;" horiz-adv-x="567" d="M86 547q0 82 57.5 140t139.5 58t140 -58t58 -140t-58 -139.5t-140 -57.5t-139.5 57.5t-57.5 139.5z" />
<glyph unicode="&#x2026;" horiz-adv-x="1468" d="M80 153.5q0 67.5 47 115.5t114.5 48t116 -48t48.5 -115.5t-48.5 -114.5t-116 -47t-114.5 47t-47 114.5zM561 153.5q0 67.5 47 115.5t115 48t116 -48t48 -115.5t-48 -114.5t-116 -47t-115 47t-47 114.5zM1063 153.5q0 67.5 47 115.5t114.5 48t116 -48t48.5 -115.5 t-48.5 -114.5t-116 -47t-114.5 47t-47 114.5z" />
<glyph unicode="&#x202f;" horiz-adv-x="409" />
<glyph unicode="&#x2030;" horiz-adv-x="1914" d="M55 1108q0 143 66.5 236.5t187.5 93.5q227 0 228 -324q0 -133 -56.5 -240.5t-165.5 -107.5q-127 0 -193.5 79t-66.5 263zM203 1124q0 -282 101 -282h1q53 0 82 70.5t29 177.5q0 102 -16.5 167.5t-37 87t-45.5 21.5q-41 0 -77.5 -65.5t-36.5 -176.5zM270 0l645 1536h148 l-645 -1536h-148zM772 342q0 143 66.5 236.5t187.5 93.5q227 0 227 -324q0 -133 -56 -240.5t-165 -107.5q-127 0 -193.5 79t-66.5 263zM920 358q0 -282 101 -282h1q53 0 82 70.5t29 177.5q0 102 -16.5 167.5t-37 87t-45.5 21.5q-41 0 -77.5 -65.5t-36.5 -176.5zM1386 342 q0 143 66.5 236.5t187.5 93.5q227 0 228 -324q0 -133 -56.5 -240.5t-164.5 -107.5q-127 0 -194 79t-67 263zM1534 358q0 -282 101 -282h1q53 0 82 70.5t29 177.5q0 102 -16.5 167.5t-37 87t-44.5 21.5q-41 0 -78 -65.5t-37 -176.5z" />
<glyph unicode="&#x2039;" horiz-adv-x="626" d="M43 520l358 400l105 -93l-293 -309l342 -287l-63 -90z" />
<glyph unicode="&#x203a;" horiz-adv-x="632" d="M74 829l63 91l449 -379l-359 -400l-104 92l293 310z" />
<glyph unicode="&#x205f;" horiz-adv-x="512" />
<glyph unicode="&#x20ac;" horiz-adv-x="1265" d="M51 582l6 102h142q-2 31 -2 94v39h-144l6 103h144q25 281 154.5 448.5t379.5 167.5q176 0 297 -83t121 -243q0 -137 -111 -137q-72 0 -129 53q27 8 43.5 52.5t16.5 81.5q0 61 -43 120.5t-125 59.5q-119 0 -191.5 -142.5t-91.5 -377.5h410l-6 -103h-408v-49q0 -57 2 -84 h410l-6 -102h-398q27 -231 124.5 -320.5t271.5 -89.5q197 0 278 82l17 -59q-115 -207 -416 -207q-98 0 -188.5 27.5t-176.5 91t-146.5 185.5t-82.5 290h-158z" />
<glyph unicode="&#x2122;" horiz-adv-x="1013" d="M102 1217q0 57 44 94t135 37q8 0 64 -5.5t91 -5.5q53 0 74 11q0 -80 -39 -80q-27 0 -119 18v-399h-90v407q-100 -4 -100 -92q0 -20 3 -34.5t5 -19.5t7 -11.5t7 -8.5q-82 0 -82 89zM522 887l45 450h82l70 -354l65 356h97l30 -452h-69l-33 309l-55 -309h-101l-53 315 l-29 -315h-49z" />
<glyph unicode="&#x2212;" horiz-adv-x="958" d="M121 455v161h717v-161h-717z" />
<glyph unicode="&#xe000;" horiz-adv-x="1155" d="M0 1155h1155v-1155h-1155v1155z" />
<glyph horiz-adv-x="1085" d="M55 102q0 137 37 321.5t107.5 378t162 359.5t213 271.5t248.5 105.5q86 0 168 -29v-1509h-295v750h-317q-68 -326 -68 -621q0 -287 80 -362q-61 4 -98 8t-88 24.5t-80 53t-49.5 96t-20.5 153.5zM403 856h293v541q-178 -95 -293 -541z" />
<glyph horiz-adv-x="1378" d="M37 1042q0 205 185.5 349.5t447.5 144.5q236 0 378 -106.5t142 -258.5q0 -78 -41 -154.5t-117 -129.5q160 -23 243 -137.5t83 -272.5q0 -201 -102.5 -367.5t-258.5 -166.5q-129 0 -266 116v-59h-295v1303l295 40v-454h14q102 0 164 85t62 204q0 45 -11.5 85t-40 84 t-94 69.5t-159.5 25.5q-195 0 -314 -108.5t-119 -307.5q0 -72 15.5 -120t35 -73.5t19.5 -27.5q-266 0 -266 237zM731 190q72 -59 135 -59q86 0 136.5 104.5t50.5 239.5q0 131 -54.5 223.5t-175.5 92.5q-37 0 -92 -7v-594z" />
<glyph horiz-adv-x="1200" d="M43 1096q0 190 145.5 315t452.5 125q35 0 154.5 -12.5t189.5 -12.5q109 0 180 25q2 -14 2 -41q0 -197 -229 -197q-82 0 -209 23v-463h313v-151h-313v-500h455v-207h-754v1368q-94 -6 -144 -66.5t-50 -199.5q0 -111 17 -174.5t40.5 -92t23.5 -30.5q-139 0 -206.5 66.5 t-67.5 224.5z" />
<glyph horiz-adv-x="1439" d="M37 1053q0 193 186.5 338t421.5 145q33 0 86 -4v-193q78 197 260 197q145 0 234.5 -122t89.5 -349q0 -98 -10.5 -358.5t-10.5 -331.5q0 -100 24.5 -144.5t82.5 -44.5q61 0 88 43t47 138h86q-14 -119 -48 -200t-79 -117t-85 -49t-89 -13q-301 0 -301 405q0 82 6 323.5 t6 319.5q0 96 -14 164t-39 97.5t-45.5 41t-42.5 11.5q-61 0 -110.5 -76t-49.5 -156v-1118h-321v1374q-178 -102 -179 -330q0 -86 14.5 -136t35 -74.5t22.5 -28.5q-266 0 -266 248z" />
<glyph horiz-adv-x="1095" d="M61 463q0 98 21.5 195.5t67 183.5t123 139t180.5 53q154 0 192 -108v98h295v-696q0 -84 22.5 -113t84.5 -29q25 0 40 9q-18 -119 -53 -163t-119 -44q-186 0 -229 188q-86 -188 -264 -188q-150 0 -255.5 114.5t-105.5 360.5zM360 481q0 -102 15.5 -167.5t43 -90t46 -31 t47.5 -6.5q49 0 91 48.5t42 130.5v464q-28 78 -100 78q-90 0 -137.5 -133t-47.5 -293z" />
<glyph horiz-adv-x="1869" d="M61 463q0 98 21.5 195.5t67 183.5t123 139t180.5 53q154 0 192 -108v98h295v-696q0 -41 5 -68t32 -50.5t74 -23.5q78 0 157.5 56.5t128.5 138.5l-254 643h289l174 -440q127 182 127 299q0 35 -10 49q-25 -4 -35 -4q-63 0 -93 42t-30 89q0 37 27 58.5t70 21.5 q82 0 134 -70t52 -164q0 -160 -197 -436l41 -102q41 -102 72 -141.5t94 -39.5q43 0 64 13q2 -14 2 -41q0 -84 -51.5 -127t-131.5 -43q-96 0 -162.5 63.5t-132.5 210.5q-160 -274 -423 -274q-86 0 -164 52t-111 138q-86 -190 -266 -190q-150 0 -255.5 114.5t-105.5 360.5z M360 481q0 -102 15.5 -167.5t43 -90t46 -31t47.5 -6.5q49 0 91 49.5t42 131.5v460q-23 80 -100 80q-90 0 -137.5 -133t-47.5 -293z" />
<glyph horiz-adv-x="1097" d="M61 463q0 98 21.5 195.5t67 183.5t123 139t180.5 53q154 0 192 -108v98h295v-696q0 -84 22.5 -113t84.5 -29q25 0 40 9q-18 -119 -53 -163t-119 -44q-186 0 -229 188q-86 -188 -264 -188q-150 0 -255.5 114.5t-105.5 360.5zM360 481q0 -102 15.5 -167.5t43 -90t46 -31 t47.5 -6.5q49 0 91 48.5t42 130.5v464q-28 78 -100 78q-90 0 -137.5 -133t-47.5 -293zM451 1149l104 387h215l-166 -387h-153z" />
<glyph horiz-adv-x="1658" d="M94 305l2 1088l295 41v-461q88 61 160 61q117 0 200 -80t115 -229q129 39 234 322l295 40q53 -207 112.5 -387t81 -261t21.5 -175q0 -141 -87 -208.5t-210 -67.5q-172 0 -260 90t-88 227q0 68 31.5 109t78.5 41q127 0 127 -101q0 -33 -22.5 -55.5t-57.5 -22.5 q-43 0 -61 27q33 -153 149 -153h2q51 0 76 26.5t25 87.5q0 82 -17.5 147.5t-66.5 205t-90 282.5q-94 -209 -260 -274q4 -49 4 -76q0 -80 -11.5 -152.5t-42 -149.5t-79 -132.5t-130 -91t-186.5 -35.5q-168 0 -254 85t-86 232zM391 307q0 -121 103 -121q68 0 109.5 56.5 t55 128t13.5 159.5q0 27 -4 76q-55 29 -56 113q0 37 17 59q-49 106 -131 107q-76 0 -107 -37v-541z" />
<glyph horiz-adv-x="784" d="M49 459q0 76 10.5 149.5t39 152.5t73.5 138t122 97t175 38q143 0 206.5 -69.5t63.5 -159.5q0 -55 -21.5 -89t-58.5 -34q-41 0 -84 25q6 35 7 61q0 158 -84 158q-76 0 -117 -137.5t-41 -311.5q0 -182 49 -247.5t158 -65.5q111 0 196 117q-4 -147 -66.5 -220t-225.5 -73 q-184 0 -293 113.5t-109 357.5z" />
<glyph horiz-adv-x="600" d="M-244 1149l353 387h43l204 -387h-65l-158 164l-287 -164h-90z" />
<glyph horiz-adv-x="1093" d="M61 463q0 98 21.5 195.5t67 183.5t123 139t180.5 53q154 0 192 -108v467l295 41v-1106q0 -84 22.5 -113t84.5 -29q25 0 40 9q-18 -119 -53 -163t-119 -44q-186 0 -229 188q-86 -188 -264 -188q-150 0 -255.5 114.5t-105.5 360.5zM360 481q0 -102 15.5 -167.5t43 -90 t46 -31t47.5 -6.5q49 0 91 48.5t42 130.5v464q-28 78 -100 78q-90 0 -137.5 -133t-47.5 -293z" />
<glyph horiz-adv-x="569" d="M96 305v719h295v-696q0 -84 22.5 -113t84.5 -29q39 0 63 13q2 -14 2 -41q0 -92 -55 -131t-127 -39q-285 0 -285 317z" />
<glyph horiz-adv-x="813" d="M61 463q0 94 20.5 187t64.5 183.5t130 145.5t203 55q78 0 133.5 -21.5t82 -47t41 -67.5t16.5 -65.5t2 -56.5q0 -147 -114 -249.5t-278 -112.5q19 -232 175 -232q55 0 115.5 32t103.5 77q0 -166 -76 -234.5t-213 -68.5q-188 0 -297 114.5t-109 360.5zM360 512 q102 8 168 87.5t66 188.5q0 137 -76 138q-68 0 -109.5 -130t-48.5 -284z" />
<glyph horiz-adv-x="1607" d="M68 463q0 92 20.5 184t64.5 183.5t130 147.5t202 56q78 0 133.5 -21.5t82 -47t41 -67.5t16.5 -65.5t2 -56.5q0 -147 -114 -249.5t-277 -112.5q23 -258 258 -258q115 0 236.5 61.5t195.5 169.5l-252 637h291l172 -436q157 216 157 312q0 19 -2 30q-8 0 -15 -2t-15 -2 q-61 0 -94 34.5t-33 81.5q0 51 37.5 82t89.5 31q63 0 109 -47t46 -139q0 -190 -231 -506l39 -96q39 -102 70.5 -141.5t95.5 -39.5q43 0 63 13q2 -14 2 -41q0 -84 -51 -127t-131 -43q-96 0 -164.5 65.5t-136.5 216.5q-98 -127 -257 -204.5t-329 -77.5q-199 0 -325.5 111.5 t-126.5 363.5zM367 512q102 8 168.5 87.5t66.5 188.5q0 137 -78 138q-68 0 -109.5 -130t-47.5 -284z" />
<glyph horiz-adv-x="813" d="M61 463q0 94 20.5 187t64.5 183.5t130 145.5t203 55q78 0 133.5 -21.5t82 -47t41 -67.5t16.5 -65.5t2 -56.5q0 -147 -114 -249.5t-278 -112.5q19 -232 175 -232q55 0 115.5 32t103.5 77q0 -166 -76 -234.5t-213 -68.5q-188 0 -297 114.5t-109 360.5zM356 1149l105 387 h215l-166 -387h-154zM360 512q102 8 168 87.5t66 188.5q0 137 -76 138q-68 0 -109.5 -130t-48.5 -284z" />
<glyph horiz-adv-x="1601" d="M-197 -242q0 100 72 154.5t221 103.5v1170q0 102 27 176t74 108.5t92 49t98 14.5q137 0 217 -86t92 -219h-96q-12 68 -30.5 96.5t-63.5 28.5q-115 0 -115 -168v-162h547v-696q0 -141 84 -142q53 0 87 50.5t40 130.5v657h295v-696q0 -84 22.5 -113t83.5 -29q25 0 41 9 q-18 -119 -53 -163t-119 -44q-188 0 -229 192q-80 -192 -270 -192h-2q-274 0 -275 317v637h-252v-1106q0 -104 -26.5 -177t-71.5 -107.5t-89 -49t-93 -14.5q-127 0 -217.5 77t-90.5 193zM-88 -227q0 -47 34 -75t68 -28q84 0 84 160v119q-186 -65 -186 -176z" />
<glyph horiz-adv-x="1114" d="M-197 -246q0 104 75 159.5t222 102.5v1078q0 440 420 440q387 0 387 -266q0 -63 -41 -99t-98 -36t-100 36t-43 97q0 63 69 75q-18 82 -129 82q-168 0 -168 -231v-168h166v-82h-164v-1106q0 -100 -25.5 -172t-70.5 -108.5t-91 -52t-101 -15.5q-129 0 -218.5 77t-89.5 189z M-88 -231q0 -53 36 -76t68 -23q35 0 59.5 39t24.5 121v119q-188 -63 -188 -180zM643 305v719h295v-696q0 -84 22.5 -113t83.5 -29q39 0 64 13q2 -14 2 -41q0 -92 -55.5 -131t-126.5 -39q-285 0 -285 317z" />
<glyph horiz-adv-x="1138" d="M-197 -244q0 102 74 156.5t221 103.5v1176q0 342 295 342q86 0 190.5 -22.5t180.5 -47t201 -71.5l2 -1065q0 -84 22.5 -113t83.5 -29q41 0 62 13q4 -29 4 -43q0 -76 -50.5 -122t-132.5 -46q-285 0 -284 317v1067q-86 33 -176 33q-104 0 -105 -156v-225h193v-82h-191 v-1112q0 -342 -295 -342q-113 0 -204 76t-91 192zM-88 -233q0 -39 31.5 -68t68.5 -29t62.5 38t25.5 122v119q-188 -67 -188 -182z" />
<glyph horiz-adv-x="1028" d="M55 481q0 98 21.5 190.5t66.5 176.5t128 135t194 51q139 0 178 -102v92h295v-1188q0 -104 -25.5 -177t-70.5 -107.5t-90 -49t-99 -14.5q-121 0 -202.5 63.5t-81.5 167.5q0 180 274 273v172q-80 -135 -231 -135q-145 0 -251 111.5t-106 340.5zM354 492q0 -264 135 -265 q63 0 104.5 42t49.5 110v457q-8 27 -33.5 49t-64.5 22q-63 0 -108.5 -66.5t-64 -157.5t-18.5 -191zM477 -264q0 -37 26.5 -62.5t55.5 -25.5q39 0 61.5 47t22.5 135v59q-166 -67 -166 -153z" />
<glyph horiz-adv-x="1062" d="M96 0v1393l295 41v-516q75 114 213 114h2q131 0 211 -87t80 -281q0 -47 -4 -157t-4 -147q0 -90 23.5 -132t84.5 -42q51 0 66 13q0 -211 -180 -211q-141 0 -205 103.5t-64 268.5q0 37 2 133.5t2 129.5q0 223 -108 223q-53 0 -83 -53.5t-36 -135.5v-657h-295z" />
<glyph horiz-adv-x="569" d="M74 1296.5q0 67.5 47 115.5t114.5 48t115.5 -48t48 -115.5t-48 -114.5t-115.5 -47t-114.5 47t-47 114.5zM96 305v719h295v-696q0 -84 22.5 -113t84.5 -29q39 0 63 13q2 -14 2 -41q0 -92 -55 -131t-127 -39q-285 0 -285 317z" />
<glyph horiz-adv-x="1335" d="M74 1296.5q0 67.5 47 115.5t114.5 48t115.5 -48t48 -115.5t-48 -114.5t-115.5 -47t-114.5 47t-47 114.5zM96 367v657h295v-696q0 -139 113 -140q76 0 155.5 53.5t128.5 137.5l-253 645h288l172 -436q158 217 158 313q0 18 -2 29q-8 0 -15.5 -2t-15.5 -2q-61 0 -94 34.5 t-33 81.5q0 51 38 82t89 31q63 0 109.5 -47t46.5 -139q0 -190 -232 -506l39 -96q39 -100 72 -140.5t96 -40.5q39 0 64 13q2 -14 2 -41q0 -84 -51.5 -127t-130.5 -43q-96 0 -164 64.5t-135 215.5q-84 -121 -209 -200.5t-258 -79.5q-125 0 -199 94t-74 285z" />
<glyph horiz-adv-x="569" d="M96 305v719h295v-696q0 -84 22.5 -113t84.5 -29q39 0 63 13q2 -14 2 -41q0 -92 -55 -131t-127 -39q-285 0 -285 317zM158 1149l104 387h215l-166 -387h-153z" />
<glyph horiz-adv-x="1028" d="M74 1296.5q0 67.5 47 115.5t114.5 48t115.5 -48t48 -115.5t-48 -114.5t-115.5 -47t-114.5 47t-47 114.5zM96 305v719h295v-696q0 -84 22.5 -113t84.5 -29q39 0 63 13q2 -14 2 -41q0 -92 -55 -131t-127 -39q-285 0 -285 317zM369 -281q0 180 274 273v1032h295v-1188 q0 -104 -25.5 -176t-69.5 -107.5t-90 -50t-100 -14.5q-121 0 -202.5 63.5t-81.5 167.5zM477 -262q0 -37 26.5 -63.5t57.5 -26.5q82 0 82 182v59q-166 -69 -166 -151zM625 1296.5q0 67.5 47 115.5t114.5 48t115.5 -48t48 -115.5t-48 -114.5t-115.5 -47t-114.5 47t-47 114.5z " />
<glyph horiz-adv-x="481" d="M-178 -281q0 180 274 273v1032h295v-1188q0 -104 -25.5 -176t-69.5 -107.5t-90 -50t-100 -14.5q-121 0 -202.5 63.5t-81.5 167.5zM-70 -262q0 -37 27 -63.5t57 -26.5q82 0 82 182v59q-166 -69 -166 -151zM78 1296.5q0 67.5 47 115.5t114.5 48t115.5 -48t48 -115.5 t-48 -114.5t-115.5 -47t-114.5 47t-47 114.5z" />
<glyph horiz-adv-x="1093" d="M96 0v1393l295 41v-721l330 311h203l-349 -283q35 6 70 7q121 0 198 -68t77 -205q0 -18 -2.5 -59t-2.5 -64q0 -166 109 -166q47 0 68 13q0 -6 1 -14.5t1 -18.5q0 -76 -43 -127t-144 -51q-125 0 -197.5 77.5t-72.5 198.5q0 25 2 74t2 72q0 82 -20.5 126t-81.5 44 q-111 0 -148 -123v-457h-295z" />
<glyph horiz-adv-x="1060" d="M96 0v1393l295 41v-691q154 184 229.5 238.5t159.5 54.5q53 0 87 -40t34 -83q0 -37 -22.5 -62.5t-61.5 -25.5q-25 0 -64.5 12.5t-56.5 12.5q-66 0 -117 -33t-122 -117q74 45 178 45q129 0 209 -65.5t80 -204.5q0 -27 -4.5 -101.5t-4.5 -90.5q0 -47 21.5 -72t79.5 -25 q68 0 93.5 39t47.5 142h86q-29 -221 -109.5 -300t-199.5 -79q-147 0 -221 79.5t-74 202.5q0 14 2 69.5t2 82.5q0 80 -21.5 119t-82.5 39q-111 0 -148 -123v-457h-295z" />
<glyph horiz-adv-x="559" d="M96 305v1088l295 41v-1106q0 -84 22.5 -113t84.5 -29q37 0 57 17q2 -14 2 -43q0 -82 -49 -127t-127 -45q-285 0 -285 317z" />
<glyph horiz-adv-x="1568" d="M96 0v1024h295v-106q77 116 215 116h2q186 0 256 -174q76 172 252 172q287 0 287 -377q0 -35 -4 -146.5t-4 -148.5q0 -94 24.5 -134t91.5 -40q41 0 58 13q0 -211 -185 -211q-264 0 -264 381q0 27 2 125.5t2 123.5q0 227 -106 228q-104 0 -121 -189v-657h-295v707 q0 141 -88 141q-53 0 -85 -53.5t-38 -137.5v-657h-295z" />
<glyph horiz-adv-x="1062" d="M96 0v1024h295v-106q75 114 213 114h2q131 0 211 -87t80 -281q0 -47 -4 -157t-4 -147q0 -90 23.5 -132t84.5 -42q51 0 66 13q0 -211 -180 -211q-141 0 -205 103.5t-64 268.5q0 37 2 133.5t2 129.5q0 223 -108 223q-53 0 -83 -53.5t-36 -135.5v-657h-295z" />
<glyph horiz-adv-x="985" d="M61 451q0 98 19.5 191t66 186.5t137.5 149.5t216 56q256 0 321 -260q53 27 92 133h66q-16 -61 -27.5 -96t-42 -88t-69.5 -82q4 -53 4 -86q0 -258 -95.5 -412.5t-304.5 -154.5q-168 0 -275.5 110.5t-107.5 352.5zM362 471q1 -291 140 -291q84 0 125 106.5t41 284.5v29 q-82 18 -82 121q0 66 53 86q-37 104 -109 104q-82 0 -125 -136t-43 -304z" />
<glyph horiz-adv-x="1632" d="M61 451q0 98 19.5 191t66 186.5t137.5 149.5t216 56q279 0 331 -311q131 29 242 324l295 40q53 -207 112.5 -387t81 -261t21.5 -175q0 -141 -87 -208.5t-210 -67.5q-172 0 -260 90t-88 227q0 68 33 109t80 41q125 0 125 -101q0 -33 -23 -55.5t-57 -22.5q-43 0 -62 27 q33 -153 150 -153h2q51 0 75.5 26.5t24.5 87.5q0 82 -17.5 147.5t-66.5 205t-90 282.5q-102 -219 -270 -281q0 -10 1 -30.5t1 -32.5q0 -258 -95.5 -412.5t-304.5 -154.5q-168 0 -275.5 110.5t-107.5 352.5zM362 471q1 -291 140 -291q84 0 125 106.5t41 284.5v27 q-82 18 -82 121q0 66 53 86q-37 106 -109 106q-82 0 -125 -136t-43 -304z" />
<glyph horiz-adv-x="976" d="M61 451q0 98 19.5 191t66 186.5t137.5 149.5t216 56q256 0 321 -260q53 27 92 133h66q-16 -61 -27.5 -96t-42 -88t-69.5 -82q4 -53 4 -86q0 -258 -95.5 -412.5t-304.5 -154.5q-168 0 -275.5 110.5t-107.5 352.5zM362 471q1 -291 140 -291q84 0 125 106.5t41 284.5v29 q-82 18 -82 121q0 66 53 86q-37 104 -109 104q-82 0 -125 -136t-43 -304zM408 1149l104 387h215l-166 -387h-153z" />
<glyph horiz-adv-x="1632" d="M61 451q0 98 19.5 191t66 186.5t137.5 149.5t216 56q279 0 331 -311q131 29 242 324l295 40q53 -207 112.5 -387t81 -261t21.5 -175q0 -141 -87 -208.5t-210 -67.5q-172 0 -260 90t-88 227q0 68 33 109t80 41q125 0 125 -101q0 -33 -23 -55.5t-57 -22.5q-43 0 -62 27 q33 -153 150 -153h2q51 0 75.5 26.5t24.5 87.5q0 82 -17.5 147.5t-66.5 205t-90 282.5q-102 -219 -270 -281q0 -10 1 -30.5t1 -32.5q0 -258 -95.5 -412.5t-304.5 -154.5q-168 0 -275.5 110.5t-107.5 352.5zM362 471q1 -291 140 -291q84 0 125 106.5t41 284.5v27 q-82 18 -82 121q0 66 53 86q-37 106 -109 106q-82 0 -125 -136t-43 -304zM424 1149l104 387h215l-165 -387h-154z" />
<glyph d="M96 -512v1612h295v-182q75 114 217 114h2q287 0 287 -377q0 -37 -4 -147.5t-4 -145.5q0 -92 22.5 -134t83.5 -42q45 0 73 27t38 57.5t24 96.5h87q-14 -117 -47 -197t-78 -118t-87 -51t-94 -13q-297 0 -297 387q0 18 1 118.5t1 120.5q0 231 -104 232h-1q-103 0 -120 -189 v-1095z" />
<glyph horiz-adv-x="987" d="M96 -512v1612h295v-182q77 114 211 114h2q152 0 241 -139t91 -361q84 23 209 46v-119q-104 -6 -215 -37q-16 -182 -93 -308t-204 -126q-82 0 -133 52t-51 132q0 172 260 285v12q0 162 -45.5 269.5t-141.5 107.5q-113 0 -131 -189v-1095zM569 188q0 -41 47 -41 q53 0 78 150q4 20 4 33q-129 -74 -129 -142z" />
<glyph horiz-adv-x="804" d="M49 291q0 111 76 149q123 322 156 607l294 40l71 -264l54 -197q15 -57 30 -126.5t19.5 -116.5t4.5 -107q0 -147 -105.5 -217.5t-238.5 -70.5q-166 0 -263.5 95t-97.5 208zM154 293q31 -143 155 -143q145 0 146 143q0 43 -2 75.5t-15 84.5l-19 81q-7 29 -34 124l-43 155 q-23 -109 -113 -379q58 -27 58 -86q0 -33 -19.5 -57.5t-52.5 -24.5q-43 0 -61 27z" />
<glyph horiz-adv-x="577" d="M39 942v82h65v283l295 41v-324h123v-82h-123v-614q0 -84 22.5 -113t84.5 -29q37 0 57 17q2 -14 2 -43q0 -82 -49 -127t-127 -45q-285 0 -285 317v637h-65z" />
<glyph horiz-adv-x="1052" d="M96 305v719h295v-696q0 -141 84 -142q53 0 87 50.5t40 130.5v657h295v-696q0 -84 22.5 -113t84.5 -29q25 0 40 9q-18 -119 -53 -163t-119 -44q-188 0 -229 192q-80 -192 -270 -192h-2q-274 0 -275 317z" />
<glyph horiz-adv-x="1845" d="M96 305v719h295v-696q0 -141 84 -142q53 0 87 50.5t40 130.5v657h295v-696q0 -141 113 -142q78 0 157.5 55.5t126.5 137.5l-254 645h289l172 -438q162 221 162 315q0 18 -2 29q-8 0 -15.5 -2t-15.5 -2q-61 0 -94 34.5t-33 81.5q0 51 38 82t89 31q63 0 109.5 -47 t46.5 -139q0 -195 -234 -508l37 -94q39 -100 72 -140.5t96 -40.5q39 0 64 13q2 -14 2 -39q0 -82 -52.5 -121t-134.5 -39q-96 0 -161.5 58.5t-131.5 201.5q-158 -272 -421 -272q-88 0 -166 53t-111 143q-78 -196 -272 -196h-2q-274 0 -275 317z" />
<glyph horiz-adv-x="1054" d="M96 305v719h295v-696q0 -141 84 -142q53 0 87 50.5t40 130.5v657h295v-696q0 -84 22.5 -113t84.5 -29q25 0 40 9q-18 -119 -53 -163t-119 -44q-188 0 -229 192q-80 -192 -270 -192h-2q-274 0 -275 317zM379 1149l104 387h215l-166 -387h-153z" />
<glyph horiz-adv-x="1103" d="M94 367q0 125 16.5 234.5t52.5 211.5t105.5 161.5t165.5 59.5q184 0 277 -243l57 -152q123 176 123 262q0 18 -2 29q-8 0 -15.5 -2t-15.5 -2q-61 0 -94 34.5t-33 81.5q0 51 38 82t89 31q63 0 109.5 -47t46.5 -135q0 -182 -199 -463l57 -145q43 -109 75 -144t87 -35 q39 0 68 13q2 -12 2 -37q0 -86 -57.5 -130t-135.5 -44q-98 0 -175 85t-146 271l-211 -344h-148l314 467l-82 229q-35 100 -59.5 135t-53.5 35q-66 0 -118 -131t-52 -368h-86z" />
<glyph horiz-adv-x="987" d="M96 305v719h295v-696q0 -141 84 -142q53 0 87 50.5t40 130.5v657h295v-1188q0 -104 -25.5 -176t-69.5 -107.5t-90 -50t-100 -14.5q-121 0 -202.5 63.5t-81.5 167.5q0 180 274 273v112q-79 -116 -228 -116h-3q-274 0 -275 317zM436 -262q0 -37 26.5 -63.5t57.5 -26.5 q82 0 82 182v59q-166 -69 -166 -151z" />
</font>
</defs>
</svg>
